 0
SECTION
 2
HEADER
 9
$ACADVER
 1
AC1009
 0
ENDSEC
 0
SECTION
 2
ENTITIES
 0
POLYLINE
 8
TITLE
 66
1
 70
1
 10
0.0
 20
0.0
 30
0.0
 0
VERTEX
 8
TITLE
 10
 -2.5400
 20
  2.5400
 30
0.0
 0
VERTEX
 8
TITLE
 10
294.3860
 20
  2.5400
 30
0.0
 0
VERTEX
 8
TITLE
 10
294.3860
 20
212.3440
 30
0.0
 0
VERTEX
 8
TITLE
 10
 -2.5400
 20
212.3440
 30
0.0
 0
SEQEND
 8
TITLE
 0
POLYLINE
 8
TITLE
 66
1
 70
1
 10
0.0
 20
0.0
 30
0.0
 0
VERTEX
 8
TITLE
 10
  0.0000
 20
  5.0800
 30
0.0
 0
VERTEX
 8
TITLE
 10
291.8460
 20
  5.0800
 30
0.0
 0
VERTEX
 8
TITLE
 10
291.8460
 20
209.8040
 30
0.0
 0
VERTEX
 8
TITLE
 10
  0.0000
 20
209.8040
 30
0.0
 0
SEQEND
 8
TITLE
 0
POLYLINE
 8
TITLE
 66
1
 10
0.0
 20
0.0
 30
0.0
 0
VERTEX
 8
TITLE
 10
 62.2300
 20
  5.0800
 30
0.0
 0
VERTEX
 8
TITLE
 10
 62.2300
 20
  2.5400
 30
0.0
 0
SEQEND
 8
TITLE
 0
POLYLINE
 8
TITLE
 66
1
 10
0.0
 20
0.0
 30
0.0
 0
VERTEX
 8
TITLE
 10
 62.2300
 20
209.8040
 30
0.0
 0
VERTEX
 8
TITLE
 10
 62.2300
 20
212.3440
 30
0.0
 0
SEQEND
 8
TITLE
 0
POLYLINE
 8
TITLE
 66
1
 10
0.0
 20
0.0
 30
0.0
 0
VERTEX
 8
TITLE
 10
119.3800
 20
  5.0800
 30
0.0
 0
VERTEX
 8
TITLE
 10
119.3800
 20
  2.5400
 30
0.0
 0
SEQEND
 8
TITLE
 0
POLYLINE
 8
TITLE
 66
1
 10
0.0
 20
0.0
 30
0.0
 0
VERTEX
 8
TITLE
 10
119.3800
 20
209.8040
 30
0.0
 0
VERTEX
 8
TITLE
 10
119.3800
 20
212.3440
 30
0.0
 0
SEQEND
 8
TITLE
 0
POLYLINE
 8
TITLE
 66
1
 10
0.0
 20
0.0
 30
0.0
 0
VERTEX
 8
TITLE
 10
176.5300
 20
  5.0800
 30
0.0
 0
VERTEX
 8
TITLE
 10
176.5300
 20
  2.5400
 30
0.0
 0
SEQEND
 8
TITLE
 0
POLYLINE
 8
TITLE
 66
1
 10
0.0
 20
0.0
 30
0.0
 0
VERTEX
 8
TITLE
 10
176.5300
 20
209.8040
 30
0.0
 0
VERTEX
 8
TITLE
 10
176.5300
 20
212.3440
 30
0.0
 0
SEQEND
 8
TITLE
 0
POLYLINE
 8
TITLE
 66
1
 10
0.0
 20
0.0
 30
0.0
 0
VERTEX
 8
TITLE
 10
233.6800
 20
  5.0800
 30
0.0
 0
VERTEX
 8
TITLE
 10
233.6800
 20
  2.5400
 30
0.0
 0
SEQEND
 8
TITLE
 0
POLYLINE
 8
TITLE
 66
1
 10
0.0
 20
0.0
 30
0.0
 0
VERTEX
 8
TITLE
 10
233.6800
 20
209.8040
 30
0.0
 0
VERTEX
 8
TITLE
 10
233.6800
 20
212.3440
 30
0.0
 0
SEQEND
 8
TITLE
 0
TEXT
 8
TITLE
 10
 33.5280
 20
  3.0480
 30
0.0
 40
  1.2700
 1
5
 0
TEXT
 8
TITLE
 10
 33.5280
 20
210.3120
 30
0.0
 40
  1.2700
 1
5
 0
TEXT
 8
TITLE
 10
 90.6780
 20
  3.0480
 30
0.0
 40
  1.2700
 1
4
 0
TEXT
 8
TITLE
 10
 90.6780
 20
210.3120
 30
0.0
 40
  1.2700
 1
4
 0
TEXT
 8
TITLE
 10
147.8280
 20
  3.0480
 30
0.0
 40
  1.2700
 1
3
 0
TEXT
 8
TITLE
 10
147.8280
 20
210.3120
 30
0.0
 40
  1.2700
 1
3
 0
TEXT
 8
TITLE
 10
204.9780
 20
  3.0480
 30
0.0
 40
  1.2700
 1
2
 0
TEXT
 8
TITLE
 10
204.9780
 20
210.3120
 30
0.0
 40
  1.2700
 1
2
 0
TEXT
 8
TITLE
 10
262.1280
 20
  3.0480
 30
0.0
 40
  1.2700
 1
1
 0
TEXT
 8
TITLE
 10
262.1280
 20
210.3120
 30
0.0
 40
  1.2700
 1
1
 0
POLYLINE
 8
TITLE
 66
1
 10
0.0
 20
0.0
 30
0.0
 0
VERTEX
 8
TITLE
 10
 -2.5400
 20
154.9400
 30
0.0
 0
VERTEX
 8
TITLE
 10
  0.0000
 20
154.9400
 30
0.0
 0
SEQEND
 8
TITLE
 0
POLYLINE
 8
TITLE
 66
1
 10
0.0
 20
0.0
 30
0.0
 0
VERTEX
 8
TITLE
 10
291.8460
 20
154.9400
 30
0.0
 0
VERTEX
 8
TITLE
 10
294.3860
 20
154.9400
 30
0.0
 0
SEQEND
 8
TITLE
 0
SOLID
 8
TITLE
 10
  0.0000
 20
105.1560
 30
0.0
 11
 -1.2700
 21
105.6640
 31
0.0
 12
 -1.2700
 22
104.6480
 32
0.0
 13
 -1.2700
 23
105.1560
 33
0.0
 0
SOLID
 8
TITLE
 10
291.8460
 20
105.1560
 30
0.0
 11
293.1160
 21
105.6640
 31
0.0
 12
293.1160
 22
104.6480
 32
0.0
 13
293.1160
 23
105.1560
 33
0.0
 0
POLYLINE
 8
TITLE
 66
1
 10
0.0
 20
0.0
 30
0.0
 0
VERTEX
 8
TITLE
 10
 -2.5400
 20
105.1560
 30
0.0
 0
VERTEX
 8
TITLE
 10
  0.0000
 20
105.1560
 30
0.0
 0
SEQEND
 8
TITLE
 0
POLYLINE
 8
TITLE
 66
1
 10
0.0
 20
0.0
 30
0.0
 0
VERTEX
 8
TITLE
 10
291.8460
 20
105.1560
 30
0.0
 0
VERTEX
 8
TITLE
 10
294.3860
 20
105.1560
 30
0.0
 0
SEQEND
 8
TITLE
 0
SOLID
 8
TITLE
 10
  0.0000
 20
105.1560
 30
0.0
 11
 -1.2700
 21
105.6640
 31
0.0
 12
 -1.2700
 22
104.6480
 32
0.0
 13
 -1.2700
 23
105.1560
 33
0.0
 0
SOLID
 8
TITLE
 10
291.8460
 20
105.1560
 30
0.0
 11
293.1160
 21
105.6640
 31
0.0
 12
293.1160
 22
104.6480
 32
0.0
 13
293.1160
 23
105.1560
 33
0.0
 0
POLYLINE
 8
TITLE
 66
1
 10
0.0
 20
0.0
 30
0.0
 0
VERTEX
 8
TITLE
 10
 -2.5400
 20
 55.3720
 30
0.0
 0
VERTEX
 8
TITLE
 10
  0.0000
 20
 55.3720
 30
0.0
 0
SEQEND
 8
TITLE
 0
POLYLINE
 8
TITLE
 66
1
 10
0.0
 20
0.0
 30
0.0
 0
VERTEX
 8
TITLE
 10
291.8460
 20
 55.3720
 30
0.0
 0
VERTEX
 8
TITLE
 10
294.3860
 20
 55.3720
 30
0.0
 0
SEQEND
 8
TITLE
 0
SOLID
 8
TITLE
 10
  0.0000
 20
105.1560
 30
0.0
 11
 -1.2700
 21
105.6640
 31
0.0
 12
 -1.2700
 22
104.6480
 32
0.0
 13
 -1.2700
 23
105.1560
 33
0.0
 0
SOLID
 8
TITLE
 10
291.8460
 20
105.1560
 30
0.0
 11
293.1160
 21
105.6640
 31
0.0
 12
293.1160
 22
104.6480
 32
0.0
 13
293.1160
 23
105.1560
 33
0.0
 0
TEXT
 8
TITLE
 10
 -2.0320
 20
179.8320
 30
0.0
 40
  1.2700
 1
D
 0
TEXT
 8
TITLE
 10
292.3540
 20
179.8320
 30
0.0
 40
  1.2700
 1
D
 0
TEXT
 8
TITLE
 10
 -2.0320
 20
130.0480
 30
0.0
 40
  1.2700
 1
C
 0
TEXT
 8
TITLE
 10
292.3540
 20
130.0480
 30
0.0
 40
  1.2700
 1
C
 0
TEXT
 8
TITLE
 10
 -2.0320
 20
 80.2640
 30
0.0
 40
  1.2700
 1
B
 0
TEXT
 8
TITLE
 10
292.3540
 20
 80.2640
 30
0.0
 40
  1.2700
 1
B
 0
TEXT
 8
TITLE
 10
 -2.0320
 20
 30.4800
 30
0.0
 40
  1.2700
 1
A
 0
TEXT
 8
TITLE
 10
292.3540
 20
 30.4800
 30
0.0
 40
  1.2700
 1
A
 0
TEXT
 8
TITLE
 10
271.5260
 20
 26.6043
 30
0.0
 40
  1.3057
 1
rev
 0
TEXT
 8
TITLE
 10
271.5260
 20
 21.5243
 30
0.0
 40
  1.3057
 1
2026-03-17
 0
TEXT
 8
TITLE
 10
271.5260
 20
 16.4443
 30
0.0
 40
  1.3057
 1
2026-05-08
 0
TEXT
 8
TITLE
 10
182.3720
 20
  7.3737
 30
0.0
 40
  1.7403
 1
>页码
 0
TEXT
 8
TITLE
 10
194.5640
 20
  7.3737
 30
0.0
 40
  1.7403
 1
更新<
 0
TEXT
 8
TITLE
 10
271.5260
 20
 11.3643
 30
0.0
 40
  1.3057
 1
A4
 0
TEXT
 8
TITLE
 10
220.7260
 20
 26.6043
 30
0.0
 40
  1.3057
 1
DSN_CIS_LIB_TEST_V1
 0
TEXT
 8
TITLE
 10
220.7260
 20
 16.4443
 30
0.0
 40
  1.3057
 1
PAGE1
 0
TEXT
 8
TITLE
 10
220.7260
 20
 21.5243
 30
0.0
 40
  1.3057
 1
SCHEMATIC1
 0
TEXT
 8
TITLE
 10
220.7260
 20
 31.6843
 30
0.0
 40
  1.3057
 1
title
 0
TEXT
 8
TITLE
 10
271.5260
 20
 31.6843
 30
0.0
 40
  1.3057
 1
doc
 0
TEXT
 8
TITLE
 10
220.7260
 20
 11.3643
 30
0.0
 40
  1.3057
 1
>备注信息
 0
TEXT
 8
TITLE
 10
185.6740
 20
 27.6977
 30
0.0
 40
  2.7523
 1
n
 0
TEXT
 8
TITLE
 10
195.8340
 20
 13.0333
 30
0.0
 40
  1.1607
 1
CHECKED
 0
TEXT
 8
TITLE
 10
179.5780
 20
 13.2615
 30
0.0
 40
  3.4725
 1
Joey
 0
TEXT
 8
TITLE
 10
190.5000
 20
 27.6977
 30
0.0
 40
  2.7523
 1
Joey
 0
POLYLINE
 8
TITLE
 66
1
 70
1
 10
0.0
 20
0.0
 30
0.0
 40
  0.0600
 41
  0.0600
 0
VERTEX
 8
TITLE
 10
169.9260
 20
 35.5600
 30
0.0
 0
VERTEX
 8
TITLE
 10
291.8460
 20
 35.5600
 30
0.0
 0
VERTEX
 8
TITLE
 10
291.8460
 20
  5.0800
 30
0.0
 0
VERTEX
 8
TITLE
 10
169.9260
 20
  5.0800
 30
0.0
 0
SEQEND
 8
TITLE
 0
TEXT
 8
PARTTEXT
 10
172.4660
 20
 20.2543
 30
0.0
 40
  1.3057
 1
「 電 橋 」 追 求 Balance
 0
TEXT
 8
PARTTEXT
 10
173.4820
 20
 17.4963
 30
0.0
 40
  1.0157
 1
ENJOEY SEEKS BALANCE 'CO., LTD.'
 0
POLYLINE
 8
TITLE
 66
1
 70
1
 10
0.0
 20
0.0
 30
0.0
 0
VERTEX
 8
TITLE
 10
171.1960
 20
 34.2900
 30
0.0
 0
VERTEX
 8
TITLE
 10
206.7560
 20
 34.2900
 30
0.0
 0
VERTEX
 8
TITLE
 10
206.7560
 20
 16.5100
 30
0.0
 0
VERTEX
 8
TITLE
 10
171.1960
 20
 16.5100
 30
0.0
 0
SEQEND
 8
TITLE
 0
POLYLINE
 8
TITLE
 66
1
 10
0.0
 20
0.0
 30
0.0
 0
VERTEX
 8
TITLE
 10
172.4660
 20
 18.7960
 30
0.0
 0
VERTEX
 8
TITLE
 10
205.4860
 20
 18.7960
 30
0.0
 0
SEQEND
 8
TITLE
 0
POLYLINE
 8
TITLE
 66
1
 70
1
 10
0.0
 20
0.0
 30
0.0
 0
VERTEX
 8
TITLE
 10
171.1960
 20
  8.8900
 30
0.0
 0
VERTEX
 8
TITLE
 10
206.7560
 20
  8.8900
 30
0.0
 0
VERTEX
 8
TITLE
 10
206.7560
 20
  6.3500
 30
0.0
 0
VERTEX
 8
TITLE
 10
171.1960
 20
  6.3500
 30
0.0
 0
SEQEND
 8
TITLE
 0
POLYLINE
 8
TITLE
 66
1
 10
0.0
 20
0.0
 30
0.0
 0
VERTEX
 8
TITLE
 10
290.5760
 20
  6.3500
 30
0.0
 0
VERTEX
 8
TITLE
 10
291.8460
 20
  5.0800
 30
0.0
 0
SEQEND
 8
TITLE
 0
TEXT
 8
PARTTEXT
 10
208.0260
 20
 26.6043
 30
0.0
 40
  1.3057
 1
设计名称：
 0
TEXT
 8
PARTTEXT
 10
258.8260
 20
 16.4443
 30
0.0
 40
  1.3057
 1
修改日期：
 0
TEXT
 8
PARTTEXT
 10
258.8260
 20
 21.5243
 30
0.0
 40
  1.3057
 1
创建日期：
 0
TEXT
 8
PARTTEXT
 10
258.8260
 20
 11.3643
 30
0.0
 40
  1.3057
 1
图纸大小：
 0
TEXT
 8
PARTTEXT
 10
258.8260
 20
 26.6043
 30
0.0
 40
  1.3057
 1
设计版本：
 0
TEXT
 8
PARTTEXT
 10
208.0260
 20
 31.6843
 30
0.0
 40
  1.3057
 1
文档标题：
 0
TEXT
 8
PARTTEXT
 10
258.8260
 20
 31.6843
 30
0.0
 40
  1.3057
 1
文档代码：
 0
TEXT
 8
PARTTEXT
 10
210.5660
 20
 21.5243
 30
0.0
 40
  1.3057
 1
模  块：
 0
TEXT
 8
PARTTEXT
 10
213.1060
 20
 16.4443
 30
0.0
 40
  1.3057
 1
页面：
 0
TEXT
 8
PARTTEXT
 10
208.0260
 20
 11.3643
 30
0.0
 40
  1.3057
 1
备    注：
 0
POLYLINE
 8
TITLE
 66
1
 70
1
 10
0.0
 20
0.0
 30
0.0
 0
VERTEX
 8
TITLE
 10
206.7560
 20
  8.8900
 30
0.0
 0
VERTEX
 8
TITLE
 10
290.5760
 20
  8.8900
 30
0.0
 0
VERTEX
 8
TITLE
 10
290.5760
 20
  6.3500
 30
0.0
 0
VERTEX
 8
TITLE
 10
206.7560
 20
  6.3500
 30
0.0
 0
SEQEND
 8
TITLE
 0
TEXT
 8
PARTTEXT
 10
208.0260
 20
  7.3003
 30
0.0
 40
  1.3057
 1
EDA  SOFTWARE  :  CADENCE    Capture    Pad Designer    Allegro
 0
POLYLINE
 8
TITLE
 66
1
 70
1
 10
0.0
 20
0.0
 30
0.0
 0
VERTEX
 8
TITLE
 10
206.7560
 20
 13.9700
 30
0.0
 0
VERTEX
 8
TITLE
 10
257.5560
 20
 13.9700
 30
0.0
 0
VERTEX
 8
TITLE
 10
257.5560
 20
  8.8900
 30
0.0
 0
VERTEX
 8
TITLE
 10
206.7560
 20
  8.8900
 30
0.0
 0
SEQEND
 8
TITLE
 0
POLYLINE
 8
TITLE
 66
1
 70
1
 10
0.0
 20
0.0
 30
0.0
 0
VERTEX
 8
TITLE
 10
257.5560
 20
 34.2900
 30
0.0
 0
VERTEX
 8
TITLE
 10
290.5760
 20
 34.2900
 30
0.0
 0
VERTEX
 8
TITLE
 10
290.5760
 20
 29.2100
 30
0.0
 0
VERTEX
 8
TITLE
 10
257.5560
 20
 29.2100
 30
0.0
 0
SEQEND
 8
TITLE
 0
POLYLINE
 8
TITLE
 66
1
 70
1
 10
0.0
 20
0.0
 30
0.0
 0
VERTEX
 8
TITLE
 10
257.5560
 20
 29.2100
 30
0.0
 0
VERTEX
 8
TITLE
 10
290.5760
 20
 29.2100
 30
0.0
 0
VERTEX
 8
TITLE
 10
290.5760
 20
 24.1300
 30
0.0
 0
VERTEX
 8
TITLE
 10
257.5560
 20
 24.1300
 30
0.0
 0
SEQEND
 8
TITLE
 0
POLYLINE
 8
TITLE
 66
1
 70
1
 10
0.0
 20
0.0
 30
0.0
 0
VERTEX
 8
TITLE
 10
257.5560
 20
 24.1300
 30
0.0
 0
VERTEX
 8
TITLE
 10
290.5760
 20
 24.1300
 30
0.0
 0
VERTEX
 8
TITLE
 10
290.5760
 20
 19.0500
 30
0.0
 0
VERTEX
 8
TITLE
 10
257.5560
 20
 19.0500
 30
0.0
 0
SEQEND
 8
TITLE
 0
POLYLINE
 8
TITLE
 66
1
 70
1
 10
0.0
 20
0.0
 30
0.0
 0
VERTEX
 8
TITLE
 10
257.5560
 20
 19.0500
 30
0.0
 0
VERTEX
 8
TITLE
 10
290.5760
 20
 19.0500
 30
0.0
 0
VERTEX
 8
TITLE
 10
290.5760
 20
 13.9700
 30
0.0
 0
VERTEX
 8
TITLE
 10
257.5560
 20
 13.9700
 30
0.0
 0
SEQEND
 8
TITLE
 0
POLYLINE
 8
TITLE
 66
1
 70
1
 10
0.0
 20
0.0
 30
0.0
 0
VERTEX
 8
TITLE
 10
257.5560
 20
 13.9700
 30
0.0
 0
VERTEX
 8
TITLE
 10
290.5760
 20
 13.9700
 30
0.0
 0
VERTEX
 8
TITLE
 10
290.5760
 20
  8.8900
 30
0.0
 0
VERTEX
 8
TITLE
 10
257.5560
 20
  8.8900
 30
0.0
 0
SEQEND
 8
TITLE
 0
POLYLINE
 8
TITLE
 66
1
 10
0.0
 20
0.0
 30
0.0
 0
VERTEX
 8
TITLE
 10
290.5760
 20
 34.2900
 30
0.0
 0
VERTEX
 8
TITLE
 10
291.8460
 20
 35.5600
 30
0.0
 0
SEQEND
 8
TITLE
 0
TEXT
 8
PARTTEXT
 10
171.9580
 20
 13.2197
 30
0.0
 40
  2.7523
 1
?
 0
POLYLINE
 8
TITLE
 66
1
 70
1
 10
0.0
 20
0.0
 30
0.0
 0
VERTEX
 8
TITLE
 10
171.1960
 20
 16.5100
 30
0.0
 0
VERTEX
 8
TITLE
 10
188.9760
 20
 16.5100
 30
0.0
 0
VERTEX
 8
TITLE
 10
188.9760
 20
  8.8900
 30
0.0
 0
VERTEX
 8
TITLE
 10
171.1960
 20
  8.8900
 30
0.0
 0
SEQEND
 8
TITLE
 0
POLYLINE
 8
TITLE
 66
1
 70
1
 10
0.0
 20
0.0
 30
0.0
 0
VERTEX
 8
TITLE
 10
188.9760
 20
 16.5100
 30
0.0
 0
VERTEX
 8
TITLE
 10
206.7560
 20
 16.5100
 30
0.0
 0
VERTEX
 8
TITLE
 10
206.7560
 20
  8.8900
 30
0.0
 0
VERTEX
 8
TITLE
 10
188.9760
 20
  8.8900
 30
0.0
 0
SEQEND
 8
TITLE
 0
POLYLINE
 8
TITLE
 66
1
 10
0.0
 20
0.0
 30
0.0
 0
VERTEX
 8
TITLE
 10
188.9760
 20
  8.1280
 30
0.0
 0
VERTEX
 8
TITLE
 10
188.9760
 20
  7.1120
 30
0.0
 0
SEQEND
 8
TITLE
 0
POLYLINE
 8
TITLE
 66
1
 10
0.0
 20
0.0
 30
0.0
 0
VERTEX
 8
TITLE
 10
169.9260
 20
 35.5600
 30
0.0
 0
VERTEX
 8
TITLE
 10
171.1960
 20
 34.2900
 30
0.0
 0
SEQEND
 8
TITLE
 0
POLYLINE
 8
TITLE
 66
1
 10
0.0
 20
0.0
 30
0.0
 0
VERTEX
 8
TITLE
 10
171.1960
 20
  6.3500
 30
0.0
 0
VERTEX
 8
TITLE
 10
169.9260
 20
  5.0800
 30
0.0
 0
SEQEND
 8
TITLE
 0
TEXT
 8
PARTTEXT
 10
189.9920
 20
 12.3089
 30
0.0
 40
  1.8851
 1
R
 0
POLYLINE
 8
TITLE
 66
1
 70
1
 10
0.0
 20
0.0
 30
0.0
 0
VERTEX
 8
TITLE
 10
193.8020
 20
 11.9380
 30
0.0
 0
VERTEX
 8
TITLE
 10
194.0560
 20
 11.9380
 30
0.0
 0
VERTEX
 8
TITLE
 10
194.0560
 20
 11.6840
 30
0.0
 0
VERTEX
 8
TITLE
 10
193.8020
 20
 11.6840
 30
0.0
 0
SEQEND
 8
TITLE
 0
POLYLINE
 8
TITLE
 66
1
 70
1
 10
0.0
 20
0.0
 30
0.0
 0
VERTEX
 8
TITLE
 10
193.8020
 20
 13.4620
 30
0.0
 0
VERTEX
 8
TITLE
 10
194.0560
 20
 13.4620
 30
0.0
 0
VERTEX
 8
TITLE
 10
194.0560
 20
 13.2080
 30
0.0
 0
VERTEX
 8
TITLE
 10
193.8020
 20
 13.2080
 30
0.0
 0
SEQEND
 8
TITLE
 0
POLYLINE
 8
TITLE
 66
1
 70
1
 10
0.0
 20
0.0
 30
0.0
 0
VERTEX
 8
TITLE
 10
176.7840
 20
 11.9380
 30
0.0
 0
VERTEX
 8
TITLE
 10
177.0380
 20
 11.9380
 30
0.0
 0
VERTEX
 8
TITLE
 10
177.0380
 20
 11.6840
 30
0.0
 0
VERTEX
 8
TITLE
 10
176.7840
 20
 11.6840
 30
0.0
 0
SEQEND
 8
TITLE
 0
POLYLINE
 8
TITLE
 66
1
 70
1
 10
0.0
 20
0.0
 30
0.0
 0
VERTEX
 8
TITLE
 10
176.7840
 20
 13.4620
 30
0.0
 0
VERTEX
 8
TITLE
 10
177.0380
 20
 13.4620
 30
0.0
 0
VERTEX
 8
TITLE
 10
177.0380
 20
 13.2080
 30
0.0
 0
VERTEX
 8
TITLE
 10
176.7840
 20
 13.2080
 30
0.0
 0
SEQEND
 8
TITLE
 0
POLYLINE
 8
TITLE
 66
1
 70
1
 10
0.0
 20
0.0
 30
0.0
 0
VERTEX
 8
TITLE
 10
281.9400
 20
  8.6360
 30
0.0
 0
VERTEX
 8
TITLE
 10
283.9720
 20
  8.6360
 30
0.0
 0
VERTEX
 8
TITLE
 10
283.9720
 20
  6.6040
 30
0.0
 0
VERTEX
 8
TITLE
 10
281.9400
 20
  6.6040
 30
0.0
 0
SEQEND
 8
TITLE
 0
POLYLINE
 8
TITLE
 66
1
 70
1
 10
0.0
 20
0.0
 30
0.0
 0
VERTEX
 8
TITLE
 10
284.4800
 20
  8.6360
 30
0.0
 0
VERTEX
 8
TITLE
 10
286.5120
 20
  8.6360
 30
0.0
 0
VERTEX
 8
TITLE
 10
286.5120
 20
  6.6040
 30
0.0
 0
VERTEX
 8
TITLE
 10
284.4800
 20
  6.6040
 30
0.0
 0
SEQEND
 8
TITLE
 0
POLYLINE
 8
TITLE
 66
1
 70
1
 10
0.0
 20
0.0
 30
0.0
 0
VERTEX
 8
TITLE
 10
287.0200
 20
  8.6360
 30
0.0
 0
VERTEX
 8
TITLE
 10
289.0520
 20
  8.6360
 30
0.0
 0
VERTEX
 8
TITLE
 10
289.0520
 20
  6.6040
 30
0.0
 0
VERTEX
 8
TITLE
 10
287.0200
 20
  6.6040
 30
0.0
 0
SEQEND
 8
TITLE
 0
POLYLINE
 8
TITLE
 66
1
 70
1
 10
0.0
 20
0.0
 30
0.0
 0
VERTEX
 8
TITLE
 10
206.7560
 20
 34.2900
 30
0.0
 0
VERTEX
 8
TITLE
 10
257.5560
 20
 34.2900
 30
0.0
 0
VERTEX
 8
TITLE
 10
257.5560
 20
 29.2100
 30
0.0
 0
VERTEX
 8
TITLE
 10
206.7560
 20
 29.2100
 30
0.0
 0
SEQEND
 8
TITLE
 0
POLYLINE
 8
TITLE
 66
1
 10
0.0
 20
0.0
 30
0.0
 0
VERTEX
 8
TITLE
 10
207.5180
 20
 28.9560
 30
0.0
 0
VERTEX
 8
TITLE
 10
207.0100
 20
 28.4480
 30
0.0
 0
SEQEND
 8
TITLE
 0
POLYLINE
 8
TITLE
 66
1
 10
0.0
 20
0.0
 30
0.0
 0
VERTEX
 8
TITLE
 10
257.3020
 20
 15.2400
 30
0.0
 0
VERTEX
 8
TITLE
 10
256.2860
 20
 14.2240
 30
0.0
 0
SEQEND
 8
TITLE
 0
POLYLINE
 8
TITLE
 66
1
 10
0.0
 20
0.0
 30
0.0
 0
VERTEX
 8
TITLE
 10
257.3020
 20
 14.7320
 30
0.0
 0
VERTEX
 8
TITLE
 10
256.7940
 20
 14.2240
 30
0.0
 0
SEQEND
 8
TITLE
 0
POLYLINE
 8
TITLE
 66
1
 10
0.0
 20
0.0
 30
0.0
 0
VERTEX
 8
TITLE
 10
219.4560
 20
 24.1300
 30
0.0
 0
VERTEX
 8
TITLE
 10
256.2860
 20
 24.1300
 30
0.0
 0
SEQEND
 8
TITLE
 0
POLYLINE
 8
TITLE
 66
1
 10
0.0
 20
0.0
 30
0.0
 0
VERTEX
 8
TITLE
 10
219.4560
 20
 19.0500
 30
0.0
 0
VERTEX
 8
TITLE
 10
256.2860
 20
 19.0500
 30
0.0
 0
SEQEND
 8
TITLE
 0
POLYLINE
 8
TITLE
 66
1
 70
1
 10
0.0
 20
0.0
 30
0.0
 0
VERTEX
 8
TITLE
 10
279.4000
 20
  8.6360
 30
0.0
 0
VERTEX
 8
TITLE
 10
281.4320
 20
  8.6360
 30
0.0
 0
VERTEX
 8
TITLE
 10
281.4320
 20
  6.6040
 30
0.0
 0
VERTEX
 8
TITLE
 10
279.4000
 20
  6.6040
 30
0.0
 0
SEQEND
 8
TITLE
 0
POLYLINE
 8
TITLE
 66
1
 70
1
 10
0.0
 20
0.0
 30
0.0
 0
VERTEX
 8
TITLE
 10
276.8600
 20
  8.6360
 30
0.0
 0
VERTEX
 8
TITLE
 10
278.8920
 20
  8.6360
 30
0.0
 0
VERTEX
 8
TITLE
 10
278.8920
 20
  6.6040
 30
0.0
 0
VERTEX
 8
TITLE
 10
276.8600
 20
  6.6040
 30
0.0
 0
SEQEND
 8
TITLE
 0
POLYLINE
 8
TITLE
 66
1
 70
1
 10
0.0
 20
0.0
 30
0.0
 0
VERTEX
 8
TITLE
 10
274.3200
 20
  8.6360
 30
0.0
 0
VERTEX
 8
TITLE
 10
276.3520
 20
  8.6360
 30
0.0
 0
VERTEX
 8
TITLE
 10
276.3520
 20
  6.6040
 30
0.0
 0
VERTEX
 8
TITLE
 10
274.3200
 20
  6.6040
 30
0.0
 0
SEQEND
 8
TITLE
 0
POLYLINE
 8
TITLE
 66
1
 10
0.0
 20
0.0
 30
0.0
 40
  0.0600
 41
  0.0600
 0
VERTEX
 8
TITLE
 10
179.0700
 20
 27.9400
 30
0.0
 0
VERTEX
 8
TITLE
 10
182.6260
 20
 27.9400
 30
0.0
 0
SEQEND
 8
TITLE
 0
POLYLINE
 8
TITLE
 66
1
 10
0.0
 20
0.0
 30
0.0
 40
  0.0600
 41
  0.0600
 0
VERTEX
 8
TITLE
 10
179.0700
 20
 25.4000
 30
0.0
 0
VERTEX
 8
TITLE
 10
179.0700
 20
 30.4800
 30
0.0
 0
SEQEND
 8
TITLE
 0
POLYLINE
 8
TITLE
 66
1
 70
1
 10
0.0
 20
0.0
 30
0.0
 40
  0.0600
 41
  0.0600
 0
VERTEX
 8
TITLE
 10
185.1660
 20
 27.9400
 30
0.0
 42
  0.1033
 0
VERTEX
 8
TITLE
 10
184.7986
 20
 29.5924
 30
0.0
 42
  0.1009
 0
VERTEX
 8
TITLE
 10
183.7525
 20
 30.9933
 30
0.0
 42
  0.0961
 0
VERTEX
 8
TITLE
 10
182.1868
 20
 31.9293
 30
0.0
 42
  0.0937
 0
VERTEX
 8
TITLE
 10
180.3400
 20
 32.2580
 30
0.0
 42
  0.0937
 0
VERTEX
 8
TITLE
 10
178.4932
 20
 31.9293
 30
0.0
 42
  0.0961
 0
VERTEX
 8
TITLE
 10
176.9275
 20
 30.9933
 30
0.0
 42
  0.1009
 0
VERTEX
 8
TITLE
 10
175.8814
 20
 29.5924
 30
0.0
 42
  0.1033
 0
VERTEX
 8
TITLE
 10
175.5140
 20
 27.9400
 30
0.0
 42
  0.1033
 0
VERTEX
 8
TITLE
 10
175.8814
 20
 26.2876
 30
0.0
 42
  0.1009
 0
VERTEX
 8
TITLE
 10
176.9275
 20
 24.8867
 30
0.0
 42
  0.0961
 0
VERTEX
 8
TITLE
 10
178.4932
 20
 23.9507
 30
0.0
 42
  0.0937
 0
VERTEX
 8
TITLE
 10
180.3400
 20
 23.6220
 30
0.0
 42
  0.0937
 0
VERTEX
 8
TITLE
 10
182.1868
 20
 23.9507
 30
0.0
 42
  0.0961
 0
VERTEX
 8
TITLE
 10
183.7525
 20
 24.8867
 30
0.0
 42
  0.1009
 0
VERTEX
 8
TITLE
 10
184.7986
 20
 26.2876
 30
0.0
 42
  0.1033
 0
SEQEND
 8
TITLE
 0
POLYLINE
 8
TITLE
 66
1
 10
0.0
 20
0.0
 30
0.0
 40
  0.0600
 41
  0.0600
 0
VERTEX
 8
TITLE
 10
179.0700
 20
 29.9720
 30
0.0
 0
VERTEX
 8
TITLE
 10
182.6260
 20
 29.9720
 30
0.0
 0
SEQEND
 8
TITLE
 0
POLYLINE
 8
TITLE
 66
1
 10
0.0
 20
0.0
 30
0.0
 40
  0.0600
 41
  0.0600
 0
VERTEX
 8
TITLE
 10
182.6260
 20
 27.9400
 30
0.0
 0
VERTEX
 8
TITLE
 10
182.6260
 20
 23.1140
 30
0.0
 0
SEQEND
 8
TITLE
 0
POLYLINE
 8
TITLE
 66
1
 10
0.0
 20
0.0
 30
0.0
 40
  0.0600
 41
  0.0600
 0
VERTEX
 8
TITLE
 10
179.0700
 20
 25.9080
 30
0.0
 0
VERTEX
 8
TITLE
 10
182.6260
 20
 25.9080
 30
0.0
 0
SEQEND
 8
TITLE
 0
POLYLINE
 8
TITLE
 66
1
 10
0.0
 20
0.0
 30
0.0
 40
  0.0600
 41
  0.0600
 0
VERTEX
 8
TITLE
 10
178.5620
 20
 25.4000
 30
0.0
 0
VERTEX
 8
TITLE
 10
178.5620
 20
 30.4800
 30
0.0
 0
SEQEND
 8
TITLE
 0
POLYLINE
 8
TITLE
 66
1
 10
0.0
 20
0.0
 30
0.0
 40
  0.0600
 41
  0.0600
 0
VERTEX
 8
TITLE
 10
182.6260
 20
 32.7660
 30
0.0
 0
VERTEX
 8
TITLE
 10
182.6260
 20
 29.9720
 30
0.0
 0
SEQEND
 8
TITLE
 0
POLYLINE
 8
TITLE
 66
1
 10
0.0
 20
0.0
 30
0.0
 40
  0.0600
 41
  0.0600
 0
VERTEX
 8
TITLE
 10
175.0060
 20
 25.4000
 30
0.0
 0
VERTEX
 8
TITLE
 10
178.5620
 20
 25.4000
 30
0.0
 0
SEQEND
 8
TITLE
 0
POLYLINE
 8
TITLE
 66
1
 70
1
 10
0.0
 20
0.0
 30
0.0
 0
VERTEX
 8
TITLE
 10
195.5800
 20
 10.9220
 30
0.0
 0
VERTEX
 8
TITLE
 10
205.4860
 20
 10.9220
 30
0.0
 0
VERTEX
 8
TITLE
 10
205.4860
 20
 10.6680
 30
0.0
 0
VERTEX
 8
TITLE
 10
195.5800
 20
 10.6680
 30
0.0
 0
SEQEND
 8
TITLE
 0
POLYLINE
 8
TITLE
 66
1
 70
1
 10
0.0
 20
0.0
 30
0.0
 0
VERTEX
 8
TITLE
 10
195.3260
 20
 14.4780
 30
0.0
 0
VERTEX
 8
TITLE
 10
195.5800
 20
 14.4780
 30
0.0
 0
VERTEX
 8
TITLE
 10
195.5800
 20
 10.9220
 30
0.0
 0
VERTEX
 8
TITLE
 10
195.3260
 20
 10.9220
 30
0.0
 0
SEQEND
 8
TITLE
 0
POLYLINE
 8
TITLE
 66
1
 70
1
 10
0.0
 20
0.0
 30
0.0
 0
VERTEX
 8
TITLE
 10
205.4860
 20
 14.4780
 30
0.0
 0
VERTEX
 8
TITLE
 10
205.7400
 20
 14.4780
 30
0.0
 0
VERTEX
 8
TITLE
 10
205.7400
 20
 10.9220
 30
0.0
 0
VERTEX
 8
TITLE
 10
205.4860
 20
 10.9220
 30
0.0
 0
SEQEND
 8
TITLE
 0
POLYLINE
 8
TITLE
 66
1
 70
1
 10
0.0
 20
0.0
 30
0.0
 0
VERTEX
 8
TITLE
 10
195.5800
 20
 14.7320
 30
0.0
 0
VERTEX
 8
TITLE
 10
205.4860
 20
 14.7320
 30
0.0
 0
VERTEX
 8
TITLE
 10
205.4860
 20
 14.4780
 30
0.0
 0
VERTEX
 8
TITLE
 10
195.5800
 20
 14.4780
 30
0.0
 0
SEQEND
 8
TITLE
 0
TEXT
 8
PARTTEXT
 10
172.2120
 20
  7.3724
 30
0.0
 40
  0.7256
 1
S H E E T
 0
TEXT
 8
PARTTEXT
 10
197.6120
 20
  8.1344
 30
0.0
 40
  0.7256
 1
S H E E T
 0
POLYLINE
 8
TITLE
 66
1
 70
1
 10
0.0
 20
0.0
 30
0.0
 40
  0.0600
 41
  0.0600
 0
VERTEX
 8
TITLE
 10
180.8480
 20
 28.4480
 30
0.0
 0
VERTEX
 8
TITLE
 10
180.8480
 20
 28.4480
 30
0.0
 0
VERTEX
 8
TITLE
 10
180.8480
 20
 27.4320
 30
0.0
 0
VERTEX
 8
TITLE
 10
182.6260
 20
 27.9400
 30
0.0
 0
VERTEX
 8
TITLE
 10
180.8480
 20
 28.4480
 30
0.0
 0
SEQEND
 8
TITLE
 0
POLYLINE
 8
TITLE
 66
1
 70
1
 10
0.0
 20
0.0
 30
0.0
 40
  0.0600
 41
  0.0600
 0
VERTEX
 8
TITLE
 10
175.0060
 20
 31.7500
 30
0.0
 42
  0.0985
 0
VERTEX
 8
TITLE
 10
174.9093
 20
 32.2360
 30
0.0
 42
  0.0985
 0
VERTEX
 8
TITLE
 10
174.6340
 20
 32.6480
 30
0.0
 42
  0.0985
 0
VERTEX
 8
TITLE
 10
174.2220
 20
 32.9233
 30
0.0
 42
  0.0985
 0
VERTEX
 8
TITLE
 10
173.7360
 20
 33.0200
 30
0.0
 42
  0.0985
 0
VERTEX
 8
TITLE
 10
173.2500
 20
 32.9233
 30
0.0
 42
  0.0985
 0
VERTEX
 8
TITLE
 10
172.8380
 20
 32.6480
 30
0.0
 42
  0.0985
 0
VERTEX
 8
TITLE
 10
172.5627
 20
 32.2360
 30
0.0
 42
  0.0985
 0
VERTEX
 8
TITLE
 10
172.4660
 20
 31.7500
 30
0.0
 42
  0.0985
 0
VERTEX
 8
TITLE
 10
172.5627
 20
 31.2640
 30
0.0
 42
  0.0985
 0
VERTEX
 8
TITLE
 10
172.8380
 20
 30.8520
 30
0.0
 42
  0.0985
 0
VERTEX
 8
TITLE
 10
173.2500
 20
 30.5767
 30
0.0
 42
  0.0985
 0
VERTEX
 8
TITLE
 10
173.7360
 20
 30.4800
 30
0.0
 42
  0.0985
 0
VERTEX
 8
TITLE
 10
174.2220
 20
 30.5767
 30
0.0
 42
  0.0985
 0
VERTEX
 8
TITLE
 10
174.6340
 20
 30.8520
 30
0.0
 42
  0.0985
 0
VERTEX
 8
TITLE
 10
174.9093
 20
 31.2640
 30
0.0
 42
  0.0985
 0
SEQEND
 8
TITLE
 0
POLYLINE
 8
TITLE
 66
1
 10
0.0
 20
0.0
 30
0.0
 40
  0.0600
 41
  0.0600
 0
VERTEX
 8
TITLE
 10
174.2440
 20
 32.2580
 30
0.0
 42
 -0.4142
 0
VERTEX
 8
TITLE
 10
174.2440
 20
 31.2420
 30
0.0
 0
SEQEND
 8
TITLE
 0
POLYLINE
 8
TITLE
 66
1
 70
1
 10
0.0
 20
0.0
 30
0.0
 0
VERTEX
 8
TITLE
 10
190.2460
 20
 31.7500
 30
0.0
 0
VERTEX
 8
TITLE
 10
190.2460
 20
 31.7500
 30
0.0
 0
VERTEX
 8
TITLE
 10
189.4840
 20
 30.9880
 30
0.0
 0
VERTEX
 8
TITLE
 10
189.4840
 20
 24.1300
 30
0.0
 0
VERTEX
 8
TITLE
 10
190.2460
 20
 23.3680
 30
0.0
 0
VERTEX
 8
TITLE
 10
202.6920
 20
 23.3680
 30
0.0
 0
VERTEX
 8
TITLE
 10
203.4540
 20
 24.1300
 30
0.0
 0
VERTEX
 8
TITLE
 10
203.4540
 20
 30.9880
 30
0.0
 0
VERTEX
 8
TITLE
 10
202.6920
 20
 31.7500
 30
0.0
 0
VERTEX
 8
TITLE
 10
190.2460
 20
 31.7500
 30
0.0
 0
SEQEND
 8
TITLE
 0
POLYLINE
 8
TITLE
 66
1
 10
0.0
 20
0.0
 30
0.0
 0
VERTEX
 8
TITLE
 10
209.2960
 20
 25.1460
 30
0.0
 0
VERTEX
 8
TITLE
 10
209.2960
 20
 21.5900
 30
0.0
 0
SEQEND
 8
TITLE
 0
POLYLINE
 8
TITLE
 66
1
 10
0.0
 20
0.0
 30
0.0
 0
VERTEX
 8
TITLE
 10
209.2960
 20
 21.5900
 30
0.0
 0
VERTEX
 8
TITLE
 10
210.0580
 20
 21.5900
 30
0.0
 0
SEQEND
 8
TITLE
 0
POLYLINE
 8
TITLE
 66
1
 10
0.0
 20
0.0
 30
0.0
 0
VERTEX
 8
TITLE
 10
211.8360
 20
 16.5100
 30
0.0
 0
VERTEX
 8
TITLE
 10
212.8520
 20
 16.5100
 30
0.0
 0
SEQEND
 8
TITLE
 0
POLYLINE
 8
TITLE
 66
1
 10
0.0
 20
0.0
 30
0.0
 0
VERTEX
 8
TITLE
 10
211.8360
 20
 20.0660
 30
0.0
 0
VERTEX
 8
TITLE
 10
211.8360
 20
 16.5100
 30
0.0
 0
SEQEND
 8
TITLE
 0
TEXT
 8
PARTTEXT
 10
232.4100
 20
 96.7083
 30
0.0
 40
  1.3057
 1
MARK4
 0
POLYLINE
 8
PARTS
 66
1
 70
1
 10
0.0
 20
0.0
 30
0.0
 40
  0.0200
 41
  0.0200
 0
VERTEX
 8
PARTS
 10
233.6800
 20
103.1240
 30
0.0
 0
VERTEX
 8
PARTS
 10
233.6800
 20
103.1240
 30
0.0
 0
VERTEX
 8
PARTS
 10
234.9500
 20
104.3940
 30
0.0
 0
VERTEX
 8
PARTS
 10
237.4900
 20
104.3940
 30
0.0
 0
VERTEX
 8
PARTS
 10
238.7600
 20
103.1240
 30
0.0
 0
VERTEX
 8
PARTS
 10
238.7600
 20
100.5840
 30
0.0
 0
VERTEX
 8
PARTS
 10
237.4900
 20
 99.3140
 30
0.0
 0
VERTEX
 8
PARTS
 10
234.9500
 20
 99.3140
 30
0.0
 0
VERTEX
 8
PARTS
 10
233.6800
 20
100.5840
 30
0.0
 0
VERTEX
 8
PARTS
 10
233.6800
 20
103.1240
 30
0.0
 0
SEQEND
 8
PARTS
 0
POLYLINE
 8
PARTS
 66
1
 70
1
 10
0.0
 20
0.0
 30
0.0
 40
  0.0200
 41
  0.0200
 0
VERTEX
 8
PARTS
 10
236.7280
 20
101.8540
 30
0.0
 42
  0.0985
 0
VERTEX
 8
PARTS
 10
236.6893
 20
102.0484
 30
0.0
 42
  0.0985
 0
VERTEX
 8
PARTS
 10
236.5792
 20
102.2132
 30
0.0
 42
  0.0985
 0
VERTEX
 8
PARTS
 10
236.4144
 20
102.3233
 30
0.0
 42
  0.0985
 0
VERTEX
 8
PARTS
 10
236.2200
 20
102.3620
 30
0.0
 42
  0.0985
 0
VERTEX
 8
PARTS
 10
236.0256
 20
102.3233
 30
0.0
 42
  0.0985
 0
VERTEX
 8
PARTS
 10
235.8608
 20
102.2132
 30
0.0
 42
  0.0985
 0
VERTEX
 8
PARTS
 10
235.7507
 20
102.0484
 30
0.0
 42
  0.0985
 0
VERTEX
 8
PARTS
 10
235.7120
 20
101.8540
 30
0.0
 42
  0.0985
 0
VERTEX
 8
PARTS
 10
235.7507
 20
101.6596
 30
0.0
 42
  0.0985
 0
VERTEX
 8
PARTS
 10
235.8608
 20
101.4948
 30
0.0
 42
  0.0985
 0
VERTEX
 8
PARTS
 10
236.0256
 20
101.3847
 30
0.0
 42
  0.0985
 0
VERTEX
 8
PARTS
 10
236.2200
 20
101.3460
 30
0.0
 42
  0.0985
 0
VERTEX
 8
PARTS
 10
236.4144
 20
101.3847
 30
0.0
 42
  0.0985
 0
VERTEX
 8
PARTS
 10
236.5792
 20
101.4948
 30
0.0
 42
  0.0985
 0
VERTEX
 8
PARTS
 10
236.6893
 20
101.6596
 30
0.0
 42
  0.0985
 0
SEQEND
 8
PARTS
 0
TEXT
 8
PARTTEXT
 10
157.4800
 20
109.4083
 30
0.0
 40
  1.3057
 1
FB2
 0
TEXT
 8
PARTTEXT
 10
157.4800
 20
101.7883
 30
0.0
 40
  1.3057
 1
FB_0402
 0
LINE
 8
PARTS
 10
154.9400
 20
105.6640
 30
0.0
 11
157.4800
 21
105.6640
 31
0.0
 0
LINE
 8
PARTS
 10
165.1000
 20
105.6640
 30
0.0
 11
162.5600
 21
105.6640
 31
0.0
 0
POLYLINE
 8
PARTS
 66
1
 10
0.0
 20
0.0
 30
0.0
 0
VERTEX
 8
PARTS
 10
160.7820
 20
105.6640
 30
0.0
 0
VERTEX
 8
PARTS
 10
162.5600
 20
105.6640
 30
0.0
 0
SEQEND
 8
PARTS
 0
POLYLINE
 8
PARTS
 66
1
 10
0.0
 20
0.0
 30
0.0
 0
VERTEX
 8
PARTS
 10
159.2580
 20
105.6640
 30
0.0
 0
VERTEX
 8
PARTS
 10
157.4800
 20
105.6640
 30
0.0
 0
SEQEND
 8
PARTS
 0
POLYLINE
 8
PARTS
 66
1
 70
1
 10
0.0
 20
0.0
 30
0.0
 0
VERTEX
 8
PARTS
 10
160.2740
 20
107.6960
 30
0.0
 0
VERTEX
 8
PARTS
 10
160.2740
 20
107.6960
 30
0.0
 0
VERTEX
 8
PARTS
 10
161.5440
 20
107.1880
 30
0.0
 0
VERTEX
 8
PARTS
 10
159.7660
 20
103.6320
 30
0.0
 0
VERTEX
 8
PARTS
 10
158.4960
 20
104.1400
 30
0.0
 0
VERTEX
 8
PARTS
 10
160.2740
 20
107.6960
 30
0.0
 0
SEQEND
 8
PARTS
 0
POLYLINE
 8
PARTS
 66
1
 70
1
 10
0.0
 20
0.0
 30
0.0
 0
VERTEX
 8
PARTS
 10
160.2740
 20
107.6960
 30
0.0
 0
VERTEX
 8
PARTS
 10
160.2740
 20
107.6960
 30
0.0
 0
VERTEX
 8
PARTS
 10
161.5440
 20
107.1880
 30
0.0
 0
VERTEX
 8
PARTS
 10
161.2900
 20
106.6800
 30
0.0
 0
VERTEX
 8
PARTS
 10
160.0200
 20
107.1880
 30
0.0
 0
VERTEX
 8
PARTS
 10
160.2740
 20
107.6960
 30
0.0
 0
SEQEND
 8
PARTS
 0
POLYLINE
 8
PARTS
 66
1
 70
1
 10
0.0
 20
0.0
 30
0.0
 0
VERTEX
 8
PARTS
 10
158.7500
 20
104.6480
 30
0.0
 0
VERTEX
 8
PARTS
 10
158.7500
 20
104.6480
 30
0.0
 0
VERTEX
 8
PARTS
 10
160.0200
 20
104.1400
 30
0.0
 0
VERTEX
 8
PARTS
 10
159.7660
 20
103.6320
 30
0.0
 0
VERTEX
 8
PARTS
 10
158.4960
 20
104.1400
 30
0.0
 0
VERTEX
 8
PARTS
 10
158.7500
 20
104.6480
 30
0.0
 0
SEQEND
 8
PARTS
 0
TEXT
 8
PARTTEXT
 10
 91.4400
 20
 89.0883
 30
0.0
 40
  1.3057
 1
L5
 0
TEXT
 8
PARTTEXT
 10
 91.4400
 20
 86.5483
 30
0.0
 40
  1.3057
 1
IND_THT2
 0
LINE
 8
PARTS
 10
 91.4400
 20
 80.2640
 30
0.0
 11
 91.4400
 21
 82.8040
 31
0.0
 0
LINE
 8
PARTS
 10
 96.5200
 20
 80.2640
 30
0.0
 11
 96.5200
 21
 82.8040
 31
0.0
 0
POLYLINE
 8
PARTS
 66
1
 10
0.0
 20
0.0
 30
0.0
 0
VERTEX
 8
PARTS
 10
 95.7580
 20
 83.5660
 30
0.0
 42
  1.0000
 0
VERTEX
 8
PARTS
 10
 94.2340
 20
 83.5660
 30
0.0
 0
SEQEND
 8
PARTS
 0
POLYLINE
 8
PARTS
 66
1
 10
0.0
 20
0.0
 30
0.0
 0
VERTEX
 8
PARTS
 10
 94.7420
 20
 83.5660
 30
0.0
 42
  1.0000
 0
VERTEX
 8
PARTS
 10
 93.2180
 20
 83.5660
 30
0.0
 0
SEQEND
 8
PARTS
 0
POLYLINE
 8
PARTS
 66
1
 10
0.0
 20
0.0
 30
0.0
 0
VERTEX
 8
PARTS
 10
 93.2180
 20
 83.5660
 30
0.0
 42
 -1.0000
 0
VERTEX
 8
PARTS
 10
 93.7260
 20
 83.5660
 30
0.0
 0
SEQEND
 8
PARTS
 0
POLYLINE
 8
PARTS
 66
1
 10
0.0
 20
0.0
 30
0.0
 0
VERTEX
 8
PARTS
 10
 94.2340
 20
 83.5660
 30
0.0
 42
 -1.0000
 0
VERTEX
 8
PARTS
 10
 94.7420
 20
 83.5660
 30
0.0
 0
SEQEND
 8
PARTS
 0
POLYLINE
 8
PARTS
 66
1
 10
0.0
 20
0.0
 30
0.0
 0
VERTEX
 8
PARTS
 10
 91.4400
 20
 82.8040
 30
0.0
 0
VERTEX
 8
PARTS
 10
 91.4400
 20
 82.8040
 30
0.0
 0
VERTEX
 8
PARTS
 10
 91.4400
 20
 83.5660
 30
0.0
 0
VERTEX
 8
PARTS
 10
 92.2020
 20
 83.5660
 30
0.0
 0
SEQEND
 8
PARTS
 0
POLYLINE
 8
PARTS
 66
1
 10
0.0
 20
0.0
 30
0.0
 0
VERTEX
 8
PARTS
 10
 95.7580
 20
 83.5660
 30
0.0
 0
VERTEX
 8
PARTS
 10
 95.7580
 20
 83.5660
 30
0.0
 0
VERTEX
 8
PARTS
 10
 96.5200
 20
 83.5660
 30
0.0
 0
VERTEX
 8
PARTS
 10
 96.5200
 20
 82.8040
 30
0.0
 0
SEQEND
 8
PARTS
 0
POLYLINE
 8
PARTS
 66
1
 10
0.0
 20
0.0
 30
0.0
 0
VERTEX
 8
PARTS
 10
 93.7260
 20
 83.5660
 30
0.0
 42
  1.0000
 0
VERTEX
 8
PARTS
 10
 92.2020
 20
 83.5660
 30
0.0
 0
SEQEND
 8
PARTS
 0
POLYLINE
 8
PARTS
 66
1
 70
1
 10
0.0
 20
0.0
 30
0.0
 0
VERTEX
 8
PARTS
 10
 91.6940
 20
 84.3280
 30
0.0
 42
  0.0000
 0
VERTEX
 8
PARTS
 10
 91.6940
 20
 84.3280
 30
0.0
 42
  0.0000
 0
VERTEX
 8
PARTS
 10
 91.6940
 20
 84.3280
 30
0.0
 42
  0.0000
 0
VERTEX
 8
PARTS
 10
 91.6940
 20
 84.3280
 30
0.0
 42
  0.0000
 0
VERTEX
 8
PARTS
 10
 91.6940
 20
 84.3280
 30
0.0
 42
  0.0000
 0
VERTEX
 8
PARTS
 10
 91.6940
 20
 84.3280
 30
0.0
 42
  0.0000
 0
VERTEX
 8
PARTS
 10
 91.6940
 20
 84.3280
 30
0.0
 42
  0.0000
 0
VERTEX
 8
PARTS
 10
 91.6940
 20
 84.3280
 30
0.0
 42
  0.0000
 0
VERTEX
 8
PARTS
 10
 91.6940
 20
 84.3280
 30
0.0
 42
  0.0000
 0
VERTEX
 8
PARTS
 10
 91.6940
 20
 84.3280
 30
0.0
 42
  0.0000
 0
VERTEX
 8
PARTS
 10
 91.6940
 20
 84.3280
 30
0.0
 42
  0.0000
 0
VERTEX
 8
PARTS
 10
 91.6940
 20
 84.3280
 30
0.0
 42
  0.0000
 0
VERTEX
 8
PARTS
 10
 91.6940
 20
 84.3280
 30
0.0
 42
  0.0000
 0
VERTEX
 8
PARTS
 10
 91.6940
 20
 84.3280
 30
0.0
 42
  0.0000
 0
VERTEX
 8
PARTS
 10
 91.6940
 20
 84.3280
 30
0.0
 42
  0.0000
 0
VERTEX
 8
PARTS
 10
 91.6940
 20
 84.3280
 30
0.0
 42
  0.0000
 0
SEQEND
 8
PARTS
 0
TEXT
 8
PARTTEXT
 10
 27.9400
 20
142.4283
 30
0.0
 40
  1.3057
 1
R9
 0
TEXT
 8
PARTTEXT
 10
 27.9400
 20
139.8883
 30
0.0
 40
  1.3057
 1
5.1kΩ
 0
LINE
 8
PARTS
 10
 27.9400
 20
133.6040
 30
0.0
 11
 27.9400
 21
136.1440
 31
0.0
 0
LINE
 8
PARTS
 10
 38.1000
 20
133.6040
 30
0.0
 11
 38.1000
 21
136.1440
 31
0.0
 0
POLYLINE
 8
PARTS
 66
1
 10
0.0
 20
0.0
 30
0.0
 40
  0.0200
 41
  0.0200
 0
VERTEX
 8
PARTS
 10
 29.4640
 20
137.4140
 30
0.0
 0
VERTEX
 8
PARTS
 10
 29.4640
 20
137.4140
 30
0.0
 0
SEQEND
 8
PARTS
 0
POLYLINE
 8
PARTS
 66
1
 10
0.0
 20
0.0
 30
0.0
 0
VERTEX
 8
PARTS
 10
 27.9400
 20
136.1440
 30
0.0
 0
VERTEX
 8
PARTS
 10
 27.9400
 20
136.1440
 30
0.0
 0
VERTEX
 8
PARTS
 10
 27.9400
 20
137.4140
 30
0.0
 0
VERTEX
 8
PARTS
 10
 28.7020
 20
137.4140
 30
0.0
 0
SEQEND
 8
PARTS
 0
POLYLINE
 8
PARTS
 66
1
 10
0.0
 20
0.0
 30
0.0
 0
VERTEX
 8
PARTS
 10
 38.1000
 20
136.1440
 30
0.0
 0
VERTEX
 8
PARTS
 10
 38.1000
 20
136.1440
 30
0.0
 0
VERTEX
 8
PARTS
 10
 38.1000
 20
137.4140
 30
0.0
 0
VERTEX
 8
PARTS
 10
 37.3380
 20
137.4140
 30
0.0
 0
SEQEND
 8
PARTS
 0
POLYLINE
 8
PARTS
 66
1
 70
1
 10
0.0
 20
0.0
 30
0.0
 0
VERTEX
 8
PARTS
 10
 28.7020
 20
137.4140
 30
0.0
 0
VERTEX
 8
PARTS
 10
 28.7020
 20
137.4140
 30
0.0
 0
VERTEX
 8
PARTS
 10
 28.7020
 20
138.6840
 30
0.0
 0
VERTEX
 8
PARTS
 10
 29.4640
 20
138.6840
 30
0.0
 0
VERTEX
 8
PARTS
 10
 29.4640
 20
138.4300
 30
0.0
 0
VERTEX
 8
PARTS
 10
 36.5760
 20
138.4300
 30
0.0
 0
VERTEX
 8
PARTS
 10
 36.5760
 20
138.6840
 30
0.0
 0
VERTEX
 8
PARTS
 10
 37.3380
 20
138.6840
 30
0.0
 0
VERTEX
 8
PARTS
 10
 37.3380
 20
136.1440
 30
0.0
 0
VERTEX
 8
PARTS
 10
 36.5760
 20
136.1440
 30
0.0
 0
VERTEX
 8
PARTS
 10
 36.5760
 20
136.3980
 30
0.0
 0
VERTEX
 8
PARTS
 10
 29.4640
 20
136.3980
 30
0.0
 0
VERTEX
 8
PARTS
 10
 29.4640
 20
136.1440
 30
0.0
 0
VERTEX
 8
PARTS
 10
 28.7020
 20
136.1440
 30
0.0
 0
VERTEX
 8
PARTS
 10
 28.7020
 20
137.4140
 30
0.0
 0
SEQEND
 8
PARTS
 0
TEXT
 8
PARTTEXT
 10
220.9800
 20
 96.7083
 30
0.0
 40
  1.3057
 1
MARK7
 0
POLYLINE
 8
PARTS
 66
1
 70
1
 10
0.0
 20
0.0
 30
0.0
 40
  0.0200
 41
  0.0200
 0
VERTEX
 8
PARTS
 10
220.9800
 20
103.1240
 30
0.0
 0
VERTEX
 8
PARTS
 10
220.9800
 20
103.1240
 30
0.0
 0
VERTEX
 8
PARTS
 10
222.2500
 20
104.3940
 30
0.0
 0
VERTEX
 8
PARTS
 10
224.7900
 20
104.3940
 30
0.0
 0
VERTEX
 8
PARTS
 10
226.0600
 20
103.1240
 30
0.0
 0
VERTEX
 8
PARTS
 10
226.0600
 20
100.5840
 30
0.0
 0
VERTEX
 8
PARTS
 10
224.7900
 20
 99.3140
 30
0.0
 0
VERTEX
 8
PARTS
 10
222.2500
 20
 99.3140
 30
0.0
 0
VERTEX
 8
PARTS
 10
220.9800
 20
100.5840
 30
0.0
 0
VERTEX
 8
PARTS
 10
220.9800
 20
103.1240
 30
0.0
 0
SEQEND
 8
PARTS
 0
POLYLINE
 8
PARTS
 66
1
 70
1
 10
0.0
 20
0.0
 30
0.0
 40
  0.0200
 41
  0.0200
 0
VERTEX
 8
PARTS
 10
224.0280
 20
101.8540
 30
0.0
 42
  0.0985
 0
VERTEX
 8
PARTS
 10
223.9893
 20
102.0484
 30
0.0
 42
  0.0985
 0
VERTEX
 8
PARTS
 10
223.8792
 20
102.2132
 30
0.0
 42
  0.0985
 0
VERTEX
 8
PARTS
 10
223.7144
 20
102.3233
 30
0.0
 42
  0.0985
 0
VERTEX
 8
PARTS
 10
223.5200
 20
102.3620
 30
0.0
 42
  0.0985
 0
VERTEX
 8
PARTS
 10
223.3256
 20
102.3233
 30
0.0
 42
  0.0985
 0
VERTEX
 8
PARTS
 10
223.1608
 20
102.2132
 30
0.0
 42
  0.0985
 0
VERTEX
 8
PARTS
 10
223.0507
 20
102.0484
 30
0.0
 42
  0.0985
 0
VERTEX
 8
PARTS
 10
223.0120
 20
101.8540
 30
0.0
 42
  0.0985
 0
VERTEX
 8
PARTS
 10
223.0507
 20
101.6596
 30
0.0
 42
  0.0985
 0
VERTEX
 8
PARTS
 10
223.1608
 20
101.4948
 30
0.0
 42
  0.0985
 0
VERTEX
 8
PARTS
 10
223.3256
 20
101.3847
 30
0.0
 42
  0.0985
 0
VERTEX
 8
PARTS
 10
223.5200
 20
101.3460
 30
0.0
 42
  0.0985
 0
VERTEX
 8
PARTS
 10
223.7144
 20
101.3847
 30
0.0
 42
  0.0985
 0
VERTEX
 8
PARTS
 10
223.8792
 20
101.4948
 30
0.0
 42
  0.0985
 0
VERTEX
 8
PARTS
 10
223.9893
 20
101.6596
 30
0.0
 42
  0.0985
 0
SEQEND
 8
PARTS
 0
TEXT
 8
PARTTEXT
 10
 73.6600
 20
104.3283
 30
0.0
 40
  1.3057
 1
L2
 0
TEXT
 8
PARTTEXT
 10
 73.6600
 20
101.7883
 30
0.0
 40
  1.3057
 1
IND
 0
TEXT
 8
PARTTEXT
 10
 73.9140
 20
 97.7603
 30
0.0
 40
  1.0157
 1
6R8
 0
LINE
 8
PARTS
 10
 71.1200
 20
 98.0440
 30
0.0
 11
 73.6600
 21
 98.0440
 31
0.0
 0
LINE
 8
PARTS
 10
 81.2800
 20
 98.0440
 30
0.0
 11
 78.7400
 21
 98.0440
 31
0.0
 0
POLYLINE
 8
PARTS
 66
1
 70
1
 10
0.0
 20
0.0
 30
0.0
 0
VERTEX
 8
PARTS
 10
 73.6600
 20
 99.5680
 30
0.0
 0
VERTEX
 8
PARTS
 10
 73.6600
 20
 99.5680
 30
0.0
 0
VERTEX
 8
PARTS
 10
 74.1680
 20
 99.8220
 30
0.0
 0
VERTEX
 8
PARTS
 10
 74.4220
 20
100.0760
 30
0.0
 0
VERTEX
 8
PARTS
 10
 74.6760
 20
100.5840
 30
0.0
 0
VERTEX
 8
PARTS
 10
 77.7240
 20
100.5840
 30
0.0
 0
VERTEX
 8
PARTS
 10
 77.9780
 20
100.0760
 30
0.0
 0
VERTEX
 8
PARTS
 10
 78.2320
 20
 99.8220
 30
0.0
 0
VERTEX
 8
PARTS
 10
 78.7400
 20
 99.5680
 30
0.0
 0
VERTEX
 8
PARTS
 10
 78.7400
 20
 96.5200
 30
0.0
 0
VERTEX
 8
PARTS
 10
 78.2320
 20
 96.2660
 30
0.0
 0
VERTEX
 8
PARTS
 10
 77.9780
 20
 96.0120
 30
0.0
 0
VERTEX
 8
PARTS
 10
 77.7240
 20
 95.5040
 30
0.0
 0
VERTEX
 8
PARTS
 10
 74.6760
 20
 95.5040
 30
0.0
 0
VERTEX
 8
PARTS
 10
 74.4220
 20
 96.0120
 30
0.0
 0
VERTEX
 8
PARTS
 10
 74.1680
 20
 96.2660
 30
0.0
 0
VERTEX
 8
PARTS
 10
 73.6600
 20
 96.5200
 30
0.0
 0
VERTEX
 8
PARTS
 10
 73.6600
 20
 99.5680
 30
0.0
 0
SEQEND
 8
PARTS
 0
TEXT
 8
PARTTEXT
 10
200.6600
 20
170.3683
 30
0.0
 40
  1.3057
 1
C10
 0
TEXT
 8
PARTTEXT
 10
200.6600
 20
167.8283
 30
0.0
 40
  1.3057
 1
2200pF
 0
LINE
 8
PARTS
 10
193.0400
 20
164.0840
 30
0.0
 11
193.0400
 21
166.6240
 31
0.0
 0
LINE
 8
PARTS
 10
198.1200
 20
164.0840
 30
0.0
 11
198.1200
 21
166.6240
 31
0.0
 0
POLYLINE
 8
PARTS
 66
1
 10
0.0
 20
0.0
 30
0.0
 0
VERTEX
 8
PARTS
 10
195.0720
 20
170.6880
 30
0.0
 0
VERTEX
 8
PARTS
 10
195.0720
 20
167.6400
 30
0.0
 0
SEQEND
 8
PARTS
 0
POLYLINE
 8
PARTS
 66
1
 10
0.0
 20
0.0
 30
0.0
 0
VERTEX
 8
PARTS
 10
196.0880
 20
170.6880
 30
0.0
 0
VERTEX
 8
PARTS
 10
196.0880
 20
167.6400
 30
0.0
 0
SEQEND
 8
PARTS
 0
POLYLINE
 8
PARTS
 66
1
 10
0.0
 20
0.0
 30
0.0
 40
  0.0200
 41
  0.0200
 0
VERTEX
 8
PARTS
 10
194.0560
 20
169.9260
 30
0.0
 0
VERTEX
 8
PARTS
 10
194.0560
 20
169.9260
 30
0.0
 0
SEQEND
 8
PARTS
 0
POLYLINE
 8
PARTS
 66
1
 10
0.0
 20
0.0
 30
0.0
 0
VERTEX
 8
PARTS
 10
193.0400
 20
166.6240
 30
0.0
 0
VERTEX
 8
PARTS
 10
193.0400
 20
166.6240
 30
0.0
 0
VERTEX
 8
PARTS
 10
193.0400
 20
169.1640
 30
0.0
 0
VERTEX
 8
PARTS
 10
195.0720
 20
169.1640
 30
0.0
 0
SEQEND
 8
PARTS
 0
POLYLINE
 8
PARTS
 66
1
 10
0.0
 20
0.0
 30
0.0
 0
VERTEX
 8
PARTS
 10
198.1200
 20
166.6240
 30
0.0
 0
VERTEX
 8
PARTS
 10
198.1200
 20
166.6240
 30
0.0
 0
VERTEX
 8
PARTS
 10
198.1200
 20
169.1640
 30
0.0
 0
VERTEX
 8
PARTS
 10
196.0880
 20
169.1640
 30
0.0
 0
SEQEND
 8
PARTS
 0
TEXT
 8
PARTTEXT
 10
 45.7200
 20
177.9883
 30
0.0
 40
  1.3057
 1
R2
 0
TEXT
 8
PARTTEXT
 10
 53.3400
 20
175.4483
 30
0.0
 40
  1.3057
 1
RES
 0
LINE
 8
PARTS
 10
 43.1800
 20
174.2440
 30
0.0
 11
 45.7200
 21
174.2440
 31
0.0
 0
LINE
 8
PARTS
 10
 53.3400
 20
174.2440
 30
0.0
 11
 50.8000
 21
174.2440
 31
0.0
 0
POLYLINE
 8
PARTS
 66
1
 10
0.0
 20
0.0
 30
0.0
 0
VERTEX
 8
PARTS
 10
 45.7200
 20
174.2440
 30
0.0
 0
VERTEX
 8
PARTS
 10
 45.7200
 20
174.2440
 30
0.0
 0
VERTEX
 8
PARTS
 10
 46.2280
 20
174.2440
 30
0.0
 0
VERTEX
 8
PARTS
 10
 46.4820
 20
175.5140
 30
0.0
 0
VERTEX
 8
PARTS
 10
 46.9900
 20
172.9740
 30
0.0
 0
VERTEX
 8
PARTS
 10
 47.4980
 20
175.5140
 30
0.0
 0
VERTEX
 8
PARTS
 10
 48.0060
 20
172.9740
 30
0.0
 0
VERTEX
 8
PARTS
 10
 48.5140
 20
175.5140
 30
0.0
 0
VERTEX
 8
PARTS
 10
 49.0220
 20
172.9740
 30
0.0
 0
VERTEX
 8
PARTS
 10
 49.5300
 20
175.5140
 30
0.0
 0
VERTEX
 8
PARTS
 10
 50.0380
 20
172.9740
 30
0.0
 0
VERTEX
 8
PARTS
 10
 50.2920
 20
174.2440
 30
0.0
 0
VERTEX
 8
PARTS
 10
 50.8000
 20
174.2440
 30
0.0
 0
SEQEND
 8
PARTS
 0
POLYLINE
 8
PARTS
 66
1
 70
1
 10
0.0
 20
0.0
 30
0.0
 0
VERTEX
 8
PARTS
 10
 45.7200
 20
175.0060
 30
0.0
 42
  0.0000
 0
VERTEX
 8
PARTS
 10
 45.7200
 20
175.0060
 30
0.0
 42
  0.0000
 0
VERTEX
 8
PARTS
 10
 45.7200
 20
175.0060
 30
0.0
 42
  0.0000
 0
VERTEX
 8
PARTS
 10
 45.7200
 20
175.0060
 30
0.0
 42
  0.0000
 0
VERTEX
 8
PARTS
 10
 45.7200
 20
175.0060
 30
0.0
 42
  0.0000
 0
VERTEX
 8
PARTS
 10
 45.7200
 20
175.0060
 30
0.0
 42
  0.0000
 0
VERTEX
 8
PARTS
 10
 45.7200
 20
175.0060
 30
0.0
 42
  0.0000
 0
VERTEX
 8
PARTS
 10
 45.7200
 20
175.0060
 30
0.0
 42
  0.0000
 0
VERTEX
 8
PARTS
 10
 45.7200
 20
175.0060
 30
0.0
 42
  0.0000
 0
VERTEX
 8
PARTS
 10
 45.7200
 20
175.0060
 30
0.0
 42
  0.0000
 0
VERTEX
 8
PARTS
 10
 45.7200
 20
175.0060
 30
0.0
 42
  0.0000
 0
VERTEX
 8
PARTS
 10
 45.7200
 20
175.0060
 30
0.0
 42
  0.0000
 0
VERTEX
 8
PARTS
 10
 45.7200
 20
175.0060
 30
0.0
 42
  0.0000
 0
VERTEX
 8
PARTS
 10
 45.7200
 20
175.0060
 30
0.0
 42
  0.0000
 0
VERTEX
 8
PARTS
 10
 45.7200
 20
175.0060
 30
0.0
 42
  0.0000
 0
VERTEX
 8
PARTS
 10
 45.7200
 20
175.0060
 30
0.0
 42
  0.0000
 0
SEQEND
 8
PARTS
 0
TEXT
 8
PARTTEXT
 10
 91.4400
 20
157.6683
 30
0.0
 40
  1.3057
 1
C2
 0
TEXT
 8
PARTTEXT
 10
 91.4400
 20
150.0483
 30
0.0
 40
  1.3057
 1
CAP_NP
 0
LINE
 8
PARTS
 10
 88.9000
 20
153.9240
 30
0.0
 11
 91.4400
 21
153.9240
 31
0.0
 0
LINE
 8
PARTS
 10
 99.0600
 20
153.9240
 30
0.0
 11
 96.5200
 21
153.9240
 31
0.0
 0
POLYLINE
 8
PARTS
 66
1
 10
0.0
 20
0.0
 30
0.0
 0
VERTEX
 8
PARTS
 10
 93.2180
 20
155.7020
 30
0.0
 0
VERTEX
 8
PARTS
 10
 93.2180
 20
152.1460
 30
0.0
 0
SEQEND
 8
PARTS
 0
POLYLINE
 8
PARTS
 66
1
 10
0.0
 20
0.0
 30
0.0
 0
VERTEX
 8
PARTS
 10
 94.7420
 20
155.7020
 30
0.0
 0
VERTEX
 8
PARTS
 10
 94.7420
 20
152.1460
 30
0.0
 0
SEQEND
 8
PARTS
 0
POLYLINE
 8
PARTS
 66
1
 10
0.0
 20
0.0
 30
0.0
 0
VERTEX
 8
PARTS
 10
 93.2180
 20
153.9240
 30
0.0
 0
VERTEX
 8
PARTS
 10
 91.4400
 20
153.9240
 30
0.0
 0
SEQEND
 8
PARTS
 0
POLYLINE
 8
PARTS
 66
1
 10
0.0
 20
0.0
 30
0.0
 0
VERTEX
 8
PARTS
 10
 94.7420
 20
153.9240
 30
0.0
 0
VERTEX
 8
PARTS
 10
 96.5200
 20
153.9240
 30
0.0
 0
SEQEND
 8
PARTS
 0
POLYLINE
 8
PARTS
 66
1
 70
1
 10
0.0
 20
0.0
 30
0.0
 40
  0.0200
 41
  0.0200
 0
VERTEX
 8
PARTS
 10
 92.2020
 20
154.9400
 30
0.0
 42
  0.0000
 0
VERTEX
 8
PARTS
 10
 92.2020
 20
154.9400
 30
0.0
 42
  0.0000
 0
VERTEX
 8
PARTS
 10
 92.2020
 20
154.9400
 30
0.0
 42
  0.0000
 0
VERTEX
 8
PARTS
 10
 92.2020
 20
154.9400
 30
0.0
 42
  0.0000
 0
VERTEX
 8
PARTS
 10
 92.2020
 20
154.9400
 30
0.0
 42
  0.0000
 0
VERTEX
 8
PARTS
 10
 92.2020
 20
154.9400
 30
0.0
 42
  0.0000
 0
VERTEX
 8
PARTS
 10
 92.2020
 20
154.9400
 30
0.0
 42
  0.0000
 0
VERTEX
 8
PARTS
 10
 92.2020
 20
154.9400
 30
0.0
 42
  0.0000
 0
VERTEX
 8
PARTS
 10
 92.2020
 20
154.9400
 30
0.0
 42
  0.0000
 0
VERTEX
 8
PARTS
 10
 92.2020
 20
154.9400
 30
0.0
 42
  0.0000
 0
VERTEX
 8
PARTS
 10
 92.2020
 20
154.9400
 30
0.0
 42
  0.0000
 0
VERTEX
 8
PARTS
 10
 92.2020
 20
154.9400
 30
0.0
 42
  0.0000
 0
VERTEX
 8
PARTS
 10
 92.2020
 20
154.9400
 30
0.0
 42
  0.0000
 0
VERTEX
 8
PARTS
 10
 92.2020
 20
154.9400
 30
0.0
 42
  0.0000
 0
VERTEX
 8
PARTS
 10
 92.2020
 20
154.9400
 30
0.0
 42
  0.0000
 0
VERTEX
 8
PARTS
 10
 92.2020
 20
154.9400
 30
0.0
 42
  0.0000
 0
SEQEND
 8
PARTS
 0
TEXT
 8
PARTTEXT
 10
116.8400
 20
172.9083
 30
0.0
 40
  1.3057
 1
C5
 0
TEXT
 8
PARTTEXT
 10
116.8400
 20
165.2883
 30
0.0
 40
  1.3057
 1
CAP_SMD
 0
LINE
 8
PARTS
 10
114.3000
 20
169.1640
 30
0.0
 11
116.8400
 21
169.1640
 31
0.0
 0
LINE
 8
PARTS
 10
124.4600
 20
169.1640
 30
0.0
 11
121.9200
 21
169.1640
 31
0.0
 0
POLYLINE
 8
PARTS
 66
1
 10
0.0
 20
0.0
 30
0.0
 0
VERTEX
 8
PARTS
 10
118.8720
 20
171.1960
 30
0.0
 0
VERTEX
 8
PARTS
 10
118.8720
 20
167.1320
 30
0.0
 0
SEQEND
 8
PARTS
 0
POLYLINE
 8
PARTS
 66
1
 10
0.0
 20
0.0
 30
0.0
 0
VERTEX
 8
PARTS
 10
119.8880
 20
171.1960
 30
0.0
 0
VERTEX
 8
PARTS
 10
119.8880
 20
167.1320
 30
0.0
 0
SEQEND
 8
PARTS
 0
POLYLINE
 8
PARTS
 66
1
 10
0.0
 20
0.0
 30
0.0
 0
VERTEX
 8
PARTS
 10
118.8720
 20
169.1640
 30
0.0
 0
VERTEX
 8
PARTS
 10
116.8400
 20
169.1640
 30
0.0
 0
SEQEND
 8
PARTS
 0
POLYLINE
 8
PARTS
 66
1
 10
0.0
 20
0.0
 30
0.0
 0
VERTEX
 8
PARTS
 10
121.9200
 20
169.1640
 30
0.0
 0
VERTEX
 8
PARTS
 10
119.8880
 20
169.1640
 30
0.0
 0
SEQEND
 8
PARTS
 0
POLYLINE
 8
PARTS
 66
1
 10
0.0
 20
0.0
 30
0.0
 40
  0.0200
 41
  0.0200
 0
VERTEX
 8
PARTS
 10
117.8560
 20
170.1800
 30
0.0
 0
VERTEX
 8
PARTS
 10
117.8560
 20
170.1800
 30
0.0
 0
SEQEND
 8
PARTS
 0
TEXT
 8
PARTTEXT
 10
 40.6400
 20
127.1883
 30
0.0
 40
  1.3057
 1
R11
 0
TEXT
 8
PARTTEXT
 10
 40.6400
 20
124.6483
 30
0.0
 40
  1.3057
 1
4.7kΩ
 0
LINE
 8
PARTS
 10
 40.6400
 20
118.3640
 30
0.0
 11
 40.6400
 21
120.9040
 31
0.0
 0
LINE
 8
PARTS
 10
 50.8000
 20
118.3640
 30
0.0
 11
 50.8000
 21
120.9040
 31
0.0
 0
POLYLINE
 8
PARTS
 66
1
 10
0.0
 20
0.0
 30
0.0
 40
  0.0200
 41
  0.0200
 0
VERTEX
 8
PARTS
 10
 42.1640
 20
122.1740
 30
0.0
 0
VERTEX
 8
PARTS
 10
 42.1640
 20
122.1740
 30
0.0
 0
SEQEND
 8
PARTS
 0
POLYLINE
 8
PARTS
 66
1
 10
0.0
 20
0.0
 30
0.0
 0
VERTEX
 8
PARTS
 10
 40.6400
 20
120.9040
 30
0.0
 0
VERTEX
 8
PARTS
 10
 40.6400
 20
120.9040
 30
0.0
 0
VERTEX
 8
PARTS
 10
 40.6400
 20
122.1740
 30
0.0
 0
VERTEX
 8
PARTS
 10
 41.4020
 20
122.1740
 30
0.0
 0
SEQEND
 8
PARTS
 0
POLYLINE
 8
PARTS
 66
1
 10
0.0
 20
0.0
 30
0.0
 0
VERTEX
 8
PARTS
 10
 50.8000
 20
120.9040
 30
0.0
 0
VERTEX
 8
PARTS
 10
 50.8000
 20
120.9040
 30
0.0
 0
VERTEX
 8
PARTS
 10
 50.8000
 20
122.1740
 30
0.0
 0
VERTEX
 8
PARTS
 10
 50.0380
 20
122.1740
 30
0.0
 0
SEQEND
 8
PARTS
 0
POLYLINE
 8
PARTS
 66
1
 70
1
 10
0.0
 20
0.0
 30
0.0
 0
VERTEX
 8
PARTS
 10
 41.4020
 20
122.1740
 30
0.0
 0
VERTEX
 8
PARTS
 10
 41.4020
 20
122.1740
 30
0.0
 0
VERTEX
 8
PARTS
 10
 41.4020
 20
123.1900
 30
0.0
 0
VERTEX
 8
PARTS
 10
 41.6560
 20
123.4440
 30
0.0
 0
VERTEX
 8
PARTS
 10
 41.9100
 20
123.4440
 30
0.0
 0
VERTEX
 8
PARTS
 10
 42.1640
 20
123.1900
 30
0.0
 0
VERTEX
 8
PARTS
 10
 49.2760
 20
123.1900
 30
0.0
 0
VERTEX
 8
PARTS
 10
 49.5300
 20
123.4440
 30
0.0
 0
VERTEX
 8
PARTS
 10
 49.7840
 20
123.4440
 30
0.0
 0
VERTEX
 8
PARTS
 10
 50.0380
 20
123.1900
 30
0.0
 0
VERTEX
 8
PARTS
 10
 50.0380
 20
121.1580
 30
0.0
 0
VERTEX
 8
PARTS
 10
 49.7840
 20
120.9040
 30
0.0
 0
VERTEX
 8
PARTS
 10
 49.5300
 20
120.9040
 30
0.0
 0
VERTEX
 8
PARTS
 10
 49.2760
 20
121.1580
 30
0.0
 0
VERTEX
 8
PARTS
 10
 42.1640
 20
121.1580
 30
0.0
 0
VERTEX
 8
PARTS
 10
 41.9100
 20
120.9040
 30
0.0
 0
VERTEX
 8
PARTS
 10
 41.6560
 20
120.9040
 30
0.0
 0
VERTEX
 8
PARTS
 10
 41.4020
 20
121.1580
 30
0.0
 0
VERTEX
 8
PARTS
 10
 41.4020
 20
122.1740
 30
0.0
 0
SEQEND
 8
PARTS
 0
TEXT
 8
PARTTEXT
 10
116.8400
 20
157.6683
 30
0.0
 40
  1.3057
 1
C3
 0
TEXT
 8
PARTTEXT
 10
116.8400
 20
150.0483
 30
0.0
 40
  1.3057
 1
CAP_NP2
 0
LINE
 8
PARTS
 10
114.3000
 20
153.9240
 30
0.0
 11
116.8400
 21
153.9240
 31
0.0
 0
LINE
 8
PARTS
 10
124.4600
 20
153.9240
 30
0.0
 11
121.9200
 21
153.9240
 31
0.0
 0
POLYLINE
 8
PARTS
 66
1
 10
0.0
 20
0.0
 30
0.0
 0
VERTEX
 8
PARTS
 10
118.6180
 20
155.7020
 30
0.0
 0
VERTEX
 8
PARTS
 10
118.6180
 20
152.1460
 30
0.0
 0
SEQEND
 8
PARTS
 0
POLYLINE
 8
PARTS
 66
1
 10
0.0
 20
0.0
 30
0.0
 0
VERTEX
 8
PARTS
 10
120.1420
 20
155.7020
 30
0.0
 0
VERTEX
 8
PARTS
 10
120.1420
 20
152.1460
 30
0.0
 0
SEQEND
 8
PARTS
 0
POLYLINE
 8
PARTS
 66
1
 10
0.0
 20
0.0
 30
0.0
 0
VERTEX
 8
PARTS
 10
118.6180
 20
153.9240
 30
0.0
 0
VERTEX
 8
PARTS
 10
116.8400
 20
153.9240
 30
0.0
 0
SEQEND
 8
PARTS
 0
POLYLINE
 8
PARTS
 66
1
 10
0.0
 20
0.0
 30
0.0
 0
VERTEX
 8
PARTS
 10
120.1420
 20
153.9240
 30
0.0
 0
VERTEX
 8
PARTS
 10
121.9200
 20
153.9240
 30
0.0
 0
SEQEND
 8
PARTS
 0
POLYLINE
 8
PARTS
 66
1
 70
1
 10
0.0
 20
0.0
 30
0.0
 40
  0.0200
 41
  0.0200
 0
VERTEX
 8
PARTS
 10
117.6020
 20
154.9400
 30
0.0
 42
  0.0000
 0
VERTEX
 8
PARTS
 10
117.6020
 20
154.9400
 30
0.0
 42
  0.0000
 0
VERTEX
 8
PARTS
 10
117.6020
 20
154.9400
 30
0.0
 42
  0.0000
 0
VERTEX
 8
PARTS
 10
117.6020
 20
154.9400
 30
0.0
 42
  0.0000
 0
VERTEX
 8
PARTS
 10
117.6020
 20
154.9400
 30
0.0
 42
  0.0000
 0
VERTEX
 8
PARTS
 10
117.6020
 20
154.9400
 30
0.0
 42
  0.0000
 0
VERTEX
 8
PARTS
 10
117.6020
 20
154.9400
 30
0.0
 42
  0.0000
 0
VERTEX
 8
PARTS
 10
117.6020
 20
154.9400
 30
0.0
 42
  0.0000
 0
VERTEX
 8
PARTS
 10
117.6020
 20
154.9400
 30
0.0
 42
  0.0000
 0
VERTEX
 8
PARTS
 10
117.6020
 20
154.9400
 30
0.0
 42
  0.0000
 0
VERTEX
 8
PARTS
 10
117.6020
 20
154.9400
 30
0.0
 42
  0.0000
 0
VERTEX
 8
PARTS
 10
117.6020
 20
154.9400
 30
0.0
 42
  0.0000
 0
VERTEX
 8
PARTS
 10
117.6020
 20
154.9400
 30
0.0
 42
  0.0000
 0
VERTEX
 8
PARTS
 10
117.6020
 20
154.9400
 30
0.0
 42
  0.0000
 0
VERTEX
 8
PARTS
 10
117.6020
 20
154.9400
 30
0.0
 42
  0.0000
 0
VERTEX
 8
PARTS
 10
117.6020
 20
154.9400
 30
0.0
 42
  0.0000
 0
SEQEND
 8
PARTS
 0
TEXT
 8
PARTTEXT
 10
 43.1800
 20
142.4283
 30
0.0
 40
  1.3057
 1
R8
 0
TEXT
 8
PARTTEXT
 10
 43.1800
 20
139.8883
 30
0.0
 40
  1.3057
 1
5.1kΩ
 0
LINE
 8
PARTS
 10
 43.1800
 20
133.6040
 30
0.0
 11
 43.1800
 21
136.1440
 31
0.0
 0
LINE
 8
PARTS
 10
 53.3400
 20
133.6040
 30
0.0
 11
 53.3400
 21
136.1440
 31
0.0
 0
POLYLINE
 8
PARTS
 66
1
 10
0.0
 20
0.0
 30
0.0
 40
  0.0200
 41
  0.0200
 0
VERTEX
 8
PARTS
 10
 44.7040
 20
137.4140
 30
0.0
 0
VERTEX
 8
PARTS
 10
 44.7040
 20
137.4140
 30
0.0
 0
SEQEND
 8
PARTS
 0
POLYLINE
 8
PARTS
 66
1
 10
0.0
 20
0.0
 30
0.0
 0
VERTEX
 8
PARTS
 10
 43.1800
 20
136.1440
 30
0.0
 0
VERTEX
 8
PARTS
 10
 43.1800
 20
136.1440
 30
0.0
 0
VERTEX
 8
PARTS
 10
 43.1800
 20
137.4140
 30
0.0
 0
VERTEX
 8
PARTS
 10
 43.9420
 20
137.4140
 30
0.0
 0
SEQEND
 8
PARTS
 0
POLYLINE
 8
PARTS
 66
1
 10
0.0
 20
0.0
 30
0.0
 0
VERTEX
 8
PARTS
 10
 53.3400
 20
136.1440
 30
0.0
 0
VERTEX
 8
PARTS
 10
 53.3400
 20
136.1440
 30
0.0
 0
VERTEX
 8
PARTS
 10
 53.3400
 20
137.4140
 30
0.0
 0
VERTEX
 8
PARTS
 10
 52.5780
 20
137.4140
 30
0.0
 0
SEQEND
 8
PARTS
 0
POLYLINE
 8
PARTS
 66
1
 70
1
 10
0.0
 20
0.0
 30
0.0
 0
VERTEX
 8
PARTS
 10
 43.9420
 20
137.4140
 30
0.0
 0
VERTEX
 8
PARTS
 10
 43.9420
 20
137.4140
 30
0.0
 0
VERTEX
 8
PARTS
 10
 43.9420
 20
138.6840
 30
0.0
 0
VERTEX
 8
PARTS
 10
 44.7040
 20
138.6840
 30
0.0
 0
VERTEX
 8
PARTS
 10
 44.7040
 20
138.4300
 30
0.0
 0
VERTEX
 8
PARTS
 10
 51.8160
 20
138.4300
 30
0.0
 0
VERTEX
 8
PARTS
 10
 51.8160
 20
138.6840
 30
0.0
 0
VERTEX
 8
PARTS
 10
 52.5780
 20
138.6840
 30
0.0
 0
VERTEX
 8
PARTS
 10
 52.5780
 20
136.1440
 30
0.0
 0
VERTEX
 8
PARTS
 10
 51.8160
 20
136.1440
 30
0.0
 0
VERTEX
 8
PARTS
 10
 51.8160
 20
136.3980
 30
0.0
 0
VERTEX
 8
PARTS
 10
 44.7040
 20
136.3980
 30
0.0
 0
VERTEX
 8
PARTS
 10
 44.7040
 20
136.1440
 30
0.0
 0
VERTEX
 8
PARTS
 10
 43.9420
 20
136.1440
 30
0.0
 0
VERTEX
 8
PARTS
 10
 43.9420
 20
137.4140
 30
0.0
 0
SEQEND
 8
PARTS
 0
TEXT
 8
PARTTEXT
 10
157.4800
 20
119.5683
 30
0.0
 40
  1.3057
 1
FB1
 0
TEXT
 8
PARTTEXT
 10
157.4800
 20
111.9483
 30
0.0
 40
  1.3057
 1
FB_0201
 0
LINE
 8
PARTS
 10
154.9400
 20
115.8240
 30
0.0
 11
157.4800
 21
115.8240
 31
0.0
 0
LINE
 8
PARTS
 10
165.1000
 20
115.8240
 30
0.0
 11
162.5600
 21
115.8240
 31
0.0
 0
POLYLINE
 8
PARTS
 66
1
 10
0.0
 20
0.0
 30
0.0
 0
VERTEX
 8
PARTS
 10
160.7820
 20
115.8240
 30
0.0
 0
VERTEX
 8
PARTS
 10
162.5600
 20
115.8240
 30
0.0
 0
SEQEND
 8
PARTS
 0
POLYLINE
 8
PARTS
 66
1
 10
0.0
 20
0.0
 30
0.0
 0
VERTEX
 8
PARTS
 10
159.2580
 20
115.8240
 30
0.0
 0
VERTEX
 8
PARTS
 10
157.4800
 20
115.8240
 30
0.0
 0
SEQEND
 8
PARTS
 0
POLYLINE
 8
PARTS
 66
1
 70
1
 10
0.0
 20
0.0
 30
0.0
 0
VERTEX
 8
PARTS
 10
160.0200
 20
117.3480
 30
0.0
 0
VERTEX
 8
PARTS
 10
160.0200
 20
117.3480
 30
0.0
 0
VERTEX
 8
PARTS
 10
158.7500
 20
114.8080
 30
0.0
 0
VERTEX
 8
PARTS
 10
160.0200
 20
114.3000
 30
0.0
 0
VERTEX
 8
PARTS
 10
161.2900
 20
116.8400
 30
0.0
 0
VERTEX
 8
PARTS
 10
160.0200
 20
117.3480
 30
0.0
 0
SEQEND
 8
PARTS
 0
POLYLINE
 8
PARTS
 66
1
 70
1
 10
0.0
 20
0.0
 30
0.0
 0
VERTEX
 8
PARTS
 10
159.0040
 20
115.3160
 30
0.0
 0
VERTEX
 8
PARTS
 10
159.0040
 20
115.3160
 30
0.0
 0
VERTEX
 8
PARTS
 10
160.2740
 20
114.8080
 30
0.0
 0
VERTEX
 8
PARTS
 10
160.0200
 20
114.3000
 30
0.0
 0
VERTEX
 8
PARTS
 10
158.7500
 20
114.8080
 30
0.0
 0
VERTEX
 8
PARTS
 10
159.0040
 20
115.3160
 30
0.0
 0
SEQEND
 8
PARTS
 0
POLYLINE
 8
PARTS
 66
1
 70
1
 10
0.0
 20
0.0
 30
0.0
 0
VERTEX
 8
PARTS
 10
160.0200
 20
117.3480
 30
0.0
 0
VERTEX
 8
PARTS
 10
160.0200
 20
117.3480
 30
0.0
 0
VERTEX
 8
PARTS
 10
161.2900
 20
116.8400
 30
0.0
 0
VERTEX
 8
PARTS
 10
161.0360
 20
116.3320
 30
0.0
 0
VERTEX
 8
PARTS
 10
159.7660
 20
116.8400
 30
0.0
 0
VERTEX
 8
PARTS
 10
160.0200
 20
117.3480
 30
0.0
 0
SEQEND
 8
PARTS
 0
TEXT
 8
PARTTEXT
 10
 40.6400
 20
114.4883
 30
0.0
 40
  1.3057
 1
R14
 0
TEXT
 8
PARTTEXT
 10
 40.6400
 20
111.9483
 30
0.0
 40
  1.3057
 1
4.7kΩ
 0
LINE
 8
PARTS
 10
 40.6400
 20
105.6640
 30
0.0
 11
 40.6400
 21
108.2040
 31
0.0
 0
LINE
 8
PARTS
 10
 50.8000
 20
105.6640
 30
0.0
 11
 50.8000
 21
108.2040
 31
0.0
 0
POLYLINE
 8
PARTS
 66
1
 10
0.0
 20
0.0
 30
0.0
 40
  0.0200
 41
  0.0200
 0
VERTEX
 8
PARTS
 10
 42.4180
 20
109.4740
 30
0.0
 0
VERTEX
 8
PARTS
 10
 42.4180
 20
109.4740
 30
0.0
 0
SEQEND
 8
PARTS
 0
POLYLINE
 8
PARTS
 66
1
 10
0.0
 20
0.0
 30
0.0
 0
VERTEX
 8
PARTS
 10
 40.6400
 20
108.2040
 30
0.0
 0
VERTEX
 8
PARTS
 10
 40.6400
 20
108.2040
 30
0.0
 0
VERTEX
 8
PARTS
 10
 40.6400
 20
109.4740
 30
0.0
 0
VERTEX
 8
PARTS
 10
 41.4020
 20
109.4740
 30
0.0
 0
SEQEND
 8
PARTS
 0
POLYLINE
 8
PARTS
 66
1
 10
0.0
 20
0.0
 30
0.0
 0
VERTEX
 8
PARTS
 10
 50.8000
 20
108.2040
 30
0.0
 0
VERTEX
 8
PARTS
 10
 50.8000
 20
108.2040
 30
0.0
 0
VERTEX
 8
PARTS
 10
 50.8000
 20
109.4740
 30
0.0
 0
VERTEX
 8
PARTS
 10
 50.0380
 20
109.4740
 30
0.0
 0
SEQEND
 8
PARTS
 0
POLYLINE
 8
PARTS
 66
1
 70
1
 10
0.0
 20
0.0
 30
0.0
 0
VERTEX
 8
PARTS
 10
 41.4020
 20
109.4740
 30
0.0
 0
VERTEX
 8
PARTS
 10
 41.4020
 20
109.4740
 30
0.0
 0
VERTEX
 8
PARTS
 10
 41.4020
 20
110.4900
 30
0.0
 0
VERTEX
 8
PARTS
 10
 41.6560
 20
110.7440
 30
0.0
 0
VERTEX
 8
PARTS
 10
 42.1640
 20
110.7440
 30
0.0
 0
VERTEX
 8
PARTS
 10
 42.4180
 20
110.4900
 30
0.0
 0
VERTEX
 8
PARTS
 10
 49.0220
 20
110.4900
 30
0.0
 0
VERTEX
 8
PARTS
 10
 49.2760
 20
110.7440
 30
0.0
 0
VERTEX
 8
PARTS
 10
 49.7840
 20
110.7440
 30
0.0
 0
VERTEX
 8
PARTS
 10
 50.0380
 20
110.4900
 30
0.0
 0
VERTEX
 8
PARTS
 10
 50.0380
 20
108.4580
 30
0.0
 0
VERTEX
 8
PARTS
 10
 49.7840
 20
108.2040
 30
0.0
 0
VERTEX
 8
PARTS
 10
 49.2760
 20
108.2040
 30
0.0
 0
VERTEX
 8
PARTS
 10
 49.0220
 20
108.4580
 30
0.0
 0
VERTEX
 8
PARTS
 10
 42.4180
 20
108.4580
 30
0.0
 0
VERTEX
 8
PARTS
 10
 42.1640
 20
108.2040
 30
0.0
 0
VERTEX
 8
PARTS
 10
 41.6560
 20
108.2040
 30
0.0
 0
VERTEX
 8
PARTS
 10
 41.4020
 20
108.4580
 30
0.0
 0
VERTEX
 8
PARTS
 10
 41.4020
 20
109.4740
 30
0.0
 0
SEQEND
 8
PARTS
 0
TEXT
 8
PARTTEXT
 10
193.0400
 20
155.1283
 30
0.0
 40
  1.3057
 1
C13
 0
TEXT
 8
PARTTEXT
 10
193.0400
 20
152.5883
 30
0.0
 40
  1.3057
 1
CAP_THT01
 0
LINE
 8
PARTS
 10
193.0400
 20
143.7640
 30
0.0
 11
193.0400
 21
146.3040
 31
0.0
 0
LINE
 8
PARTS
 10
198.1200
 20
143.7640
 30
0.0
 11
198.1200
 21
146.3040
 31
0.0
 0
POLYLINE
 8
PARTS
 66
1
 10
0.0
 20
0.0
 30
0.0
 0
VERTEX
 8
PARTS
 10
195.0720
 20
150.8760
 30
0.0
 0
VERTEX
 8
PARTS
 10
195.0720
 20
146.8120
 30
0.0
 0
SEQEND
 8
PARTS
 0
POLYLINE
 8
PARTS
 66
1
 10
0.0
 20
0.0
 30
0.0
 0
VERTEX
 8
PARTS
 10
196.0880
 20
150.8760
 30
0.0
 0
VERTEX
 8
PARTS
 10
196.0880
 20
146.8120
 30
0.0
 0
SEQEND
 8
PARTS
 0
POLYLINE
 8
PARTS
 66
1
 10
0.0
 20
0.0
 30
0.0
 40
  0.0200
 41
  0.0200
 0
VERTEX
 8
PARTS
 10
194.0560
 20
149.8600
 30
0.0
 0
VERTEX
 8
PARTS
 10
194.0560
 20
149.8600
 30
0.0
 0
SEQEND
 8
PARTS
 0
POLYLINE
 8
PARTS
 66
1
 10
0.0
 20
0.0
 30
0.0
 0
VERTEX
 8
PARTS
 10
193.0400
 20
146.3040
 30
0.0
 0
VERTEX
 8
PARTS
 10
193.0400
 20
146.3040
 30
0.0
 0
VERTEX
 8
PARTS
 10
193.0400
 20
148.8440
 30
0.0
 0
VERTEX
 8
PARTS
 10
195.0720
 20
148.8440
 30
0.0
 0
SEQEND
 8
PARTS
 0
POLYLINE
 8
PARTS
 66
1
 10
0.0
 20
0.0
 30
0.0
 0
VERTEX
 8
PARTS
 10
198.1200
 20
146.3040
 30
0.0
 0
VERTEX
 8
PARTS
 10
198.1200
 20
146.3040
 30
0.0
 0
VERTEX
 8
PARTS
 10
198.1200
 20
148.8440
 30
0.0
 0
VERTEX
 8
PARTS
 10
196.0880
 20
148.8440
 30
0.0
 0
SEQEND
 8
PARTS
 0
TEXT
 8
PARTTEXT
 10
210.8200
 20
 91.6283
 30
0.0
 40
  1.3057
 1
MARK6
 0
POLYLINE
 8
PARTS
 66
1
 70
1
 10
0.0
 20
0.0
 30
0.0
 40
  0.0200
 41
  0.0200
 0
VERTEX
 8
PARTS
 10
210.8200
 20
 98.0440
 30
0.0
 0
VERTEX
 8
PARTS
 10
210.8200
 20
 98.0440
 30
0.0
 0
VERTEX
 8
PARTS
 10
212.0900
 20
 99.3140
 30
0.0
 0
VERTEX
 8
PARTS
 10
214.6300
 20
 99.3140
 30
0.0
 0
VERTEX
 8
PARTS
 10
215.9000
 20
 98.0440
 30
0.0
 0
VERTEX
 8
PARTS
 10
215.9000
 20
 95.5040
 30
0.0
 0
VERTEX
 8
PARTS
 10
214.6300
 20
 94.2340
 30
0.0
 0
VERTEX
 8
PARTS
 10
212.0900
 20
 94.2340
 30
0.0
 0
VERTEX
 8
PARTS
 10
210.8200
 20
 95.5040
 30
0.0
 0
VERTEX
 8
PARTS
 10
210.8200
 20
 98.0440
 30
0.0
 0
SEQEND
 8
PARTS
 0
POLYLINE
 8
PARTS
 66
1
 70
1
 10
0.0
 20
0.0
 30
0.0
 40
  0.0200
 41
  0.0200
 0
VERTEX
 8
PARTS
 10
213.8680
 20
 96.7740
 30
0.0
 42
  0.0985
 0
VERTEX
 8
PARTS
 10
213.8293
 20
 96.9684
 30
0.0
 42
  0.0985
 0
VERTEX
 8
PARTS
 10
213.7192
 20
 97.1332
 30
0.0
 42
  0.0985
 0
VERTEX
 8
PARTS
 10
213.5544
 20
 97.2433
 30
0.0
 42
  0.0985
 0
VERTEX
 8
PARTS
 10
213.3600
 20
 97.2820
 30
0.0
 42
  0.0985
 0
VERTEX
 8
PARTS
 10
213.1656
 20
 97.2433
 30
0.0
 42
  0.0985
 0
VERTEX
 8
PARTS
 10
213.0008
 20
 97.1332
 30
0.0
 42
  0.0985
 0
VERTEX
 8
PARTS
 10
212.8907
 20
 96.9684
 30
0.0
 42
  0.0985
 0
VERTEX
 8
PARTS
 10
212.8520
 20
 96.7740
 30
0.0
 42
  0.0985
 0
VERTEX
 8
PARTS
 10
212.8907
 20
 96.5796
 30
0.0
 42
  0.0985
 0
VERTEX
 8
PARTS
 10
213.0008
 20
 96.4148
 30
0.0
 42
  0.0985
 0
VERTEX
 8
PARTS
 10
213.1656
 20
 96.3047
 30
0.0
 42
  0.0985
 0
VERTEX
 8
PARTS
 10
213.3600
 20
 96.2660
 30
0.0
 42
  0.0985
 0
VERTEX
 8
PARTS
 10
213.5544
 20
 96.3047
 30
0.0
 42
  0.0985
 0
VERTEX
 8
PARTS
 10
213.7192
 20
 96.4148
 30
0.0
 42
  0.0985
 0
VERTEX
 8
PARTS
 10
213.8293
 20
 96.5796
 30
0.0
 42
  0.0985
 0
SEQEND
 8
PARTS
 0
TEXT
 8
PARTTEXT
 10
 40.6400
 20
165.2883
 30
0.0
 40
  1.3057
 1
R4
 0
TEXT
 8
PARTTEXT
 10
 53.3400
 20
165.2883
 30
0.0
 40
  1.3057
 1
RES
 0
LINE
 8
PARTS
 10
 43.1800
 20
164.0840
 30
0.0
 11
 45.7200
 21
164.0840
 31
0.0
 0
LINE
 8
PARTS
 10
 53.3400
 20
164.0840
 30
0.0
 11
 50.8000
 21
164.0840
 31
0.0
 0
POLYLINE
 8
PARTS
 66
1
 10
0.0
 20
0.0
 30
0.0
 0
VERTEX
 8
PARTS
 10
 45.7200
 20
164.0840
 30
0.0
 0
VERTEX
 8
PARTS
 10
 45.7200
 20
164.0840
 30
0.0
 0
VERTEX
 8
PARTS
 10
 46.2280
 20
164.0840
 30
0.0
 0
VERTEX
 8
PARTS
 10
 46.4820
 20
165.3540
 30
0.0
 0
VERTEX
 8
PARTS
 10
 46.9900
 20
162.8140
 30
0.0
 0
VERTEX
 8
PARTS
 10
 47.4980
 20
165.3540
 30
0.0
 0
VERTEX
 8
PARTS
 10
 48.0060
 20
162.8140
 30
0.0
 0
VERTEX
 8
PARTS
 10
 48.5140
 20
165.3540
 30
0.0
 0
VERTEX
 8
PARTS
 10
 49.0220
 20
162.8140
 30
0.0
 0
VERTEX
 8
PARTS
 10
 49.5300
 20
165.3540
 30
0.0
 0
VERTEX
 8
PARTS
 10
 50.0380
 20
162.8140
 30
0.0
 0
VERTEX
 8
PARTS
 10
 50.2920
 20
164.0840
 30
0.0
 0
VERTEX
 8
PARTS
 10
 50.8000
 20
164.0840
 30
0.0
 0
SEQEND
 8
PARTS
 0
POLYLINE
 8
PARTS
 66
1
 70
1
 10
0.0
 20
0.0
 30
0.0
 0
VERTEX
 8
PARTS
 10
 45.7200
 20
164.8460
 30
0.0
 42
  0.0000
 0
VERTEX
 8
PARTS
 10
 45.7200
 20
164.8460
 30
0.0
 42
  0.0000
 0
VERTEX
 8
PARTS
 10
 45.7200
 20
164.8460
 30
0.0
 42
  0.0000
 0
VERTEX
 8
PARTS
 10
 45.7200
 20
164.8460
 30
0.0
 42
  0.0000
 0
VERTEX
 8
PARTS
 10
 45.7200
 20
164.8460
 30
0.0
 42
  0.0000
 0
VERTEX
 8
PARTS
 10
 45.7200
 20
164.8460
 30
0.0
 42
  0.0000
 0
VERTEX
 8
PARTS
 10
 45.7200
 20
164.8460
 30
0.0
 42
  0.0000
 0
VERTEX
 8
PARTS
 10
 45.7200
 20
164.8460
 30
0.0
 42
  0.0000
 0
VERTEX
 8
PARTS
 10
 45.7200
 20
164.8460
 30
0.0
 42
  0.0000
 0
VERTEX
 8
PARTS
 10
 45.7200
 20
164.8460
 30
0.0
 42
  0.0000
 0
VERTEX
 8
PARTS
 10
 45.7200
 20
164.8460
 30
0.0
 42
  0.0000
 0
VERTEX
 8
PARTS
 10
 45.7200
 20
164.8460
 30
0.0
 42
  0.0000
 0
VERTEX
 8
PARTS
 10
 45.7200
 20
164.8460
 30
0.0
 42
  0.0000
 0
VERTEX
 8
PARTS
 10
 45.7200
 20
164.8460
 30
0.0
 42
  0.0000
 0
VERTEX
 8
PARTS
 10
 45.7200
 20
164.8460
 30
0.0
 42
  0.0000
 0
VERTEX
 8
PARTS
 10
 45.7200
 20
164.8460
 30
0.0
 42
  0.0000
 0
SEQEND
 8
PARTS
 0
TEXT
 8
PARTTEXT
 10
 91.4400
 20
185.6083
 30
0.0
 40
  1.3057
 1
C11
 0
TEXT
 8
PARTTEXT
 10
 91.4400
 20
183.0683
 30
0.0
 40
  1.3057
 1
CAP_THT0
 0
POLYLINE
 8
PARTS
 66
1
 10
0.0
 20
0.0
 30
0.0
 0
VERTEX
 8
PARTS
 10
 93.4720
 20
181.3560
 30
0.0
 0
VERTEX
 8
PARTS
 10
 93.4720
 20
177.2920
 30
0.0
 0
SEQEND
 8
PARTS
 0
POLYLINE
 8
PARTS
 66
1
 10
0.0
 20
0.0
 30
0.0
 0
VERTEX
 8
PARTS
 10
 94.4880
 20
181.3560
 30
0.0
 0
VERTEX
 8
PARTS
 10
 94.4880
 20
177.2920
 30
0.0
 0
SEQEND
 8
PARTS
 0
POLYLINE
 8
PARTS
 66
1
 10
0.0
 20
0.0
 30
0.0
 40
  0.0200
 41
  0.0200
 0
VERTEX
 8
PARTS
 10
 92.4560
 20
180.3400
 30
0.0
 0
VERTEX
 8
PARTS
 10
 92.4560
 20
180.3400
 30
0.0
 0
SEQEND
 8
PARTS
 0
POLYLINE
 8
PARTS
 66
1
 10
0.0
 20
0.0
 30
0.0
 0
VERTEX
 8
PARTS
 10
 91.4400
 20
176.7840
 30
0.0
 0
VERTEX
 8
PARTS
 10
 91.4400
 20
176.7840
 30
0.0
 0
VERTEX
 8
PARTS
 10
 91.4400
 20
179.3240
 30
0.0
 0
VERTEX
 8
PARTS
 10
 93.4720
 20
179.3240
 30
0.0
 0
SEQEND
 8
PARTS
 0
POLYLINE
 8
PARTS
 66
1
 10
0.0
 20
0.0
 30
0.0
 0
VERTEX
 8
PARTS
 10
 96.5200
 20
176.7840
 30
0.0
 0
VERTEX
 8
PARTS
 10
 96.5200
 20
176.7840
 30
0.0
 0
VERTEX
 8
PARTS
 10
 96.5200
 20
179.3240
 30
0.0
 0
VERTEX
 8
PARTS
 10
 94.4880
 20
179.3240
 30
0.0
 0
SEQEND
 8
PARTS
 0
TEXT
 8
PARTTEXT
 10
157.4800
 20
 89.0883
 30
0.0
 40
  1.3057
 1
FB4
 0
TEXT
 8
PARTTEXT
 10
157.4800
 20
 81.4683
 30
0.0
 40
  1.3057
 1
FB_0805
 0
LINE
 8
PARTS
 10
154.9400
 20
 85.3440
 30
0.0
 11
157.4800
 21
 85.3440
 31
0.0
 0
LINE
 8
PARTS
 10
165.1000
 20
 85.3440
 30
0.0
 11
162.5600
 21
 85.3440
 31
0.0
 0
POLYLINE
 8
PARTS
 66
1
 10
0.0
 20
0.0
 30
0.0
 0
VERTEX
 8
PARTS
 10
161.2900
 20
 85.3440
 30
0.0
 0
VERTEX
 8
PARTS
 10
162.5600
 20
 85.3440
 30
0.0
 0
SEQEND
 8
PARTS
 0
POLYLINE
 8
PARTS
 66
1
 10
0.0
 20
0.0
 30
0.0
 0
VERTEX
 8
PARTS
 10
158.7500
 20
 85.3440
 30
0.0
 0
VERTEX
 8
PARTS
 10
157.4800
 20
 85.3440
 30
0.0
 0
SEQEND
 8
PARTS
 0
POLYLINE
 8
PARTS
 66
1
 70
1
 10
0.0
 20
0.0
 30
0.0
 0
VERTEX
 8
PARTS
 10
161.0360
 20
 87.6300
 30
0.0
 0
VERTEX
 8
PARTS
 10
161.0360
 20
 87.6300
 30
0.0
 0
VERTEX
 8
PARTS
 10
162.3060
 20
 86.3600
 30
0.0
 0
VERTEX
 8
PARTS
 10
161.7980
 20
 85.8520
 30
0.0
 0
VERTEX
 8
PARTS
 10
160.5280
 20
 87.1220
 30
0.0
 0
VERTEX
 8
PARTS
 10
161.0360
 20
 87.6300
 30
0.0
 0
SEQEND
 8
PARTS
 0
POLYLINE
 8
PARTS
 66
1
 70
1
 10
0.0
 20
0.0
 30
0.0
 0
VERTEX
 8
PARTS
 10
158.2420
 20
 84.8360
 30
0.0
 0
VERTEX
 8
PARTS
 10
158.2420
 20
 84.8360
 30
0.0
 0
VERTEX
 8
PARTS
 10
159.5120
 20
 83.5660
 30
0.0
 0
VERTEX
 8
PARTS
 10
159.0040
 20
 83.0580
 30
0.0
 0
VERTEX
 8
PARTS
 10
157.7340
 20
 84.3280
 30
0.0
 0
VERTEX
 8
PARTS
 10
158.2420
 20
 84.8360
 30
0.0
 0
SEQEND
 8
PARTS
 0
POLYLINE
 8
PARTS
 66
1
 70
1
 10
0.0
 20
0.0
 30
0.0
 0
VERTEX
 8
PARTS
 10
161.0360
 20
 87.6300
 30
0.0
 0
VERTEX
 8
PARTS
 10
161.0360
 20
 87.6300
 30
0.0
 0
VERTEX
 8
PARTS
 10
157.7340
 20
 84.3280
 30
0.0
 0
VERTEX
 8
PARTS
 10
159.0040
 20
 83.0580
 30
0.0
 0
VERTEX
 8
PARTS
 10
162.3060
 20
 86.3600
 30
0.0
 0
VERTEX
 8
PARTS
 10
161.0360
 20
 87.6300
 30
0.0
 0
SEQEND
 8
PARTS
 0
TEXT
 8
PARTTEXT
 10
 58.4200
 20
144.9683
 30
0.0
 40
  1.3057
 1
C14
 0
TEXT
 8
PARTTEXT
 10
 58.4200
 20
142.4283
 30
0.0
 40
  1.3057
 1
2200pF
 0
LINE
 8
PARTS
 10
 58.4200
 20
133.6040
 30
0.0
 11
 58.4200
 21
136.1440
 31
0.0
 0
LINE
 8
PARTS
 10
 63.5000
 20
133.6040
 30
0.0
 11
 63.5000
 21
136.1440
 31
0.0
 0
POLYLINE
 8
PARTS
 66
1
 10
0.0
 20
0.0
 30
0.0
 0
VERTEX
 8
PARTS
 10
 60.4520
 20
140.2080
 30
0.0
 0
VERTEX
 8
PARTS
 10
 60.4520
 20
137.1600
 30
0.0
 0
SEQEND
 8
PARTS
 0
POLYLINE
 8
PARTS
 66
1
 10
0.0
 20
0.0
 30
0.0
 0
VERTEX
 8
PARTS
 10
 61.4680
 20
140.2080
 30
0.0
 0
VERTEX
 8
PARTS
 10
 61.4680
 20
137.1600
 30
0.0
 0
SEQEND
 8
PARTS
 0
POLYLINE
 8
PARTS
 66
1
 10
0.0
 20
0.0
 30
0.0
 40
  0.0200
 41
  0.0200
 0
VERTEX
 8
PARTS
 10
 59.4360
 20
139.4460
 30
0.0
 0
VERTEX
 8
PARTS
 10
 59.4360
 20
139.4460
 30
0.0
 0
SEQEND
 8
PARTS
 0
POLYLINE
 8
PARTS
 66
1
 10
0.0
 20
0.0
 30
0.0
 0
VERTEX
 8
PARTS
 10
 58.4200
 20
136.1440
 30
0.0
 0
VERTEX
 8
PARTS
 10
 58.4200
 20
136.1440
 30
0.0
 0
VERTEX
 8
PARTS
 10
 58.4200
 20
138.6840
 30
0.0
 0
VERTEX
 8
PARTS
 10
 60.4520
 20
138.6840
 30
0.0
 0
SEQEND
 8
PARTS
 0
POLYLINE
 8
PARTS
 66
1
 10
0.0
 20
0.0
 30
0.0
 0
VERTEX
 8
PARTS
 10
 63.5000
 20
136.1440
 30
0.0
 0
VERTEX
 8
PARTS
 10
 63.5000
 20
136.1440
 30
0.0
 0
VERTEX
 8
PARTS
 10
 63.5000
 20
138.6840
 30
0.0
 0
VERTEX
 8
PARTS
 10
 61.4680
 20
138.6840
 30
0.0
 0
SEQEND
 8
PARTS
 0
TEXT
 8
PARTTEXT
 10
 68.5800
 20
167.8283
 30
0.0
 40
  1.3057
 1
R7
 0
TEXT
 8
PARTTEXT
 10
 68.5800
 20
165.2883
 30
0.0
 40
  1.3057
 1
RES_THT2
 0
LINE
 8
PARTS
 10
 68.5800
 20
159.0040
 30
0.0
 11
 68.5800
 21
161.5440
 31
0.0
 0
LINE
 8
PARTS
 10
 73.6600
 20
159.0040
 30
0.0
 11
 73.6600
 21
161.5440
 31
0.0
 0
POLYLINE
 8
PARTS
 66
1
 10
0.0
 20
0.0
 30
0.0
 40
  0.0600
 41
  0.0600
 0
VERTEX
 8
PARTS
 10
 69.5960
 20
162.3060
 30
0.0
 0
VERTEX
 8
PARTS
 10
 69.5960
 20
162.3060
 30
0.0
 0
SEQEND
 8
PARTS
 0
POLYLINE
 8
PARTS
 66
1
 70
1
 10
0.0
 20
0.0
 30
0.0
 0
VERTEX
 8
PARTS
 10
 69.0880
 20
162.3060
 30
0.0
 0
VERTEX
 8
PARTS
 10
 69.0880
 20
162.3060
 30
0.0
 0
VERTEX
 8
PARTS
 10
 69.0880
 20
163.0680
 30
0.0
 0
VERTEX
 8
PARTS
 10
 69.5960
 20
163.0680
 30
0.0
 0
VERTEX
 8
PARTS
 10
 69.5960
 20
162.8140
 30
0.0
 0
VERTEX
 8
PARTS
 10
 72.6440
 20
162.8140
 30
0.0
 0
VERTEX
 8
PARTS
 10
 72.6440
 20
163.0680
 30
0.0
 0
VERTEX
 8
PARTS
 10
 73.1520
 20
163.0680
 30
0.0
 0
VERTEX
 8
PARTS
 10
 73.1520
 20
161.5440
 30
0.0
 0
VERTEX
 8
PARTS
 10
 72.6440
 20
161.5440
 30
0.0
 0
VERTEX
 8
PARTS
 10
 72.6440
 20
161.7980
 30
0.0
 0
VERTEX
 8
PARTS
 10
 69.5960
 20
161.7980
 30
0.0
 0
VERTEX
 8
PARTS
 10
 69.5960
 20
161.5440
 30
0.0
 0
VERTEX
 8
PARTS
 10
 69.0880
 20
161.5440
 30
0.0
 0
VERTEX
 8
PARTS
 10
 69.0880
 20
162.3060
 30
0.0
 0
SEQEND
 8
PARTS
 0
POLYLINE
 8
PARTS
 66
1
 10
0.0
 20
0.0
 30
0.0
 0
VERTEX
 8
PARTS
 10
 68.5800
 20
161.5440
 30
0.0
 0
VERTEX
 8
PARTS
 10
 68.5800
 20
161.5440
 30
0.0
 0
VERTEX
 8
PARTS
 10
 68.5800
 20
162.3060
 30
0.0
 0
VERTEX
 8
PARTS
 10
 69.0880
 20
162.3060
 30
0.0
 0
SEQEND
 8
PARTS
 0
POLYLINE
 8
PARTS
 66
1
 10
0.0
 20
0.0
 30
0.0
 0
VERTEX
 8
PARTS
 10
 73.6600
 20
161.5440
 30
0.0
 0
VERTEX
 8
PARTS
 10
 73.6600
 20
161.5440
 30
0.0
 0
VERTEX
 8
PARTS
 10
 73.6600
 20
162.3060
 30
0.0
 0
VERTEX
 8
PARTS
 10
 73.1520
 20
162.3060
 30
0.0
 0
SEQEND
 8
PARTS
 0
TEXT
 8
PARTTEXT
 10
200.6600
 20
188.1483
 30
0.0
 40
  1.3057
 1
C9
 0
TEXT
 8
PARTTEXT
 10
200.6600
 20
185.6083
 30
0.0
 40
  1.3057
 1
2200pF
 0
LINE
 8
PARTS
 10
193.0400
 20
181.8640
 30
0.0
 11
193.0400
 21
184.4040
 31
0.0
 0
LINE
 8
PARTS
 10
198.1200
 20
181.8640
 30
0.0
 11
198.1200
 21
184.4040
 31
0.0
 0
POLYLINE
 8
PARTS
 66
1
 10
0.0
 20
0.0
 30
0.0
 0
VERTEX
 8
PARTS
 10
195.0720
 20
188.4680
 30
0.0
 0
VERTEX
 8
PARTS
 10
195.0720
 20
185.4200
 30
0.0
 0
SEQEND
 8
PARTS
 0
POLYLINE
 8
PARTS
 66
1
 10
0.0
 20
0.0
 30
0.0
 0
VERTEX
 8
PARTS
 10
196.0880
 20
188.4680
 30
0.0
 0
VERTEX
 8
PARTS
 10
196.0880
 20
185.4200
 30
0.0
 0
SEQEND
 8
PARTS
 0
POLYLINE
 8
PARTS
 66
1
 10
0.0
 20
0.0
 30
0.0
 40
  0.0200
 41
  0.0200
 0
VERTEX
 8
PARTS
 10
194.0560
 20
187.7060
 30
0.0
 0
VERTEX
 8
PARTS
 10
194.0560
 20
187.7060
 30
0.0
 0
SEQEND
 8
PARTS
 0
POLYLINE
 8
PARTS
 66
1
 10
0.0
 20
0.0
 30
0.0
 0
VERTEX
 8
PARTS
 10
193.0400
 20
184.4040
 30
0.0
 0
VERTEX
 8
PARTS
 10
193.0400
 20
184.4040
 30
0.0
 0
VERTEX
 8
PARTS
 10
193.0400
 20
186.9440
 30
0.0
 0
VERTEX
 8
PARTS
 10
195.0720
 20
186.9440
 30
0.0
 0
SEQEND
 8
PARTS
 0
POLYLINE
 8
PARTS
 66
1
 10
0.0
 20
0.0
 30
0.0
 0
VERTEX
 8
PARTS
 10
198.1200
 20
184.4040
 30
0.0
 0
VERTEX
 8
PARTS
 10
198.1200
 20
184.4040
 30
0.0
 0
VERTEX
 8
PARTS
 10
198.1200
 20
186.9440
 30
0.0
 0
VERTEX
 8
PARTS
 10
196.0880
 20
186.9440
 30
0.0
 0
SEQEND
 8
PARTS
 0
TEXT
 8
PARTTEXT
 10
142.2400
 20
139.8883
 30
0.0
 40
  1.3057
 1
C8
 0
TEXT
 8
PARTTEXT
 10
142.2400
 20
137.3483
 30
0.0
 40
  1.3057
 1
CAP_THT2
 0
LINE
 8
PARTS
 10
142.2400
 20
131.0640
 30
0.0
 11
142.2400
 21
133.6040
 31
0.0
 0
LINE
 8
PARTS
 10
147.3200
 20
131.0640
 30
0.0
 11
147.3200
 21
133.6040
 31
0.0
 0
POLYLINE
 8
PARTS
 66
1
 10
0.0
 20
0.0
 30
0.0
 0
VERTEX
 8
PARTS
 10
144.2720
 20
135.8900
 30
0.0
 0
VERTEX
 8
PARTS
 10
144.2720
 20
133.8580
 30
0.0
 0
SEQEND
 8
PARTS
 0
POLYLINE
 8
PARTS
 66
1
 10
0.0
 20
0.0
 30
0.0
 0
VERTEX
 8
PARTS
 10
145.2880
 20
135.8900
 30
0.0
 0
VERTEX
 8
PARTS
 10
145.2880
 20
133.8580
 30
0.0
 0
SEQEND
 8
PARTS
 0
POLYLINE
 8
PARTS
 66
1
 10
0.0
 20
0.0
 30
0.0
 0
VERTEX
 8
PARTS
 10
142.2400
 20
133.6040
 30
0.0
 0
VERTEX
 8
PARTS
 10
142.2400
 20
133.6040
 30
0.0
 0
VERTEX
 8
PARTS
 10
142.2400
 20
134.8740
 30
0.0
 0
VERTEX
 8
PARTS
 10
144.2720
 20
134.8740
 30
0.0
 0
SEQEND
 8
PARTS
 0
POLYLINE
 8
PARTS
 66
1
 10
0.0
 20
0.0
 30
0.0
 0
VERTEX
 8
PARTS
 10
147.3200
 20
133.6040
 30
0.0
 0
VERTEX
 8
PARTS
 10
147.3200
 20
133.6040
 30
0.0
 0
VERTEX
 8
PARTS
 10
147.3200
 20
134.8740
 30
0.0
 0
VERTEX
 8
PARTS
 10
145.2880
 20
134.8740
 30
0.0
 0
SEQEND
 8
PARTS
 0
POLYLINE
 8
PARTS
 66
1
 10
0.0
 20
0.0
 30
0.0
 40
  0.0200
 41
  0.0200
 0
VERTEX
 8
PARTS
 10
143.2560
 20
135.3820
 30
0.0
 0
VERTEX
 8
PARTS
 10
143.2560
 20
135.3820
 30
0.0
 0
SEQEND
 8
PARTS
 0
TEXT
 8
PARTTEXT
 10
 68.5800
 20
177.9883
 30
0.0
 40
  1.3057
 1
R6
 0
TEXT
 8
PARTTEXT
 10
 68.5800
 20
170.3683
 30
0.0
 40
  1.3057
 1
RES2
 0
LINE
 8
PARTS
 10
 66.0400
 20
174.2440
 30
0.0
 11
 68.5800
 21
174.2440
 31
0.0
 0
LINE
 8
PARTS
 10
 76.2000
 20
174.2440
 30
0.0
 11
 73.6600
 21
174.2440
 31
0.0
 0
POLYLINE
 8
PARTS
 66
1
 10
0.0
 20
0.0
 30
0.0
 40
  0.0600
 41
  0.0600
 0
VERTEX
 8
PARTS
 10
 69.0880
 20
174.2440
 30
0.0
 0
VERTEX
 8
PARTS
 10
 69.0880
 20
174.2440
 30
0.0
 0
SEQEND
 8
PARTS
 0
POLYLINE
 8
PARTS
 66
1
 70
1
 10
0.0
 20
0.0
 30
0.0
 0
VERTEX
 8
PARTS
 10
 68.5800
 20
174.2440
 30
0.0
 0
VERTEX
 8
PARTS
 10
 68.5800
 20
174.2440
 30
0.0
 0
VERTEX
 8
PARTS
 10
 68.5800
 20
175.0060
 30
0.0
 0
VERTEX
 8
PARTS
 10
 69.0880
 20
175.0060
 30
0.0
 0
VERTEX
 8
PARTS
 10
 69.0880
 20
174.7520
 30
0.0
 0
VERTEX
 8
PARTS
 10
 73.1520
 20
174.7520
 30
0.0
 0
VERTEX
 8
PARTS
 10
 73.1520
 20
175.0060
 30
0.0
 0
VERTEX
 8
PARTS
 10
 73.6600
 20
175.0060
 30
0.0
 0
VERTEX
 8
PARTS
 10
 73.6600
 20
173.4820
 30
0.0
 0
VERTEX
 8
PARTS
 10
 73.1520
 20
173.4820
 30
0.0
 0
VERTEX
 8
PARTS
 10
 73.1520
 20
173.7360
 30
0.0
 0
VERTEX
 8
PARTS
 10
 69.0880
 20
173.7360
 30
0.0
 0
VERTEX
 8
PARTS
 10
 69.0880
 20
173.4820
 30
0.0
 0
VERTEX
 8
PARTS
 10
 68.5800
 20
173.4820
 30
0.0
 0
VERTEX
 8
PARTS
 10
 68.5800
 20
174.2440
 30
0.0
 0
SEQEND
 8
PARTS
 0
TEXT
 8
PARTTEXT
 10
116.8400
 20
139.8883
 30
0.0
 40
  1.3057
 1
C7
 0
TEXT
 8
PARTTEXT
 10
116.8400
 20
137.3483
 30
0.0
 40
  1.3057
 1
CAP_THT1
 0
LINE
 8
PARTS
 10
116.8400
 20
131.0640
 30
0.0
 11
116.8400
 21
133.6040
 31
0.0
 0
LINE
 8
PARTS
 10
121.9200
 20
131.0640
 30
0.0
 11
121.9200
 21
133.6040
 31
0.0
 0
POLYLINE
 8
PARTS
 66
1
 10
0.0
 20
0.0
 30
0.0
 0
VERTEX
 8
PARTS
 10
119.1260
 20
136.1440
 30
0.0
 0
VERTEX
 8
PARTS
 10
119.1260
 20
133.6040
 30
0.0
 0
SEQEND
 8
PARTS
 0
POLYLINE
 8
PARTS
 66
1
 10
0.0
 20
0.0
 30
0.0
 0
VERTEX
 8
PARTS
 10
119.6340
 20
136.1440
 30
0.0
 0
VERTEX
 8
PARTS
 10
119.6340
 20
133.6040
 30
0.0
 0
SEQEND
 8
PARTS
 0
POLYLINE
 8
PARTS
 66
1
 10
0.0
 20
0.0
 30
0.0
 0
VERTEX
 8
PARTS
 10
116.8400
 20
133.6040
 30
0.0
 0
VERTEX
 8
PARTS
 10
116.8400
 20
133.6040
 30
0.0
 0
VERTEX
 8
PARTS
 10
116.8400
 20
134.8740
 30
0.0
 0
VERTEX
 8
PARTS
 10
119.1260
 20
134.8740
 30
0.0
 0
SEQEND
 8
PARTS
 0
POLYLINE
 8
PARTS
 66
1
 10
0.0
 20
0.0
 30
0.0
 0
VERTEX
 8
PARTS
 10
121.9200
 20
133.6040
 30
0.0
 0
VERTEX
 8
PARTS
 10
121.9200
 20
133.6040
 30
0.0
 0
VERTEX
 8
PARTS
 10
121.9200
 20
134.8740
 30
0.0
 0
VERTEX
 8
PARTS
 10
119.6340
 20
134.8740
 30
0.0
 0
SEQEND
 8
PARTS
 0
POLYLINE
 8
PARTS
 66
1
 70
1
 10
0.0
 20
0.0
 30
0.0
 40
  0.0600
 41
  0.0600
 0
VERTEX
 8
PARTS
 10
117.8560
 20
135.6360
 30
0.0
 42
  0.0000
 0
VERTEX
 8
PARTS
 10
117.8560
 20
135.6360
 30
0.0
 42
  0.0000
 0
VERTEX
 8
PARTS
 10
117.8560
 20
135.6360
 30
0.0
 42
  0.0000
 0
VERTEX
 8
PARTS
 10
117.8560
 20
135.6360
 30
0.0
 42
  0.0000
 0
VERTEX
 8
PARTS
 10
117.8560
 20
135.6360
 30
0.0
 42
  0.0000
 0
VERTEX
 8
PARTS
 10
117.8560
 20
135.6360
 30
0.0
 42
  0.0000
 0
VERTEX
 8
PARTS
 10
117.8560
 20
135.6360
 30
0.0
 42
  0.0000
 0
VERTEX
 8
PARTS
 10
117.8560
 20
135.6360
 30
0.0
 42
  0.0000
 0
VERTEX
 8
PARTS
 10
117.8560
 20
135.6360
 30
0.0
 42
  0.0000
 0
VERTEX
 8
PARTS
 10
117.8560
 20
135.6360
 30
0.0
 42
  0.0000
 0
VERTEX
 8
PARTS
 10
117.8560
 20
135.6360
 30
0.0
 42
  0.0000
 0
VERTEX
 8
PARTS
 10
117.8560
 20
135.6360
 30
0.0
 42
  0.0000
 0
VERTEX
 8
PARTS
 10
117.8560
 20
135.6360
 30
0.0
 42
  0.0000
 0
VERTEX
 8
PARTS
 10
117.8560
 20
135.6360
 30
0.0
 42
  0.0000
 0
VERTEX
 8
PARTS
 10
117.8560
 20
135.6360
 30
0.0
 42
  0.0000
 0
VERTEX
 8
PARTS
 10
117.8560
 20
135.6360
 30
0.0
 42
  0.0000
 0
SEQEND
 8
PARTS
 0
TEXT
 8
PARTTEXT
 10
 68.5800
 20
155.1283
 30
0.0
 40
  1.3057
 1
R13
 0
TEXT
 8
PARTTEXT
 10
 68.5800
 20
152.5883
 30
0.0
 40
  1.3057
 1
4.7kΩ
 0
LINE
 8
PARTS
 10
 68.5800
 20
146.3040
 30
0.0
 11
 68.5800
 21
148.8440
 31
0.0
 0
LINE
 8
PARTS
 10
 73.6600
 20
146.3040
 30
0.0
 11
 73.6600
 21
148.8440
 31
0.0
 0
POLYLINE
 8
PARTS
 66
1
 10
0.0
 20
0.0
 30
0.0
 40
  0.0600
 41
  0.0600
 0
VERTEX
 8
PARTS
 10
 69.5960
 20
149.6060
 30
0.0
 0
VERTEX
 8
PARTS
 10
 69.5960
 20
149.6060
 30
0.0
 0
SEQEND
 8
PARTS
 0
POLYLINE
 8
PARTS
 66
1
 10
0.0
 20
0.0
 30
0.0
 0
VERTEX
 8
PARTS
 10
 68.5800
 20
148.8440
 30
0.0
 0
VERTEX
 8
PARTS
 10
 68.5800
 20
148.8440
 30
0.0
 0
VERTEX
 8
PARTS
 10
 68.5800
 20
149.6060
 30
0.0
 0
VERTEX
 8
PARTS
 10
 69.0880
 20
149.6060
 30
0.0
 0
SEQEND
 8
PARTS
 0
POLYLINE
 8
PARTS
 66
1
 10
0.0
 20
0.0
 30
0.0
 0
VERTEX
 8
PARTS
 10
 73.6600
 20
148.8440
 30
0.0
 0
VERTEX
 8
PARTS
 10
 73.6600
 20
148.8440
 30
0.0
 0
VERTEX
 8
PARTS
 10
 73.6600
 20
149.6060
 30
0.0
 0
VERTEX
 8
PARTS
 10
 73.1520
 20
149.6060
 30
0.0
 0
SEQEND
 8
PARTS
 0
POLYLINE
 8
PARTS
 66
1
 70
1
 10
0.0
 20
0.0
 30
0.0
 0
VERTEX
 8
PARTS
 10
 69.0880
 20
149.6060
 30
0.0
 0
VERTEX
 8
PARTS
 10
 69.0880
 20
149.6060
 30
0.0
 0
VERTEX
 8
PARTS
 10
 69.0880
 20
150.1140
 30
0.0
 0
VERTEX
 8
PARTS
 10
 69.3420
 20
150.3680
 30
0.0
 0
VERTEX
 8
PARTS
 10
 69.5960
 20
150.3680
 30
0.0
 0
VERTEX
 8
PARTS
 10
 69.8500
 20
150.1140
 30
0.0
 0
VERTEX
 8
PARTS
 10
 72.3900
 20
150.1140
 30
0.0
 0
VERTEX
 8
PARTS
 10
 72.6440
 20
150.3680
 30
0.0
 0
VERTEX
 8
PARTS
 10
 72.8980
 20
150.3680
 30
0.0
 0
VERTEX
 8
PARTS
 10
 73.1520
 20
150.1140
 30
0.0
 0
VERTEX
 8
PARTS
 10
 73.1520
 20
149.0980
 30
0.0
 0
VERTEX
 8
PARTS
 10
 72.8980
 20
148.8440
 30
0.0
 0
VERTEX
 8
PARTS
 10
 72.6440
 20
148.8440
 30
0.0
 0
VERTEX
 8
PARTS
 10
 72.3900
 20
149.0980
 30
0.0
 0
VERTEX
 8
PARTS
 10
 69.8500
 20
149.0980
 30
0.0
 0
VERTEX
 8
PARTS
 10
 69.5960
 20
148.8440
 30
0.0
 0
VERTEX
 8
PARTS
 10
 69.3420
 20
148.8440
 30
0.0
 0
VERTEX
 8
PARTS
 10
 69.0880
 20
149.0980
 30
0.0
 0
VERTEX
 8
PARTS
 10
 69.0880
 20
149.6060
 30
0.0
 0
SEQEND
 8
PARTS
 0
TEXT
 8
PARTTEXT
 10
 78.7400
 20
 91.6283
 30
0.0
 40
  1.3057
 1
L4
 0
TEXT
 8
PARTTEXT
 10
 78.7400
 20
 89.0883
 30
0.0
 40
  1.3057
 1
IND_THT
 0
LINE
 8
PARTS
 10
 78.7400
 20
 80.2640
 30
0.0
 11
 78.7400
 21
 82.8040
 31
0.0
 0
LINE
 8
PARTS
 10
 83.8200
 20
 80.2640
 30
0.0
 11
 83.8200
 21
 82.8040
 31
0.0
 0
POLYLINE
 8
PARTS
 66
1
 10
0.0
 20
0.0
 30
0.0
 0
VERTEX
 8
PARTS
 10
 83.0580
 20
 84.8360
 30
0.0
 42
  1.0000
 0
VERTEX
 8
PARTS
 10
 81.5340
 20
 84.8360
 30
0.0
 0
SEQEND
 8
PARTS
 0
POLYLINE
 8
PARTS
 66
1
 10
0.0
 20
0.0
 30
0.0
 0
VERTEX
 8
PARTS
 10
 82.0420
 20
 84.8360
 30
0.0
 42
  1.0000
 0
VERTEX
 8
PARTS
 10
 80.5180
 20
 84.8360
 30
0.0
 0
SEQEND
 8
PARTS
 0
POLYLINE
 8
PARTS
 66
1
 10
0.0
 20
0.0
 30
0.0
 0
VERTEX
 8
PARTS
 10
 80.5180
 20
 84.8360
 30
0.0
 42
 -1.0000
 0
VERTEX
 8
PARTS
 10
 81.0260
 20
 84.8360
 30
0.0
 0
SEQEND
 8
PARTS
 0
POLYLINE
 8
PARTS
 66
1
 10
0.0
 20
0.0
 30
0.0
 0
VERTEX
 8
PARTS
 10
 81.5340
 20
 84.8360
 30
0.0
 42
 -1.0000
 0
VERTEX
 8
PARTS
 10
 82.0420
 20
 84.8360
 30
0.0
 0
SEQEND
 8
PARTS
 0
POLYLINE
 8
PARTS
 66
1
 10
0.0
 20
0.0
 30
0.0
 0
VERTEX
 8
PARTS
 10
 81.0260
 20
 84.8360
 30
0.0
 42
  1.0000
 0
VERTEX
 8
PARTS
 10
 79.5020
 20
 84.8360
 30
0.0
 0
SEQEND
 8
PARTS
 0
POLYLINE
 8
PARTS
 66
1
 70
1
 10
0.0
 20
0.0
 30
0.0
 0
VERTEX
 8
PARTS
 10
 79.2480
 20
 86.6140
 30
0.0
 0
VERTEX
 8
PARTS
 10
 79.2480
 20
 86.6140
 30
0.0
 0
VERTEX
 8
PARTS
 10
 79.7560
 20
 86.8680
 30
0.0
 0
VERTEX
 8
PARTS
 10
 80.0100
 20
 87.1220
 30
0.0
 0
VERTEX
 8
PARTS
 10
 80.2640
 20
 87.6300
 30
0.0
 0
VERTEX
 8
PARTS
 10
 82.2960
 20
 87.6300
 30
0.0
 0
VERTEX
 8
PARTS
 10
 82.5500
 20
 87.1220
 30
0.0
 0
VERTEX
 8
PARTS
 10
 82.8040
 20
 86.8680
 30
0.0
 0
VERTEX
 8
PARTS
 10
 83.3120
 20
 86.6140
 30
0.0
 0
VERTEX
 8
PARTS
 10
 83.3120
 20
 84.0740
 30
0.0
 0
VERTEX
 8
PARTS
 10
 82.8040
 20
 83.8200
 30
0.0
 0
VERTEX
 8
PARTS
 10
 82.5500
 20
 83.5660
 30
0.0
 0
VERTEX
 8
PARTS
 10
 82.2960
 20
 83.0580
 30
0.0
 0
VERTEX
 8
PARTS
 10
 80.2640
 20
 83.0580
 30
0.0
 0
VERTEX
 8
PARTS
 10
 80.0100
 20
 83.5660
 30
0.0
 0
VERTEX
 8
PARTS
 10
 79.7560
 20
 83.8200
 30
0.0
 0
VERTEX
 8
PARTS
 10
 79.2480
 20
 84.0740
 30
0.0
 0
VERTEX
 8
PARTS
 10
 79.2480
 20
 86.6140
 30
0.0
 0
SEQEND
 8
PARTS
 0
POLYLINE
 8
PARTS
 66
1
 10
0.0
 20
0.0
 30
0.0
 0
VERTEX
 8
PARTS
 10
 78.7400
 20
 82.8040
 30
0.0
 0
VERTEX
 8
PARTS
 10
 78.7400
 20
 82.8040
 30
0.0
 0
VERTEX
 8
PARTS
 10
 78.7400
 20
 85.3440
 30
0.0
 0
VERTEX
 8
PARTS
 10
 79.2480
 20
 85.3440
 30
0.0
 0
SEQEND
 8
PARTS
 0
POLYLINE
 8
PARTS
 66
1
 10
0.0
 20
0.0
 30
0.0
 0
VERTEX
 8
PARTS
 10
 83.8200
 20
 82.8040
 30
0.0
 0
VERTEX
 8
PARTS
 10
 83.8200
 20
 82.8040
 30
0.0
 0
VERTEX
 8
PARTS
 10
 83.8200
 20
 85.3440
 30
0.0
 0
VERTEX
 8
PARTS
 10
 83.3120
 20
 85.3440
 30
0.0
 0
SEQEND
 8
PARTS
 0
TEXT
 8
PARTTEXT
 10
147.3200
 20
193.2283
 30
0.0
 40
  1.3057
 1
C12
 0
TEXT
 8
PARTTEXT
 10
147.3200
 20
190.6883
 30
0.0
 40
  1.3057
 1
CAP_THT01
 0
LINE
 8
PARTS
 10
147.3200
 20
181.8640
 30
0.0
 11
147.3200
 21
184.4040
 31
0.0
 0
LINE
 8
PARTS
 10
152.4000
 20
181.8640
 30
0.0
 11
152.4000
 21
184.4040
 31
0.0
 0
POLYLINE
 8
PARTS
 66
1
 10
0.0
 20
0.0
 30
0.0
 0
VERTEX
 8
PARTS
 10
149.3520
 20
188.9760
 30
0.0
 0
VERTEX
 8
PARTS
 10
149.3520
 20
184.9120
 30
0.0
 0
SEQEND
 8
PARTS
 0
POLYLINE
 8
PARTS
 66
1
 10
0.0
 20
0.0
 30
0.0
 0
VERTEX
 8
PARTS
 10
150.3680
 20
188.9760
 30
0.0
 0
VERTEX
 8
PARTS
 10
150.3680
 20
184.9120
 30
0.0
 0
SEQEND
 8
PARTS
 0
POLYLINE
 8
PARTS
 66
1
 10
0.0
 20
0.0
 30
0.0
 40
  0.0200
 41
  0.0200
 0
VERTEX
 8
PARTS
 10
148.3360
 20
187.9600
 30
0.0
 0
VERTEX
 8
PARTS
 10
148.3360
 20
187.9600
 30
0.0
 0
SEQEND
 8
PARTS
 0
POLYLINE
 8
PARTS
 66
1
 10
0.0
 20
0.0
 30
0.0
 0
VERTEX
 8
PARTS
 10
147.3200
 20
184.4040
 30
0.0
 0
VERTEX
 8
PARTS
 10
147.3200
 20
184.4040
 30
0.0
 0
VERTEX
 8
PARTS
 10
147.3200
 20
186.9440
 30
0.0
 0
VERTEX
 8
PARTS
 10
149.3520
 20
186.9440
 30
0.0
 0
SEQEND
 8
PARTS
 0
POLYLINE
 8
PARTS
 66
1
 10
0.0
 20
0.0
 30
0.0
 0
VERTEX
 8
PARTS
 10
152.4000
 20
184.4040
 30
0.0
 0
VERTEX
 8
PARTS
 10
152.4000
 20
184.4040
 30
0.0
 0
VERTEX
 8
PARTS
 10
152.4000
 20
186.9440
 30
0.0
 0
VERTEX
 8
PARTS
 10
150.3680
 20
186.9440
 30
0.0
 0
SEQEND
 8
PARTS
 0
TEXT
 8
PARTTEXT
 10
198.1200
 20
114.4883
 30
0.0
 40
  1.3057
 1
MARK3
 0
POLYLINE
 8
PARTS
 66
1
 70
1
 10
0.0
 20
0.0
 30
0.0
 40
  0.0600
 41
  0.0600
 0
VERTEX
 8
PARTS
 10
194.5640
 20
115.0620
 30
0.0
 0
VERTEX
 8
PARTS
 10
194.5640
 20
115.0620
 30
0.0
 0
VERTEX
 8
PARTS
 10
195.0720
 20
115.5700
 30
0.0
 0
VERTEX
 8
PARTS
 10
196.0880
 20
115.5700
 30
0.0
 0
VERTEX
 8
PARTS
 10
196.5960
 20
115.0620
 30
0.0
 0
VERTEX
 8
PARTS
 10
196.5960
 20
114.0460
 30
0.0
 0
VERTEX
 8
PARTS
 10
196.0880
 20
113.5380
 30
0.0
 0
VERTEX
 8
PARTS
 10
195.0720
 20
113.5380
 30
0.0
 0
VERTEX
 8
PARTS
 10
194.5640
 20
114.0460
 30
0.0
 0
VERTEX
 8
PARTS
 10
194.5640
 20
115.0620
 30
0.0
 0
SEQEND
 8
PARTS
 0
POLYLINE
 8
PARTS
 66
1
 70
1
 10
0.0
 20
0.0
 30
0.0
 40
  0.0600
 41
  0.0600
 0
VERTEX
 8
PARTS
 10
195.8340
 20
114.5540
 30
0.0
 42
  0.0985
 0
VERTEX
 8
PARTS
 10
195.8147
 20
114.6512
 30
0.0
 42
  0.0985
 0
VERTEX
 8
PARTS
 10
195.7596
 20
114.7336
 30
0.0
 42
  0.0985
 0
VERTEX
 8
PARTS
 10
195.6772
 20
114.7887
 30
0.0
 42
  0.0985
 0
VERTEX
 8
PARTS
 10
195.5800
 20
114.8080
 30
0.0
 42
  0.0985
 0
VERTEX
 8
PARTS
 10
195.4828
 20
114.7887
 30
0.0
 42
  0.0985
 0
VERTEX
 8
PARTS
 10
195.4004
 20
114.7336
 30
0.0
 42
  0.0985
 0
VERTEX
 8
PARTS
 10
195.3453
 20
114.6512
 30
0.0
 42
  0.0985
 0
VERTEX
 8
PARTS
 10
195.3260
 20
114.5540
 30
0.0
 42
  0.0985
 0
VERTEX
 8
PARTS
 10
195.3453
 20
114.4568
 30
0.0
 42
  0.0985
 0
VERTEX
 8
PARTS
 10
195.4004
 20
114.3744
 30
0.0
 42
  0.0985
 0
VERTEX
 8
PARTS
 10
195.4828
 20
114.3193
 30
0.0
 42
  0.0985
 0
VERTEX
 8
PARTS
 10
195.5800
 20
114.3000
 30
0.0
 42
  0.0985
 0
VERTEX
 8
PARTS
 10
195.6772
 20
114.3193
 30
0.0
 42
  0.0985
 0
VERTEX
 8
PARTS
 10
195.7596
 20
114.3744
 30
0.0
 42
  0.0985
 0
VERTEX
 8
PARTS
 10
195.8147
 20
114.4568
 30
0.0
 42
  0.0985
 0
SEQEND
 8
PARTS
 0
TEXT
 8
PARTTEXT
 10
 58.4200
 20
104.3283
 30
0.0
 40
  1.3057
 1
L1
 0
TEXT
 8
PARTTEXT
 10
 58.4200
 20
101.7883
 30
0.0
 40
  1.3057
 1
IND
 0
TEXT
 8
PARTTEXT
 10
 58.6740
 20
 97.7603
 30
0.0
 40
  1.0157
 1
4R7
 0
LINE
 8
PARTS
 10
 55.8800
 20
 98.0440
 30
0.0
 11
 58.4200
 21
 98.0440
 31
0.0
 0
LINE
 8
PARTS
 10
 66.0400
 20
 98.0440
 30
0.0
 11
 63.5000
 21
 98.0440
 31
0.0
 0
POLYLINE
 8
PARTS
 66
1
 70
1
 10
0.0
 20
0.0
 30
0.0
 0
VERTEX
 8
PARTS
 10
 58.4200
 20
 99.5680
 30
0.0
 0
VERTEX
 8
PARTS
 10
 58.4200
 20
 99.5680
 30
0.0
 0
VERTEX
 8
PARTS
 10
 58.9280
 20
 99.8220
 30
0.0
 0
VERTEX
 8
PARTS
 10
 59.1820
 20
100.0760
 30
0.0
 0
VERTEX
 8
PARTS
 10
 59.4360
 20
100.5840
 30
0.0
 0
VERTEX
 8
PARTS
 10
 62.4840
 20
100.5840
 30
0.0
 0
VERTEX
 8
PARTS
 10
 62.7380
 20
100.0760
 30
0.0
 0
VERTEX
 8
PARTS
 10
 62.9920
 20
 99.8220
 30
0.0
 0
VERTEX
 8
PARTS
 10
 63.5000
 20
 99.5680
 30
0.0
 0
VERTEX
 8
PARTS
 10
 63.5000
 20
 96.5200
 30
0.0
 0
VERTEX
 8
PARTS
 10
 62.9920
 20
 96.2660
 30
0.0
 0
VERTEX
 8
PARTS
 10
 62.7380
 20
 96.0120
 30
0.0
 0
VERTEX
 8
PARTS
 10
 62.4840
 20
 95.5040
 30
0.0
 0
VERTEX
 8
PARTS
 10
 59.4360
 20
 95.5040
 30
0.0
 0
VERTEX
 8
PARTS
 10
 59.1820
 20
 96.0120
 30
0.0
 0
VERTEX
 8
PARTS
 10
 58.9280
 20
 96.2660
 30
0.0
 0
VERTEX
 8
PARTS
 10
 58.4200
 20
 96.5200
 30
0.0
 0
VERTEX
 8
PARTS
 10
 58.4200
 20
 99.5680
 30
0.0
 0
SEQEND
 8
PARTS
 0
TEXT
 8
PARTTEXT
 10
 45.7200
 20
185.6083
 30
0.0
 40
  1.3057
 1
R1
 0
TEXT
 8
PARTTEXT
 10
 53.3400
 20
183.0683
 30
0.0
 40
  1.3057
 1
RES
 0
LINE
 8
PARTS
 10
 43.1800
 20
181.8640
 30
0.0
 11
 45.7200
 21
181.8640
 31
0.0
 0
LINE
 8
PARTS
 10
 53.3400
 20
181.8640
 30
0.0
 11
 50.8000
 21
181.8640
 31
0.0
 0
POLYLINE
 8
PARTS
 66
1
 70
1
 10
0.0
 20
0.0
 30
0.0
 0
VERTEX
 8
PARTS
 10
 45.7200
 20
182.6260
 30
0.0
 0
VERTEX
 8
PARTS
 10
 50.8000
 20
182.6260
 30
0.0
 0
VERTEX
 8
PARTS
 10
 50.8000
 20
181.1020
 30
0.0
 0
VERTEX
 8
PARTS
 10
 45.7200
 20
181.1020
 30
0.0
 0
SEQEND
 8
PARTS
 0
POLYLINE
 8
PARTS
 66
1
 10
0.0
 20
0.0
 30
0.0
 40
  0.0200
 41
  0.0200
 0
VERTEX
 8
PARTS
 10
 46.4820
 20
181.8640
 30
0.0
 0
VERTEX
 8
PARTS
 10
 46.4820
 20
181.8640
 30
0.0
 0
SEQEND
 8
PARTS
 0
TEXT
 8
PARTTEXT
 10
 91.4400
 20
142.4283
 30
0.0
 40
  1.3057
 1
C6
 0
TEXT
 8
PARTTEXT
 10
 91.4400
 20
139.8883
 30
0.0
 40
  1.3057
 1
CAP_THT
 0
LINE
 8
PARTS
 10
 91.4400
 20
131.0640
 30
0.0
 11
 91.4400
 21
133.6040
 31
0.0
 0
LINE
 8
PARTS
 10
 96.5200
 20
131.0640
 30
0.0
 11
 96.5200
 21
133.6040
 31
0.0
 0
POLYLINE
 8
PARTS
 66
1
 10
0.0
 20
0.0
 30
0.0
 0
VERTEX
 8
PARTS
 10
 93.4720
 20
137.6680
 30
0.0
 0
VERTEX
 8
PARTS
 10
 93.4720
 20
134.6200
 30
0.0
 0
SEQEND
 8
PARTS
 0
POLYLINE
 8
PARTS
 66
1
 10
0.0
 20
0.0
 30
0.0
 0
VERTEX
 8
PARTS
 10
 94.4880
 20
137.6680
 30
0.0
 0
VERTEX
 8
PARTS
 10
 94.4880
 20
134.6200
 30
0.0
 0
SEQEND
 8
PARTS
 0
POLYLINE
 8
PARTS
 66
1
 10
0.0
 20
0.0
 30
0.0
 40
  0.0200
 41
  0.0200
 0
VERTEX
 8
PARTS
 10
 92.4560
 20
136.9060
 30
0.0
 0
VERTEX
 8
PARTS
 10
 92.4560
 20
136.9060
 30
0.0
 0
SEQEND
 8
PARTS
 0
POLYLINE
 8
PARTS
 66
1
 10
0.0
 20
0.0
 30
0.0
 0
VERTEX
 8
PARTS
 10
 91.4400
 20
133.6040
 30
0.0
 0
VERTEX
 8
PARTS
 10
 91.4400
 20
133.6040
 30
0.0
 0
VERTEX
 8
PARTS
 10
 91.4400
 20
136.1440
 30
0.0
 0
VERTEX
 8
PARTS
 10
 93.4720
 20
136.1440
 30
0.0
 0
SEQEND
 8
PARTS
 0
POLYLINE
 8
PARTS
 66
1
 10
0.0
 20
0.0
 30
0.0
 0
VERTEX
 8
PARTS
 10
 96.5200
 20
133.6040
 30
0.0
 0
VERTEX
 8
PARTS
 10
 96.5200
 20
133.6040
 30
0.0
 0
VERTEX
 8
PARTS
 10
 96.5200
 20
136.1440
 30
0.0
 0
VERTEX
 8
PARTS
 10
 94.4880
 20
136.1440
 30
0.0
 0
SEQEND
 8
PARTS
 0
TEXT
 8
PARTTEXT
 10
200.6600
 20
 91.6283
 30
0.0
 40
  1.3057
 1
MARK5
 0
POLYLINE
 8
PARTS
 66
1
 70
1
 10
0.0
 20
0.0
 30
0.0
 40
  0.0200
 41
  0.0200
 0
VERTEX
 8
PARTS
 10
200.6600
 20
 98.0440
 30
0.0
 0
VERTEX
 8
PARTS
 10
200.6600
 20
 98.0440
 30
0.0
 0
VERTEX
 8
PARTS
 10
201.9300
 20
 99.3140
 30
0.0
 0
VERTEX
 8
PARTS
 10
204.4700
 20
 99.3140
 30
0.0
 0
VERTEX
 8
PARTS
 10
205.7400
 20
 98.0440
 30
0.0
 0
VERTEX
 8
PARTS
 10
205.7400
 20
 95.5040
 30
0.0
 0
VERTEX
 8
PARTS
 10
204.4700
 20
 94.2340
 30
0.0
 0
VERTEX
 8
PARTS
 10
201.9300
 20
 94.2340
 30
0.0
 0
VERTEX
 8
PARTS
 10
200.6600
 20
 95.5040
 30
0.0
 0
VERTEX
 8
PARTS
 10
200.6600
 20
 98.0440
 30
0.0
 0
SEQEND
 8
PARTS
 0
POLYLINE
 8
PARTS
 66
1
 70
1
 10
0.0
 20
0.0
 30
0.0
 40
  0.0200
 41
  0.0200
 0
VERTEX
 8
PARTS
 10
203.7080
 20
 96.7740
 30
0.0
 42
  0.0985
 0
VERTEX
 8
PARTS
 10
203.6693
 20
 96.9684
 30
0.0
 42
  0.0985
 0
VERTEX
 8
PARTS
 10
203.5592
 20
 97.1332
 30
0.0
 42
  0.0985
 0
VERTEX
 8
PARTS
 10
203.3944
 20
 97.2433
 30
0.0
 42
  0.0985
 0
VERTEX
 8
PARTS
 10
203.2000
 20
 97.2820
 30
0.0
 42
  0.0985
 0
VERTEX
 8
PARTS
 10
203.0056
 20
 97.2433
 30
0.0
 42
  0.0985
 0
VERTEX
 8
PARTS
 10
202.8408
 20
 97.1332
 30
0.0
 42
  0.0985
 0
VERTEX
 8
PARTS
 10
202.7307
 20
 96.9684
 30
0.0
 42
  0.0985
 0
VERTEX
 8
PARTS
 10
202.6920
 20
 96.7740
 30
0.0
 42
  0.0985
 0
VERTEX
 8
PARTS
 10
202.7307
 20
 96.5796
 30
0.0
 42
  0.0985
 0
VERTEX
 8
PARTS
 10
202.8408
 20
 96.4148
 30
0.0
 42
  0.0985
 0
VERTEX
 8
PARTS
 10
203.0056
 20
 96.3047
 30
0.0
 42
  0.0985
 0
VERTEX
 8
PARTS
 10
203.2000
 20
 96.2660
 30
0.0
 42
  0.0985
 0
VERTEX
 8
PARTS
 10
203.3944
 20
 96.3047
 30
0.0
 42
  0.0985
 0
VERTEX
 8
PARTS
 10
203.5592
 20
 96.4148
 30
0.0
 42
  0.0985
 0
VERTEX
 8
PARTS
 10
203.6693
 20
 96.5796
 30
0.0
 42
  0.0985
 0
SEQEND
 8
PARTS
 0
TEXT
 8
PARTTEXT
 10
157.4800
 20
 99.2483
 30
0.0
 40
  1.3057
 1
FB3
 0
TEXT
 8
PARTTEXT
 10
157.4800
 20
 91.6283
 30
0.0
 40
  1.3057
 1
FB_0603
 0
LINE
 8
PARTS
 10
154.9400
 20
 95.5040
 30
0.0
 11
157.4800
 21
 95.5040
 31
0.0
 0
LINE
 8
PARTS
 10
165.1000
 20
 95.5040
 30
0.0
 11
162.5600
 21
 95.5040
 31
0.0
 0
POLYLINE
 8
PARTS
 66
1
 10
0.0
 20
0.0
 30
0.0
 0
VERTEX
 8
PARTS
 10
161.0360
 20
 95.5040
 30
0.0
 0
VERTEX
 8
PARTS
 10
162.5600
 20
 95.5040
 30
0.0
 0
SEQEND
 8
PARTS
 0
POLYLINE
 8
PARTS
 66
1
 10
0.0
 20
0.0
 30
0.0
 0
VERTEX
 8
PARTS
 10
159.0040
 20
 95.5040
 30
0.0
 0
VERTEX
 8
PARTS
 10
157.4800
 20
 95.5040
 30
0.0
 0
SEQEND
 8
PARTS
 0
POLYLINE
 8
PARTS
 66
1
 70
1
 10
0.0
 20
0.0
 30
0.0
 0
VERTEX
 8
PARTS
 10
160.5280
 20
 97.7900
 30
0.0
 0
VERTEX
 8
PARTS
 10
160.5280
 20
 97.7900
 30
0.0
 0
VERTEX
 8
PARTS
 10
162.0520
 20
 97.0280
 30
0.0
 0
VERTEX
 8
PARTS
 10
161.5440
 20
 96.2660
 30
0.0
 0
VERTEX
 8
PARTS
 10
160.0200
 20
 97.0280
 30
0.0
 0
VERTEX
 8
PARTS
 10
160.5280
 20
 97.7900
 30
0.0
 0
SEQEND
 8
PARTS
 0
POLYLINE
 8
PARTS
 66
1
 70
1
 10
0.0
 20
0.0
 30
0.0
 0
VERTEX
 8
PARTS
 10
160.5280
 20
 97.7900
 30
0.0
 0
VERTEX
 8
PARTS
 10
160.5280
 20
 97.7900
 30
0.0
 0
VERTEX
 8
PARTS
 10
162.0520
 20
 97.0280
 30
0.0
 0
VERTEX
 8
PARTS
 10
159.5120
 20
 93.2180
 30
0.0
 0
VERTEX
 8
PARTS
 10
157.9880
 20
 93.9800
 30
0.0
 0
VERTEX
 8
PARTS
 10
160.5280
 20
 97.7900
 30
0.0
 0
SEQEND
 8
PARTS
 0
POLYLINE
 8
PARTS
 66
1
 70
1
 10
0.0
 20
0.0
 30
0.0
 0
VERTEX
 8
PARTS
 10
158.4960
 20
 94.7420
 30
0.0
 0
VERTEX
 8
PARTS
 10
158.4960
 20
 94.7420
 30
0.0
 0
VERTEX
 8
PARTS
 10
160.0200
 20
 93.9800
 30
0.0
 0
VERTEX
 8
PARTS
 10
159.5120
 20
 93.2180
 30
0.0
 0
VERTEX
 8
PARTS
 10
157.9880
 20
 93.9800
 30
0.0
 0
VERTEX
 8
PARTS
 10
158.4960
 20
 94.7420
 30
0.0
 0
SEQEND
 8
PARTS
 0
TEXT
 8
PARTTEXT
 10
 40.6400
 20
101.7883
 30
0.0
 40
  1.3057
 1
R15
 0
TEXT
 8
PARTTEXT
 10
 40.6400
 20
 99.2483
 30
0.0
 40
  1.3057
 1
5.1kΩ
 0
LINE
 8
PARTS
 10
 40.6400
 20
 92.9640
 30
0.0
 11
 40.6400
 21
 95.5040
 31
0.0
 0
LINE
 8
PARTS
 10
 50.8000
 20
 92.9640
 30
0.0
 11
 50.8000
 21
 95.5040
 31
0.0
 0
POLYLINE
 8
PARTS
 66
1
 10
0.0
 20
0.0
 30
0.0
 40
  0.0200
 41
  0.0200
 0
VERTEX
 8
PARTS
 10
 42.4180
 20
 96.7740
 30
0.0
 0
VERTEX
 8
PARTS
 10
 42.4180
 20
 96.7740
 30
0.0
 0
SEQEND
 8
PARTS
 0
POLYLINE
 8
PARTS
 66
1
 10
0.0
 20
0.0
 30
0.0
 0
VERTEX
 8
PARTS
 10
 40.6400
 20
 95.5040
 30
0.0
 0
VERTEX
 8
PARTS
 10
 40.6400
 20
 95.5040
 30
0.0
 0
VERTEX
 8
PARTS
 10
 40.6400
 20
 96.7740
 30
0.0
 0
VERTEX
 8
PARTS
 10
 41.4020
 20
 96.7740
 30
0.0
 0
SEQEND
 8
PARTS
 0
POLYLINE
 8
PARTS
 66
1
 10
0.0
 20
0.0
 30
0.0
 0
VERTEX
 8
PARTS
 10
 50.8000
 20
 95.5040
 30
0.0
 0
VERTEX
 8
PARTS
 10
 50.8000
 20
 95.5040
 30
0.0
 0
VERTEX
 8
PARTS
 10
 50.8000
 20
 96.7740
 30
0.0
 0
VERTEX
 8
PARTS
 10
 50.2920
 20
 96.7740
 30
0.0
 0
SEQEND
 8
PARTS
 0
POLYLINE
 8
PARTS
 66
1
 70
1
 10
0.0
 20
0.0
 30
0.0
 0
VERTEX
 8
PARTS
 10
 41.4020
 20
 96.7740
 30
0.0
 0
VERTEX
 8
PARTS
 10
 41.4020
 20
 96.7740
 30
0.0
 0
VERTEX
 8
PARTS
 10
 41.4020
 20
 97.7900
 30
0.0
 0
VERTEX
 8
PARTS
 10
 41.6560
 20
 98.0440
 30
0.0
 0
VERTEX
 8
PARTS
 10
 42.1640
 20
 98.0440
 30
0.0
 0
VERTEX
 8
PARTS
 10
 42.4180
 20
 97.7900
 30
0.0
 0
VERTEX
 8
PARTS
 10
 49.0220
 20
 97.7900
 30
0.0
 0
VERTEX
 8
PARTS
 10
 49.2760
 20
 98.0440
 30
0.0
 0
VERTEX
 8
PARTS
 10
 49.7840
 20
 98.0440
 30
0.0
 0
VERTEX
 8
PARTS
 10
 50.0380
 20
 97.7900
 30
0.0
 0
VERTEX
 8
PARTS
 10
 50.0380
 20
 95.7580
 30
0.0
 0
VERTEX
 8
PARTS
 10
 49.7840
 20
 95.5040
 30
0.0
 0
VERTEX
 8
PARTS
 10
 49.2760
 20
 95.5040
 30
0.0
 0
VERTEX
 8
PARTS
 10
 49.0220
 20
 95.7580
 30
0.0
 0
VERTEX
 8
PARTS
 10
 42.4180
 20
 95.7580
 30
0.0
 0
VERTEX
 8
PARTS
 10
 42.1640
 20
 95.5040
 30
0.0
 0
VERTEX
 8
PARTS
 10
 41.6560
 20
 95.5040
 30
0.0
 0
VERTEX
 8
PARTS
 10
 41.4020
 20
 95.7580
 30
0.0
 0
VERTEX
 8
PARTS
 10
 41.4020
 20
 96.7740
 30
0.0
 0
SEQEND
 8
PARTS
 0
POLYLINE
 8
PARTS
 66
1
 70
1
 10
0.0
 20
0.0
 30
0.0
 0
VERTEX
 8
PARTS
 10
 41.4020
 20
 96.7740
 30
0.0
 0
VERTEX
 8
PARTS
 10
 41.4020
 20
 96.7740
 30
0.0
 0
VERTEX
 8
PARTS
 10
 41.4020
 20
 97.7900
 30
0.0
 0
VERTEX
 8
PARTS
 10
 41.6560
 20
 98.0440
 30
0.0
 0
VERTEX
 8
PARTS
 10
 41.9100
 20
 98.0440
 30
0.0
 0
VERTEX
 8
PARTS
 10
 42.1640
 20
 97.7900
 30
0.0
 0
VERTEX
 8
PARTS
 10
 49.0220
 20
 97.7900
 30
0.0
 0
VERTEX
 8
PARTS
 10
 49.2760
 20
 98.0440
 30
0.0
 0
VERTEX
 8
PARTS
 10
 50.0380
 20
 98.0440
 30
0.0
 0
VERTEX
 8
PARTS
 10
 50.2920
 20
 97.7900
 30
0.0
 0
VERTEX
 8
PARTS
 10
 50.2920
 20
 95.7580
 30
0.0
 0
VERTEX
 8
PARTS
 10
 50.0380
 20
 95.5040
 30
0.0
 0
VERTEX
 8
PARTS
 10
 49.2760
 20
 95.5040
 30
0.0
 0
VERTEX
 8
PARTS
 10
 49.0220
 20
 95.7580
 30
0.0
 0
VERTEX
 8
PARTS
 10
 42.1640
 20
 95.7580
 30
0.0
 0
VERTEX
 8
PARTS
 10
 41.9100
 20
 95.5040
 30
0.0
 0
VERTEX
 8
PARTS
 10
 41.6560
 20
 95.5040
 30
0.0
 0
VERTEX
 8
PARTS
 10
 41.4020
 20
 95.7580
 30
0.0
 0
VERTEX
 8
PARTS
 10
 41.4020
 20
 96.7740
 30
0.0
 0
SEQEND
 8
PARTS
 0
TEXT
 8
PARTTEXT
 10
 91.4400
 20
172.9083
 30
0.0
 40
  1.3057
 1
C1
 0
TEXT
 8
PARTTEXT
 10
 91.4400
 20
165.2883
 30
0.0
 40
  1.3057
 1
CAP
 0
LINE
 8
PARTS
 10
 88.9000
 20
169.1640
 30
0.0
 11
 91.4400
 21
169.1640
 31
0.0
 0
LINE
 8
PARTS
 10
 99.0600
 20
169.1640
 30
0.0
 11
 96.5200
 21
169.1640
 31
0.0
 0
POLYLINE
 8
PARTS
 66
1
 10
0.0
 20
0.0
 30
0.0
 0
VERTEX
 8
PARTS
 10
 93.4720
 20
171.1960
 30
0.0
 0
VERTEX
 8
PARTS
 10
 93.4720
 20
167.1320
 30
0.0
 0
SEQEND
 8
PARTS
 0
POLYLINE
 8
PARTS
 66
1
 10
0.0
 20
0.0
 30
0.0
 0
VERTEX
 8
PARTS
 10
 94.4880
 20
171.1960
 30
0.0
 0
VERTEX
 8
PARTS
 10
 94.4880
 20
167.1320
 30
0.0
 0
SEQEND
 8
PARTS
 0
POLYLINE
 8
PARTS
 66
1
 10
0.0
 20
0.0
 30
0.0
 0
VERTEX
 8
PARTS
 10
 93.4720
 20
169.1640
 30
0.0
 0
VERTEX
 8
PARTS
 10
 91.4400
 20
169.1640
 30
0.0
 0
SEQEND
 8
PARTS
 0
POLYLINE
 8
PARTS
 66
1
 10
0.0
 20
0.0
 30
0.0
 0
VERTEX
 8
PARTS
 10
 96.5200
 20
169.1640
 30
0.0
 0
VERTEX
 8
PARTS
 10
 94.4880
 20
169.1640
 30
0.0
 0
SEQEND
 8
PARTS
 0
POLYLINE
 8
PARTS
 66
1
 10
0.0
 20
0.0
 30
0.0
 40
  0.0200
 41
  0.0200
 0
VERTEX
 8
PARTS
 10
 92.4560
 20
170.1800
 30
0.0
 0
VERTEX
 8
PARTS
 10
 92.4560
 20
170.1800
 30
0.0
 0
SEQEND
 8
PARTS
 0
TEXT
 8
PARTTEXT
 10
142.2400
 20
157.6683
 30
0.0
 40
  1.3057
 1
C4
 0
TEXT
 8
PARTTEXT
 10
142.2400
 20
150.0483
 30
0.0
 40
  1.3057
 1
CAP_NP3
 0
LINE
 8
PARTS
 10
139.7000
 20
153.9240
 30
0.0
 11
142.2400
 21
153.9240
 31
0.0
 0
LINE
 8
PARTS
 10
149.8600
 20
153.9240
 30
0.0
 11
147.3200
 21
153.9240
 31
0.0
 0
POLYLINE
 8
PARTS
 66
1
 10
0.0
 20
0.0
 30
0.0
 0
VERTEX
 8
PARTS
 10
144.0180
 20
155.7020
 30
0.0
 0
VERTEX
 8
PARTS
 10
144.0180
 20
152.1460
 30
0.0
 0
SEQEND
 8
PARTS
 0
POLYLINE
 8
PARTS
 66
1
 10
0.0
 20
0.0
 30
0.0
 0
VERTEX
 8
PARTS
 10
145.5420
 20
155.7020
 30
0.0
 0
VERTEX
 8
PARTS
 10
145.5420
 20
152.1460
 30
0.0
 0
SEQEND
 8
PARTS
 0
POLYLINE
 8
PARTS
 66
1
 10
0.0
 20
0.0
 30
0.0
 0
VERTEX
 8
PARTS
 10
144.0180
 20
153.9240
 30
0.0
 0
VERTEX
 8
PARTS
 10
142.2400
 20
153.9240
 30
0.0
 0
SEQEND
 8
PARTS
 0
POLYLINE
 8
PARTS
 66
1
 10
0.0
 20
0.0
 30
0.0
 0
VERTEX
 8
PARTS
 10
145.5420
 20
153.9240
 30
0.0
 0
VERTEX
 8
PARTS
 10
147.3200
 20
153.9240
 30
0.0
 0
SEQEND
 8
PARTS
 0
POLYLINE
 8
PARTS
 66
1
 70
1
 10
0.0
 20
0.0
 30
0.0
 40
  0.0200
 41
  0.0200
 0
VERTEX
 8
PARTS
 10
143.0020
 20
154.9400
 30
0.0
 42
  0.0000
 0
VERTEX
 8
PARTS
 10
143.0020
 20
154.9400
 30
0.0
 42
  0.0000
 0
VERTEX
 8
PARTS
 10
143.0020
 20
154.9400
 30
0.0
 42
  0.0000
 0
VERTEX
 8
PARTS
 10
143.0020
 20
154.9400
 30
0.0
 42
  0.0000
 0
VERTEX
 8
PARTS
 10
143.0020
 20
154.9400
 30
0.0
 42
  0.0000
 0
VERTEX
 8
PARTS
 10
143.0020
 20
154.9400
 30
0.0
 42
  0.0000
 0
VERTEX
 8
PARTS
 10
143.0020
 20
154.9400
 30
0.0
 42
  0.0000
 0
VERTEX
 8
PARTS
 10
143.0020
 20
154.9400
 30
0.0
 42
  0.0000
 0
VERTEX
 8
PARTS
 10
143.0020
 20
154.9400
 30
0.0
 42
  0.0000
 0
VERTEX
 8
PARTS
 10
143.0020
 20
154.9400
 30
0.0
 42
  0.0000
 0
VERTEX
 8
PARTS
 10
143.0020
 20
154.9400
 30
0.0
 42
  0.0000
 0
VERTEX
 8
PARTS
 10
143.0020
 20
154.9400
 30
0.0
 42
  0.0000
 0
VERTEX
 8
PARTS
 10
143.0020
 20
154.9400
 30
0.0
 42
  0.0000
 0
VERTEX
 8
PARTS
 10
143.0020
 20
154.9400
 30
0.0
 42
  0.0000
 0
VERTEX
 8
PARTS
 10
143.0020
 20
154.9400
 30
0.0
 42
  0.0000
 0
VERTEX
 8
PARTS
 10
143.0020
 20
154.9400
 30
0.0
 42
  0.0000
 0
SEQEND
 8
PARTS
 0
TEXT
 8
PARTTEXT
 10
 12.7000
 20
142.4283
 30
0.0
 40
  1.3057
 1
R10
 0
TEXT
 8
PARTTEXT
 10
 12.7000
 20
139.8883
 30
0.0
 40
  1.3057
 1
5.1kΩ
 0
LINE
 8
PARTS
 10
 12.7000
 20
133.6040
 30
0.0
 11
 12.7000
 21
136.1440
 31
0.0
 0
LINE
 8
PARTS
 10
 22.8600
 20
133.6040
 30
0.0
 11
 22.8600
 21
136.1440
 31
0.0
 0
POLYLINE
 8
PARTS
 66
1
 10
0.0
 20
0.0
 30
0.0
 40
  0.0200
 41
  0.0200
 0
VERTEX
 8
PARTS
 10
 14.2240
 20
137.4140
 30
0.0
 0
VERTEX
 8
PARTS
 10
 14.2240
 20
137.4140
 30
0.0
 0
SEQEND
 8
PARTS
 0
POLYLINE
 8
PARTS
 66
1
 10
0.0
 20
0.0
 30
0.0
 0
VERTEX
 8
PARTS
 10
 12.7000
 20
136.1440
 30
0.0
 0
VERTEX
 8
PARTS
 10
 12.7000
 20
136.1440
 30
0.0
 0
VERTEX
 8
PARTS
 10
 12.7000
 20
137.4140
 30
0.0
 0
VERTEX
 8
PARTS
 10
 13.4620
 20
137.4140
 30
0.0
 0
SEQEND
 8
PARTS
 0
POLYLINE
 8
PARTS
 66
1
 10
0.0
 20
0.0
 30
0.0
 0
VERTEX
 8
PARTS
 10
 22.8600
 20
136.1440
 30
0.0
 0
VERTEX
 8
PARTS
 10
 22.8600
 20
136.1440
 30
0.0
 0
VERTEX
 8
PARTS
 10
 22.8600
 20
137.4140
 30
0.0
 0
VERTEX
 8
PARTS
 10
 22.0980
 20
137.4140
 30
0.0
 0
SEQEND
 8
PARTS
 0
POLYLINE
 8
PARTS
 66
1
 70
1
 10
0.0
 20
0.0
 30
0.0
 0
VERTEX
 8
PARTS
 10
 13.4620
 20
137.4140
 30
0.0
 0
VERTEX
 8
PARTS
 10
 13.4620
 20
137.4140
 30
0.0
 0
VERTEX
 8
PARTS
 10
 13.4620
 20
138.6840
 30
0.0
 0
VERTEX
 8
PARTS
 10
 14.2240
 20
138.6840
 30
0.0
 0
VERTEX
 8
PARTS
 10
 14.2240
 20
138.4300
 30
0.0
 0
VERTEX
 8
PARTS
 10
 21.3360
 20
138.4300
 30
0.0
 0
VERTEX
 8
PARTS
 10
 21.3360
 20
138.6840
 30
0.0
 0
VERTEX
 8
PARTS
 10
 22.0980
 20
138.6840
 30
0.0
 0
VERTEX
 8
PARTS
 10
 22.0980
 20
136.1440
 30
0.0
 0
VERTEX
 8
PARTS
 10
 21.3360
 20
136.1440
 30
0.0
 0
VERTEX
 8
PARTS
 10
 21.3360
 20
136.3980
 30
0.0
 0
VERTEX
 8
PARTS
 10
 14.2240
 20
136.3980
 30
0.0
 0
VERTEX
 8
PARTS
 10
 14.2240
 20
136.1440
 30
0.0
 0
VERTEX
 8
PARTS
 10
 13.4620
 20
136.1440
 30
0.0
 0
VERTEX
 8
PARTS
 10
 13.4620
 20
137.4140
 30
0.0
 0
SEQEND
 8
PARTS
 0
TEXT
 8
PARTTEXT
 10
 10.1600
 20
119.5683
 30
0.0
 40
  1.3057
 1
R12
 0
TEXT
 8
PARTTEXT
 10
 10.1600
 20
117.0283
 30
0.0
 40
  1.3057
 1
RES1
 0
LINE
 8
PARTS
 10
  7.6200
 20
113.2840
 30
0.0
 11
 10.1600
 21
113.2840
 31
0.0
 0
LINE
 8
PARTS
 10
 17.7800
 20
113.2840
 30
0.0
 11
 15.2400
 21
113.2840
 31
0.0
 0
POLYLINE
 8
PARTS
 66
1
 10
0.0
 20
0.0
 30
0.0
 40
  0.0600
 41
  0.0600
 0
VERTEX
 8
PARTS
 10
 10.9220
 20
113.2840
 30
0.0
 0
VERTEX
 8
PARTS
 10
 10.9220
 20
113.2840
 30
0.0
 0
SEQEND
 8
PARTS
 0
POLYLINE
 8
PARTS
 66
1
 70
1
 10
0.0
 20
0.0
 30
0.0
 0
VERTEX
 8
PARTS
 10
 10.1600
 20
113.2840
 30
0.0
 0
VERTEX
 8
PARTS
 10
 10.1600
 20
113.2840
 30
0.0
 0
VERTEX
 8
PARTS
 10
 10.1600
 20
114.0460
 30
0.0
 0
VERTEX
 8
PARTS
 10
 10.4140
 20
114.0460
 30
0.0
 0
VERTEX
 8
PARTS
 10
 10.6680
 20
113.7920
 30
0.0
 0
VERTEX
 8
PARTS
 10
 14.7320
 20
113.7920
 30
0.0
 0
VERTEX
 8
PARTS
 10
 14.9860
 20
114.0460
 30
0.0
 0
VERTEX
 8
PARTS
 10
 15.2400
 20
114.0460
 30
0.0
 0
VERTEX
 8
PARTS
 10
 15.2400
 20
112.5220
 30
0.0
 0
VERTEX
 8
PARTS
 10
 14.9860
 20
112.5220
 30
0.0
 0
VERTEX
 8
PARTS
 10
 14.7320
 20
112.7760
 30
0.0
 0
VERTEX
 8
PARTS
 10
 10.6680
 20
112.7760
 30
0.0
 0
VERTEX
 8
PARTS
 10
 10.4140
 20
112.5220
 30
0.0
 0
VERTEX
 8
PARTS
 10
 10.1600
 20
112.5220
 30
0.0
 0
VERTEX
 8
PARTS
 10
 10.1600
 20
113.2840
 30
0.0
 0
SEQEND
 8
PARTS
 0
TEXT
 8
PARTTEXT
 10
 58.4200
 20
 89.0883
 30
0.0
 40
  1.3057
 1
L3
 0
TEXT
 8
PARTTEXT
 10
 58.4200
 20
 86.5483
 30
0.0
 40
  1.3057
 1
4.7uH
 0
LINE
 8
PARTS
 10
 55.8800
 20
 82.8040
 30
0.0
 11
 58.4200
 21
 82.8040
 31
0.0
 0
LINE
 8
PARTS
 10
 66.0400
 20
 82.8040
 30
0.0
 11
 63.5000
 21
 82.8040
 31
0.0
 0
POLYLINE
 8
PARTS
 66
1
 70
1
 10
0.0
 20
0.0
 30
0.0
 40
  0.0600
 41
  0.0600
 0
VERTEX
 8
PARTS
 10
 58.4200
 20
 84.3280
 30
0.0
 0
VERTEX
 8
PARTS
 10
 58.4200
 20
 84.3280
 30
0.0
 0
VERTEX
 8
PARTS
 10
 58.9280
 20
 84.5820
 30
0.0
 0
VERTEX
 8
PARTS
 10
 59.1820
 20
 84.8360
 30
0.0
 0
VERTEX
 8
PARTS
 10
 59.4360
 20
 85.3440
 30
0.0
 0
VERTEX
 8
PARTS
 10
 62.4840
 20
 85.3440
 30
0.0
 0
VERTEX
 8
PARTS
 10
 62.7380
 20
 84.8360
 30
0.0
 0
VERTEX
 8
PARTS
 10
 62.9920
 20
 84.5820
 30
0.0
 0
VERTEX
 8
PARTS
 10
 63.5000
 20
 84.3280
 30
0.0
 0
VERTEX
 8
PARTS
 10
 63.5000
 20
 81.2800
 30
0.0
 0
VERTEX
 8
PARTS
 10
 62.9920
 20
 81.0260
 30
0.0
 0
VERTEX
 8
PARTS
 10
 62.7380
 20
 80.7720
 30
0.0
 0
VERTEX
 8
PARTS
 10
 62.4840
 20
 80.2640
 30
0.0
 0
VERTEX
 8
PARTS
 10
 59.4360
 20
 80.2640
 30
0.0
 0
VERTEX
 8
PARTS
 10
 59.1820
 20
 80.7720
 30
0.0
 0
VERTEX
 8
PARTS
 10
 58.9280
 20
 81.0260
 30
0.0
 0
VERTEX
 8
PARTS
 10
 58.4200
 20
 81.2800
 30
0.0
 0
VERTEX
 8
PARTS
 10
 58.4200
 20
 84.3280
 30
0.0
 0
SEQEND
 8
PARTS
 0
POLYLINE
 8
PARTS
 66
1
 10
0.0
 20
0.0
 30
0.0
 0
VERTEX
 8
PARTS
 10
 62.7380
 20
 82.2960
 30
0.0
 42
  1.0000
 0
VERTEX
 8
PARTS
 10
 61.2140
 20
 82.2960
 30
0.0
 0
SEQEND
 8
PARTS
 0
POLYLINE
 8
PARTS
 66
1
 10
0.0
 20
0.0
 30
0.0
 0
VERTEX
 8
PARTS
 10
 61.7220
 20
 82.2960
 30
0.0
 42
  1.0000
 0
VERTEX
 8
PARTS
 10
 60.1980
 20
 82.2960
 30
0.0
 0
SEQEND
 8
PARTS
 0
POLYLINE
 8
PARTS
 66
1
 10
0.0
 20
0.0
 30
0.0
 0
VERTEX
 8
PARTS
 10
 60.1980
 20
 82.2960
 30
0.0
 42
 -1.0000
 0
VERTEX
 8
PARTS
 10
 60.7060
 20
 82.2960
 30
0.0
 0
SEQEND
 8
PARTS
 0
POLYLINE
 8
PARTS
 66
1
 10
0.0
 20
0.0
 30
0.0
 0
VERTEX
 8
PARTS
 10
 61.2140
 20
 82.2960
 30
0.0
 42
 -1.0000
 0
VERTEX
 8
PARTS
 10
 61.7220
 20
 82.2960
 30
0.0
 0
SEQEND
 8
PARTS
 0
POLYLINE
 8
PARTS
 66
1
 10
0.0
 20
0.0
 30
0.0
 0
VERTEX
 8
PARTS
 10
 60.7060
 20
 82.2960
 30
0.0
 42
  1.0000
 0
VERTEX
 8
PARTS
 10
 59.1820
 20
 82.2960
 30
0.0
 0
SEQEND
 8
PARTS
 0
TEXT
 8
PARTTEXT
 10
 40.6400
 20
170.3683
 30
0.0
 40
  1.3057
 1
R3
 0
TEXT
 8
PARTTEXT
 10
 53.3400
 20
170.3683
 30
0.0
 40
  1.3057
 1
RES
 0
LINE
 8
PARTS
 10
 43.1800
 20
169.1640
 30
0.0
 11
 45.7200
 21
169.1640
 31
0.0
 0
LINE
 8
PARTS
 10
 53.3400
 20
169.1640
 30
0.0
 11
 50.8000
 21
169.1640
 31
0.0
 0
POLYLINE
 8
PARTS
 66
1
 70
1
 10
0.0
 20
0.0
 30
0.0
 0
VERTEX
 8
PARTS
 10
 45.7200
 20
169.9260
 30
0.0
 0
VERTEX
 8
PARTS
 10
 50.8000
 20
169.9260
 30
0.0
 0
VERTEX
 8
PARTS
 10
 50.8000
 20
168.4020
 30
0.0
 0
VERTEX
 8
PARTS
 10
 45.7200
 20
168.4020
 30
0.0
 0
SEQEND
 8
PARTS
 0
POLYLINE
 8
PARTS
 66
1
 10
0.0
 20
0.0
 30
0.0
 40
  0.0200
 41
  0.0200
 0
VERTEX
 8
PARTS
 10
 46.4820
 20
169.1640
 30
0.0
 0
VERTEX
 8
PARTS
 10
 46.4820
 20
169.1640
 30
0.0
 0
SEQEND
 8
PARTS
 0
POLYLINE
 8
WIRE
 66
1
 10
0.0
 20
0.0
 30
0.0
 0
VERTEX
 8
WIRE
 10
 35.5600
 20
174.2440
 30
0.0
 0
VERTEX
 8
WIRE
 10
 35.5600
 20
181.8640
 30
0.0
 0
SEQEND
 8
WIRE
 0
POLYLINE
 8
WIRE
 66
1
 10
0.0
 20
0.0
 30
0.0
 0
VERTEX
 8
WIRE
 10
 60.9600
 20
174.2440
 30
0.0
 0
VERTEX
 8
WIRE
 10
 60.9600
 20
181.8640
 30
0.0
 0
SEQEND
 8
WIRE
 0
POLYLINE
 8
WIRE
 66
1
 10
0.0
 20
0.0
 30
0.0
 0
VERTEX
 8
WIRE
 10
 35.5600
 20
181.8640
 30
0.0
 0
VERTEX
 8
WIRE
 10
 43.1800
 20
181.8640
 30
0.0
 0
SEQEND
 8
WIRE
 0
POLYLINE
 8
WIRE
 66
1
 10
0.0
 20
0.0
 30
0.0
 0
VERTEX
 8
WIRE
 10
 35.5600
 20
174.2440
 30
0.0
 0
VERTEX
 8
WIRE
 10
 43.1800
 20
174.2440
 30
0.0
 0
SEQEND
 8
WIRE
 0
POLYLINE
 8
WIRE
 66
1
 10
0.0
 20
0.0
 30
0.0
 0
VERTEX
 8
WIRE
 10
 60.9600
 20
181.8640
 30
0.0
 0
VERTEX
 8
WIRE
 10
 53.3400
 20
181.8640
 30
0.0
 0
SEQEND
 8
WIRE
 0
POLYLINE
 8
WIRE
 66
1
 10
0.0
 20
0.0
 30
0.0
 0
VERTEX
 8
WIRE
 10
 60.9600
 20
174.2440
 30
0.0
 0
VERTEX
 8
WIRE
 10
 53.3400
 20
174.2440
 30
0.0
 0
SEQEND
 8
WIRE
 0
POLYLINE
 8
WIRE
 66
1
 10
0.0
 20
0.0
 30
0.0
 0
VERTEX
 8
WIRE
 10
208.2800
 20
176.7840
 30
0.0
 0
VERTEX
 8
WIRE
 10
208.2800
 20
181.8640
 30
0.0
 0
SEQEND
 8
WIRE
 0
POLYLINE
 8
WIRE
 66
1
 10
0.0
 20
0.0
 30
0.0
 0
VERTEX
 8
WIRE
 10
208.2800
 20
181.8640
 30
0.0
 0
VERTEX
 8
WIRE
 10
198.1200
 20
181.8640
 30
0.0
 0
SEQEND
 8
WIRE
 0
POLYLINE
 8
WIRE
 66
1
 10
0.0
 20
0.0
 30
0.0
 0
VERTEX
 8
WIRE
 10
182.8800
 20
181.8640
 30
0.0
 0
VERTEX
 8
WIRE
 10
182.8800
 20
184.4040
 30
0.0
 0
SEQEND
 8
WIRE
 0
POLYLINE
 8
WIRE
 66
1
 10
0.0
 20
0.0
 30
0.0
 0
VERTEX
 8
WIRE
 10
193.0400
 20
181.8640
 30
0.0
 0
VERTEX
 8
WIRE
 10
182.8800
 20
181.8640
 30
0.0
 0
SEQEND
 8
WIRE
 0
POLYLINE
 8
WIRE
 66
1
 10
0.0
 20
0.0
 30
0.0
 0
VERTEX
 8
WIRE
 10
208.2800
 20
159.0040
 30
0.0
 0
VERTEX
 8
WIRE
 10
208.2800
 20
164.0840
 30
0.0
 0
SEQEND
 8
WIRE
 0
POLYLINE
 8
WIRE
 66
1
 10
0.0
 20
0.0
 30
0.0
 0
VERTEX
 8
WIRE
 10
208.2800
 20
164.0840
 30
0.0
 0
VERTEX
 8
WIRE
 10
198.1200
 20
164.0840
 30
0.0
 0
SEQEND
 8
WIRE
 0
POLYLINE
 8
WIRE
 66
1
 10
0.0
 20
0.0
 30
0.0
 0
VERTEX
 8
WIRE
 10
193.0400
 20
164.0840
 30
0.0
 0
VERTEX
 8
WIRE
 10
182.8800
 20
164.0840
 30
0.0
 0
SEQEND
 8
WIRE
 0
POLYLINE
 8
WIRE
 66
1
 10
0.0
 20
0.0
 30
0.0
 0
VERTEX
 8
WIRE
 10
182.8800
 20
159.0040
 30
0.0
 0
VERTEX
 8
WIRE
 10
182.8800
 20
164.0840
 30
0.0
 0
SEQEND
 8
WIRE
 0
POLYLINE
 8
WIRE
 66
1
 10
0.0
 20
0.0
 30
0.0
 0
VERTEX
 8
WIRE
 10
208.2800
 20
141.2240
 30
0.0
 0
VERTEX
 8
WIRE
 10
208.2800
 20
143.7640
 30
0.0
 0
SEQEND
 8
WIRE
 0
POLYLINE
 8
WIRE
 66
1
 10
0.0
 20
0.0
 30
0.0
 0
VERTEX
 8
WIRE
 10
208.2800
 20
143.7640
 30
0.0
 0
VERTEX
 8
WIRE
 10
198.1200
 20
143.7640
 30
0.0
 0
SEQEND
 8
WIRE
 0
POLYLINE
 8
WIRE
 66
1
 10
0.0
 20
0.0
 30
0.0
 0
VERTEX
 8
WIRE
 10
182.8800
 20
143.7640
 30
0.0
 0
VERTEX
 8
WIRE
 10
182.8800
 20
148.8440
 30
0.0
 0
SEQEND
 8
WIRE
 0
POLYLINE
 8
WIRE
 66
1
 10
0.0
 20
0.0
 30
0.0
 0
VERTEX
 8
WIRE
 10
193.0400
 20
143.7640
 30
0.0
 0
VERTEX
 8
WIRE
 10
182.8800
 20
143.7640
 30
0.0
 0
SEQEND
 8
WIRE
 0
POLYLINE
 8
WIRE
 66
1
 10
0.0
 20
0.0
 30
0.0
 0
VERTEX
 8
WIRE
 10
 27.9400
 20
133.6040
 30
0.0
 0
VERTEX
 8
WIRE
 10
 22.8600
 20
133.6040
 30
0.0
 0
SEQEND
 8
WIRE
 0
POLYLINE
 8
WIRE
 66
1
 10
0.0
 20
0.0
 30
0.0
 0
VERTEX
 8
WIRE
 10
 43.1800
 20
133.6040
 30
0.0
 0
VERTEX
 8
WIRE
 10
 38.1000
 20
133.6040
 30
0.0
 0
SEQEND
 8
WIRE
 0
POLYLINE
 8
WIRE
 66
1
 10
0.0
 20
0.0
 30
0.0
 0
VERTEX
 8
WIRE
 10
 12.7000
 20
133.6040
 30
0.0
 0
VERTEX
 8
WIRE
 10
  7.6200
 20
133.6040
 30
0.0
 0
SEQEND
 8
WIRE
 0
POLYLINE
 8
WIRE
 66
1
 10
0.0
 20
0.0
 30
0.0
 0
VERTEX
 8
WIRE
 10
 58.4200
 20
133.6040
 30
0.0
 0
VERTEX
 8
WIRE
 10
 53.3400
 20
133.6040
 30
0.0
 0
SEQEND
 8
WIRE
 0
POLYLINE
 8
WIRE
 66
1
 10
0.0
 20
0.0
 30
0.0
 0
VERTEX
 8
WIRE
 10
 68.5800
 20
133.6040
 30
0.0
 0
VERTEX
 8
WIRE
 10
 63.5000
 20
133.6040
 30
0.0
 0
SEQEND
 8
WIRE
 0
POLYLINE
 8
PARTS
 66
1
 10
0.0
 20
0.0
 30
0.0
 0
VERTEX
 8
PARTS
 10
212.0900
 20
174.2440
 30
0.0
 0
VERTEX
 8
PARTS
 10
210.8200
 20
176.7840
 30
0.0
 0
SEQEND
 8
PARTS
 0
POLYLINE
 8
PARTS
 66
1
 10
0.0
 20
0.0
 30
0.0
 0
VERTEX
 8
PARTS
 10
210.8200
 20
176.7840
 30
0.0
 0
VERTEX
 8
PARTS
 10
205.7400
 20
176.7840
 30
0.0
 0
SEQEND
 8
PARTS
 0
POLYLINE
 8
PARTS
 66
1
 10
0.0
 20
0.0
 30
0.0
 0
VERTEX
 8
PARTS
 10
205.7400
 20
176.7840
 30
0.0
 0
VERTEX
 8
PARTS
 10
207.0100
 20
174.2440
 30
0.0
 0
SEQEND
 8
PARTS
 0
POLYLINE
 8
PARTS
 66
1
 10
0.0
 20
0.0
 30
0.0
 0
VERTEX
 8
PARTS
 10
209.5500
 20
174.2440
 30
0.0
 0
VERTEX
 8
PARTS
 10
208.2800
 20
176.7840
 30
0.0
 0
SEQEND
 8
PARTS
 0
TEXT
 8
PARTTEXT
 10
180.3400
 20
188.1483
 30
0.0
 40
  1.3057
 1
5V
 0
POLYLINE
 8
PARTS
 66
1
 10
0.0
 20
0.0
 30
0.0
 0
VERTEX
 8
PARTS
 10
182.8800
 20
186.9440
 30
0.0
 0
VERTEX
 8
PARTS
 10
182.8800
 20
184.4040
 30
0.0
 0
SEQEND
 8
PARTS
 0
POLYLINE
 8
PARTS
 66
1
 10
0.0
 20
0.0
 30
0.0
 0
VERTEX
 8
PARTS
 10
181.6100
 20
186.9440
 30
0.0
 0
VERTEX
 8
PARTS
 10
184.1500
 20
186.9440
 30
0.0
 0
SEQEND
 8
PARTS
 0
POLYLINE
 8
PARTS
 66
1
 10
0.0
 20
0.0
 30
0.0
 0
VERTEX
 8
PARTS
 10
212.0900
 20
156.4640
 30
0.0
 0
VERTEX
 8
PARTS
 10
210.8200
 20
159.0040
 30
0.0
 0
SEQEND
 8
PARTS
 0
POLYLINE
 8
PARTS
 66
1
 10
0.0
 20
0.0
 30
0.0
 0
VERTEX
 8
PARTS
 10
210.8200
 20
159.0040
 30
0.0
 0
VERTEX
 8
PARTS
 10
205.7400
 20
159.0040
 30
0.0
 0
SEQEND
 8
PARTS
 0
POLYLINE
 8
PARTS
 66
1
 10
0.0
 20
0.0
 30
0.0
 0
VERTEX
 8
PARTS
 10
205.7400
 20
159.0040
 30
0.0
 0
VERTEX
 8
PARTS
 10
207.0100
 20
156.4640
 30
0.0
 0
SEQEND
 8
PARTS
 0
POLYLINE
 8
PARTS
 66
1
 10
0.0
 20
0.0
 30
0.0
 0
VERTEX
 8
PARTS
 10
209.5500
 20
156.4640
 30
0.0
 0
VERTEX
 8
PARTS
 10
208.2800
 20
159.0040
 30
0.0
 0
SEQEND
 8
PARTS
 0
POLYLINE
 8
PARTS
 66
1
 10
0.0
 20
0.0
 30
0.0
 0
VERTEX
 8
PARTS
 10
180.3400
 20
159.0040
 30
0.0
 0
VERTEX
 8
PARTS
 10
185.4200
 20
159.0040
 30
0.0
 0
SEQEND
 8
PARTS
 0
POLYLINE
 8
PARTS
 66
1
 10
0.0
 20
0.0
 30
0.0
 0
VERTEX
 8
PARTS
 10
181.1020
 20
158.2420
 30
0.0
 0
VERTEX
 8
PARTS
 10
184.6580
 20
158.2420
 30
0.0
 0
SEQEND
 8
PARTS
 0
POLYLINE
 8
PARTS
 66
1
 10
0.0
 20
0.0
 30
0.0
 0
VERTEX
 8
PARTS
 10
183.8960
 20
157.4800
 30
0.0
 0
VERTEX
 8
PARTS
 10
181.8640
 20
157.4800
 30
0.0
 0
SEQEND
 8
PARTS
 0
POLYLINE
 8
PARTS
 66
1
 10
0.0
 20
0.0
 30
0.0
 0
VERTEX
 8
PARTS
 10
182.6260
 20
156.7180
 30
0.0
 0
VERTEX
 8
PARTS
 10
183.1340
 20
156.7180
 30
0.0
 0
SEQEND
 8
PARTS
 0
POLYLINE
 8
PARTS
 66
1
 10
0.0
 20
0.0
 30
0.0
 0
VERTEX
 8
PARTS
 10
212.0900
 20
138.6840
 30
0.0
 0
VERTEX
 8
PARTS
 10
210.8200
 20
141.2240
 30
0.0
 0
SEQEND
 8
PARTS
 0
POLYLINE
 8
PARTS
 66
1
 10
0.0
 20
0.0
 30
0.0
 0
VERTEX
 8
PARTS
 10
210.8200
 20
141.2240
 30
0.0
 0
VERTEX
 8
PARTS
 10
205.7400
 20
141.2240
 30
0.0
 0
SEQEND
 8
PARTS
 0
POLYLINE
 8
PARTS
 66
1
 10
0.0
 20
0.0
 30
0.0
 0
VERTEX
 8
PARTS
 10
205.7400
 20
141.2240
 30
0.0
 0
VERTEX
 8
PARTS
 10
207.0100
 20
138.6840
 30
0.0
 0
SEQEND
 8
PARTS
 0
POLYLINE
 8
PARTS
 66
1
 10
0.0
 20
0.0
 30
0.0
 0
VERTEX
 8
PARTS
 10
209.5500
 20
138.6840
 30
0.0
 0
VERTEX
 8
PARTS
 10
208.2800
 20
141.2240
 30
0.0
 0
SEQEND
 8
PARTS
 0
TEXT
 8
PARTTEXT
 10
180.3400
 20
152.5883
 30
0.0
 40
  1.3057
 1
5V
 0
POLYLINE
 8
PARTS
 66
1
 10
0.0
 20
0.0
 30
0.0
 0
VERTEX
 8
PARTS
 10
182.8800
 20
151.3840
 30
0.0
 0
VERTEX
 8
PARTS
 10
182.8800
 20
148.8440
 30
0.0
 0
SEQEND
 8
PARTS
 0
POLYLINE
 8
PARTS
 66
1
 10
0.0
 20
0.0
 30
0.0
 0
VERTEX
 8
PARTS
 10
181.6100
 20
151.3840
 30
0.0
 0
VERTEX
 8
PARTS
 10
184.1500
 20
151.3840
 30
0.0
 0
SEQEND
 8
PARTS
 0
TEXT
 8
COMMENTS
 10
 88.9000
 20
162.7483
 30
0.0
 40
  1.3057
 1
8*8，取点作为1脚标识
 0
TEXT
 8
COMMENTS
 10
 88.9000
 20
147.5083
 30
0.0
 40
  1.3057
 1
7*7，取圆作为1脚标识
 0
TEXT
 8
COMMENTS
 10
 88.9000
 20
127.1883
 30
0.0
 40
  1.3057
 1
8*6，取点作为1脚标识
 0
TEXT
 8
COMMENTS
 10
114.3000
 20
124.6483
 30
0.0
 40
  1.3057
 1
9*5，取圆作为1脚标识
 0
TEXT
 8
COMMENTS
 10
139.7000
 20
127.1883
 30
0.0
 40
  1.3057
 1
8*4，取圆作为1脚标识
 0
POLYLINE
 8
COMMENTS
 66
1
 70
1
 10
0.0
 20
0.0
 30
0.0
 0
VERTEX
 8
COMMENTS
 10
112.5220
 20
190.7540
 30
0.0
 0
VERTEX
 8
COMMENTS
 10
112.5220
 20
188.2140
 30
0.0
 0
VERTEX
 8
COMMENTS
 10
113.2840
 20
188.2140
 30
0.0
 0
VERTEX
 8
COMMENTS
 10
113.2840
 20
188.4680
 30
0.0
 0
VERTEX
 8
COMMENTS
 10
120.3960
 20
188.4680
 30
0.0
 0
VERTEX
 8
COMMENTS
 10
120.3960
 20
188.2140
 30
0.0
 0
VERTEX
 8
COMMENTS
 10
121.1580
 20
188.2140
 30
0.0
 0
VERTEX
 8
COMMENTS
 10
121.1580
 20
190.7540
 30
0.0
 0
VERTEX
 8
COMMENTS
 10
120.3960
 20
190.7540
 30
0.0
 0
VERTEX
 8
COMMENTS
 10
120.3960
 20
190.5000
 30
0.0
 0
VERTEX
 8
COMMENTS
 10
113.2840
 20
190.5000
 30
0.0
 0
VERTEX
 8
COMMENTS
 10
113.2840
 20
190.7540
 30
0.0
 0
VERTEX
 8
COMMENTS
 10
112.5220
 20
190.7540
 30
0.0
 0
VERTEX
 8
COMMENTS
 10
112.5220
 20
190.7540
 30
0.0
 0
SEQEND
 8
COMMENTS
 0
POLYLINE
 8
COMMENTS
 66
1
 10
0.0
 20
0.0
 30
0.0
 0
VERTEX
 8
COMMENTS
 10
112.5220
 20
189.4840
 30
0.0
 0
VERTEX
 8
COMMENTS
 10
111.7600
 20
189.4840
 30
0.0
 0
SEQEND
 8
COMMENTS
 0
POLYLINE
 8
COMMENTS
 66
1
 10
0.0
 20
0.0
 30
0.0
 0
VERTEX
 8
COMMENTS
 10
121.9200
 20
189.4840
 30
0.0
 0
VERTEX
 8
COMMENTS
 10
121.1580
 20
189.4840
 30
0.0
 0
SEQEND
 8
COMMENTS
 0
POLYLINE
 8
COMMENTS
 66
1
 10
0.0
 20
0.0
 30
0.0
 0
VERTEX
 8
COMMENTS
 10
111.7600
 20
189.4840
 30
0.0
 0
VERTEX
 8
COMMENTS
 10
111.7600
 20
185.6740
 30
0.0
 0
SEQEND
 8
COMMENTS
 0
POLYLINE
 8
COMMENTS
 66
1
 10
0.0
 20
0.0
 30
0.0
 0
VERTEX
 8
COMMENTS
 10
121.9200
 20
189.4840
 30
0.0
 0
VERTEX
 8
COMMENTS
 10
121.9200
 20
185.6740
 30
0.0
 0
SEQEND
 8
COMMENTS
 0
POLYLINE
 8
COMMENTS
 66
1
 10
0.0
 20
0.0
 30
0.0
 40
  0.0200
 41
  0.0200
 0
VERTEX
 8
COMMENTS
 10
113.2840
 20
189.4840
 30
0.0
 0
VERTEX
 8
COMMENTS
 10
113.2840
 20
189.4840
 30
0.0
 0
SEQEND
 8
COMMENTS
 0
TEXT
 8
COMMENTS
 10
 83.8200
 20
114.4883
 30
0.0
 40
  1.3057
 1
ABCDEFGHIJKLMNOPQRSTUVWXYZ
 0
TEXT
 8
COMMENTS
 10
 83.8200
 20
119.5683
 30
0.0
 40
  1.3057
 1
1234567890
 0
TEXT
 8
COMMENTS
 10
 84.0740
 20
105.3803
 30
0.0
 40
  1.0157
 1
4R7
 0
TEXT
 8
COMMENTS
 10
 91.4400
 20
105.3803
 30
0.0
 40
  1.0157
 1
6R8
 0
TEXT
 8
COMMENTS
 10
 99.0600
 20
105.3803
 30
0.0
 40
  1.0157
 1
1R0
 0
POLYLINE
 8
COMMENTS
 66
1
 70
1
 10
0.0
 20
0.0
 30
0.0
 0
VERTEX
 8
COMMENTS
 10
 83.8200
 20
107.1880
 30
0.0
 0
VERTEX
 8
COMMENTS
 10
 84.3280
 20
107.4420
 30
0.0
 0
VERTEX
 8
COMMENTS
 10
 84.5820
 20
107.6960
 30
0.0
 0
VERTEX
 8
COMMENTS
 10
 84.8360
 20
108.2040
 30
0.0
 0
VERTEX
 8
COMMENTS
 10
 87.8840
 20
108.2040
 30
0.0
 0
VERTEX
 8
COMMENTS
 10
 88.1380
 20
107.6960
 30
0.0
 0
VERTEX
 8
COMMENTS
 10
 88.3920
 20
107.4420
 30
0.0
 0
VERTEX
 8
COMMENTS
 10
 88.9000
 20
107.1880
 30
0.0
 0
VERTEX
 8
COMMENTS
 10
 88.9000
 20
104.1400
 30
0.0
 0
VERTEX
 8
COMMENTS
 10
 88.3920
 20
103.8860
 30
0.0
 0
VERTEX
 8
COMMENTS
 10
 88.1380
 20
103.6320
 30
0.0
 0
VERTEX
 8
COMMENTS
 10
 87.8840
 20
103.1240
 30
0.0
 0
VERTEX
 8
COMMENTS
 10
 84.8360
 20
103.1240
 30
0.0
 0
VERTEX
 8
COMMENTS
 10
 84.5820
 20
103.6320
 30
0.0
 0
VERTEX
 8
COMMENTS
 10
 84.3280
 20
103.8860
 30
0.0
 0
VERTEX
 8
COMMENTS
 10
 83.8200
 20
104.1400
 30
0.0
 0
VERTEX
 8
COMMENTS
 10
 83.8200
 20
107.1880
 30
0.0
 0
VERTEX
 8
COMMENTS
 10
 83.8200
 20
107.1880
 30
0.0
 0
SEQEND
 8
COMMENTS
 0
POLYLINE
 8
COMMENTS
 66
1
 70
1
 10
0.0
 20
0.0
 30
0.0
 0
VERTEX
 8
COMMENTS
 10
 91.1860
 20
107.1880
 30
0.0
 0
VERTEX
 8
COMMENTS
 10
 91.6940
 20
107.4420
 30
0.0
 0
VERTEX
 8
COMMENTS
 10
 91.9480
 20
107.6960
 30
0.0
 0
VERTEX
 8
COMMENTS
 10
 92.2020
 20
108.2040
 30
0.0
 0
VERTEX
 8
COMMENTS
 10
 95.2500
 20
108.2040
 30
0.0
 0
VERTEX
 8
COMMENTS
 10
 95.5040
 20
107.6960
 30
0.0
 0
VERTEX
 8
COMMENTS
 10
 95.7580
 20
107.4420
 30
0.0
 0
VERTEX
 8
COMMENTS
 10
 96.2660
 20
107.1880
 30
0.0
 0
VERTEX
 8
COMMENTS
 10
 96.2660
 20
104.1400
 30
0.0
 0
VERTEX
 8
COMMENTS
 10
 95.7580
 20
103.8860
 30
0.0
 0
VERTEX
 8
COMMENTS
 10
 95.5040
 20
103.6320
 30
0.0
 0
VERTEX
 8
COMMENTS
 10
 95.2500
 20
103.1240
 30
0.0
 0
VERTEX
 8
COMMENTS
 10
 92.2020
 20
103.1240
 30
0.0
 0
VERTEX
 8
COMMENTS
 10
 91.9480
 20
103.6320
 30
0.0
 0
VERTEX
 8
COMMENTS
 10
 91.6940
 20
103.8860
 30
0.0
 0
VERTEX
 8
COMMENTS
 10
 91.1860
 20
104.1400
 30
0.0
 0
VERTEX
 8
COMMENTS
 10
 91.1860
 20
107.1880
 30
0.0
 0
VERTEX
 8
COMMENTS
 10
 91.1860
 20
107.1880
 30
0.0
 0
SEQEND
 8
COMMENTS
 0
POLYLINE
 8
COMMENTS
 66
1
 70
1
 10
0.0
 20
0.0
 30
0.0
 0
VERTEX
 8
COMMENTS
 10
 99.0600
 20
107.1880
 30
0.0
 0
VERTEX
 8
COMMENTS
 10
 99.5680
 20
107.4420
 30
0.0
 0
VERTEX
 8
COMMENTS
 10
 99.8220
 20
107.6960
 30
0.0
 0
VERTEX
 8
COMMENTS
 10
100.0760
 20
108.2040
 30
0.0
 0
VERTEX
 8
COMMENTS
 10
103.1240
 20
108.2040
 30
0.0
 0
VERTEX
 8
COMMENTS
 10
103.3780
 20
107.6960
 30
0.0
 0
VERTEX
 8
COMMENTS
 10
103.6320
 20
107.4420
 30
0.0
 0
VERTEX
 8
COMMENTS
 10
104.1400
 20
107.1880
 30
0.0
 0
VERTEX
 8
COMMENTS
 10
104.1400
 20
104.1400
 30
0.0
 0
VERTEX
 8
COMMENTS
 10
103.6320
 20
103.8860
 30
0.0
 0
VERTEX
 8
COMMENTS
 10
103.3780
 20
103.6320
 30
0.0
 0
VERTEX
 8
COMMENTS
 10
103.1240
 20
103.1240
 30
0.0
 0
VERTEX
 8
COMMENTS
 10
100.0760
 20
103.1240
 30
0.0
 0
VERTEX
 8
COMMENTS
 10
 99.8220
 20
103.6320
 30
0.0
 0
VERTEX
 8
COMMENTS
 10
 99.5680
 20
103.8860
 30
0.0
 0
VERTEX
 8
COMMENTS
 10
 99.0600
 20
104.1400
 30
0.0
 0
VERTEX
 8
COMMENTS
 10
 99.0600
 20
107.1880
 30
0.0
 0
VERTEX
 8
COMMENTS
 10
 99.0600
 20
107.1880
 30
0.0
 0
SEQEND
 8
COMMENTS
 0
POLYLINE
 8
COMMENTS
 66
1
 70
1
 10
0.0
 20
0.0
 30
0.0
 0
VERTEX
 8
COMMENTS
 10
100.0760
 20
 98.0440
 30
0.0
 0
VERTEX
 8
COMMENTS
 10
103.1240
 20
 98.0440
 30
0.0
 0
VERTEX
 8
COMMENTS
 10
103.1240
 20
 92.9640
 30
0.0
 0
VERTEX
 8
COMMENTS
 10
100.0760
 20
 92.9640
 30
0.0
 0
SEQEND
 8
COMMENTS
 0
TEXT
 8
COMMENTS
 10
 99.3140
 20
 95.2203
 30
0.0
 40
  1.0157
 1
6R8
 0
POLYLINE
 8
COMMENTS
 66
1
 70
1
 10
0.0
 20
0.0
 30
0.0
 0
VERTEX
 8
COMMENTS
 10
 99.0600
 20
 97.0280
 30
0.0
 0
VERTEX
 8
COMMENTS
 10
104.1400
 20
 97.0280
 30
0.0
 0
VERTEX
 8
COMMENTS
 10
104.1400
 20
 93.9800
 30
0.0
 0
VERTEX
 8
COMMENTS
 10
 99.0600
 20
 93.9800
 30
0.0
 0
SEQEND
 8
COMMENTS
 0
POLYLINE
 8
COMMENTS
 66
1
 70
1
 10
0.0
 20
0.0
 30
0.0
 0
VERTEX
 8
COMMENTS
 10
 99.3140
 20
 97.2820
 30
0.0
 0
VERTEX
 8
COMMENTS
 10
100.0760
 20
 97.2820
 30
0.0
 0
VERTEX
 8
COMMENTS
 10
100.0760
 20
 97.0280
 30
0.0
 0
VERTEX
 8
COMMENTS
 10
 99.3140
 20
 97.0280
 30
0.0
 0
SEQEND
 8
COMMENTS
 0
POLYLINE
 8
COMMENTS
 66
1
 70
1
 10
0.0
 20
0.0
 30
0.0
 0
VERTEX
 8
COMMENTS
 10
 99.8220
 20
 97.7900
 30
0.0
 0
VERTEX
 8
COMMENTS
 10
100.0760
 20
 97.7900
 30
0.0
 0
VERTEX
 8
COMMENTS
 10
100.0760
 20
 97.5360
 30
0.0
 0
VERTEX
 8
COMMENTS
 10
 99.8220
 20
 97.5360
 30
0.0
 0
SEQEND
 8
COMMENTS
 0
POLYLINE
 8
COMMENTS
 66
1
 70
1
 10
0.0
 20
0.0
 30
0.0
 0
VERTEX
 8
COMMENTS
 10
 99.5680
 20
 97.5360
 30
0.0
 0
VERTEX
 8
COMMENTS
 10
100.0760
 20
 97.5360
 30
0.0
 0
VERTEX
 8
COMMENTS
 10
100.0760
 20
 97.2820
 30
0.0
 0
VERTEX
 8
COMMENTS
 10
 99.5680
 20
 97.2820
 30
0.0
 0
SEQEND
 8
COMMENTS
 0
POLYLINE
 8
COMMENTS
 66
1
 70
1
 10
0.0
 20
0.0
 30
0.0
 0
VERTEX
 8
COMMENTS
 10
103.1240
 20
 93.9800
 30
0.0
 0
VERTEX
 8
COMMENTS
 10
103.8860
 20
 93.9800
 30
0.0
 0
VERTEX
 8
COMMENTS
 10
103.8860
 20
 93.7260
 30
0.0
 0
VERTEX
 8
COMMENTS
 10
103.1240
 20
 93.7260
 30
0.0
 0
SEQEND
 8
COMMENTS
 0
POLYLINE
 8
COMMENTS
 66
1
 70
1
 10
0.0
 20
0.0
 30
0.0
 0
VERTEX
 8
COMMENTS
 10
103.1240
 20
 93.4720
 30
0.0
 0
VERTEX
 8
COMMENTS
 10
103.3780
 20
 93.4720
 30
0.0
 0
VERTEX
 8
COMMENTS
 10
103.3780
 20
 93.2180
 30
0.0
 0
VERTEX
 8
COMMENTS
 10
103.1240
 20
 93.2180
 30
0.0
 0
SEQEND
 8
COMMENTS
 0
POLYLINE
 8
COMMENTS
 66
1
 70
1
 10
0.0
 20
0.0
 30
0.0
 0
VERTEX
 8
COMMENTS
 10
103.1240
 20
 93.7260
 30
0.0
 0
VERTEX
 8
COMMENTS
 10
103.6320
 20
 93.7260
 30
0.0
 0
VERTEX
 8
COMMENTS
 10
103.6320
 20
 93.4720
 30
0.0
 0
VERTEX
 8
COMMENTS
 10
103.1240
 20
 93.4720
 30
0.0
 0
SEQEND
 8
COMMENTS
 0
POLYLINE
 8
COMMENTS
 66
1
 70
1
 10
0.0
 20
0.0
 30
0.0
 0
VERTEX
 8
COMMENTS
 10
103.1240
 20
 97.2820
 30
0.0
 0
VERTEX
 8
COMMENTS
 10
103.8860
 20
 97.2820
 30
0.0
 0
VERTEX
 8
COMMENTS
 10
103.8860
 20
 97.0280
 30
0.0
 0
VERTEX
 8
COMMENTS
 10
103.1240
 20
 97.0280
 30
0.0
 0
SEQEND
 8
COMMENTS
 0
POLYLINE
 8
COMMENTS
 66
1
 70
1
 10
0.0
 20
0.0
 30
0.0
 0
VERTEX
 8
COMMENTS
 10
103.1240
 20
 97.5360
 30
0.0
 0
VERTEX
 8
COMMENTS
 10
103.6320
 20
 97.5360
 30
0.0
 0
VERTEX
 8
COMMENTS
 10
103.6320
 20
 97.2820
 30
0.0
 0
VERTEX
 8
COMMENTS
 10
103.1240
 20
 97.2820
 30
0.0
 0
SEQEND
 8
COMMENTS
 0
POLYLINE
 8
COMMENTS
 66
1
 70
1
 10
0.0
 20
0.0
 30
0.0
 0
VERTEX
 8
COMMENTS
 10
103.1240
 20
 97.7900
 30
0.0
 0
VERTEX
 8
COMMENTS
 10
103.3780
 20
 97.7900
 30
0.0
 0
VERTEX
 8
COMMENTS
 10
103.3780
 20
 97.5360
 30
0.0
 0
VERTEX
 8
COMMENTS
 10
103.1240
 20
 97.5360
 30
0.0
 0
SEQEND
 8
COMMENTS
 0
POLYLINE
 8
COMMENTS
 66
1
 70
1
 10
0.0
 20
0.0
 30
0.0
 0
VERTEX
 8
COMMENTS
 10
 99.3140
 20
 93.9800
 30
0.0
 0
VERTEX
 8
COMMENTS
 10
100.0760
 20
 93.9800
 30
0.0
 0
VERTEX
 8
COMMENTS
 10
100.0760
 20
 93.7260
 30
0.0
 0
VERTEX
 8
COMMENTS
 10
 99.3140
 20
 93.7260
 30
0.0
 0
SEQEND
 8
COMMENTS
 0
POLYLINE
 8
COMMENTS
 66
1
 70
1
 10
0.0
 20
0.0
 30
0.0
 0
VERTEX
 8
COMMENTS
 10
 99.5680
 20
 93.7260
 30
0.0
 0
VERTEX
 8
COMMENTS
 10
100.0760
 20
 93.7260
 30
0.0
 0
VERTEX
 8
COMMENTS
 10
100.0760
 20
 93.4720
 30
0.0
 0
VERTEX
 8
COMMENTS
 10
 99.5680
 20
 93.4720
 30
0.0
 0
SEQEND
 8
COMMENTS
 0
POLYLINE
 8
COMMENTS
 66
1
 70
1
 10
0.0
 20
0.0
 30
0.0
 0
VERTEX
 8
COMMENTS
 10
 99.8220
 20
 93.4720
 30
0.0
 0
VERTEX
 8
COMMENTS
 10
100.0760
 20
 93.4720
 30
0.0
 0
VERTEX
 8
COMMENTS
 10
100.0760
 20
 93.2180
 30
0.0
 0
VERTEX
 8
COMMENTS
 10
 99.8220
 20
 93.2180
 30
0.0
 0
SEQEND
 8
COMMENTS
 0
POLYLINE
 8
COMMENTS
 66
1
 70
1
 10
0.0
 20
0.0
 30
0.0
 0
VERTEX
 8
COMMENTS
 10
111.7600
 20
 97.0280
 30
0.0
 0
VERTEX
 8
COMMENTS
 10
116.8400
 20
 97.0280
 30
0.0
 0
VERTEX
 8
COMMENTS
 10
116.8400
 20
 93.9800
 30
0.0
 0
VERTEX
 8
COMMENTS
 10
111.7600
 20
 93.9800
 30
0.0
 0
SEQEND
 8
COMMENTS
 0
POLYLINE
 8
COMMENTS
 66
1
 70
1
 10
0.0
 20
0.0
 30
0.0
 0
VERTEX
 8
COMMENTS
 10
112.7760
 20
 98.0440
 30
0.0
 0
VERTEX
 8
COMMENTS
 10
115.8240
 20
 98.0440
 30
0.0
 0
VERTEX
 8
COMMENTS
 10
115.8240
 20
 92.9640
 30
0.0
 0
VERTEX
 8
COMMENTS
 10
112.7760
 20
 92.9640
 30
0.0
 0
SEQEND
 8
COMMENTS
 0
POLYLINE
 8
COMMENTS
 66
1
 70
1
 10
0.0
 20
0.0
 30
0.0
 0
VERTEX
 8
COMMENTS
 10
112.0140
 20
 97.2820
 30
0.0
 0
VERTEX
 8
COMMENTS
 10
112.7760
 20
 97.2820
 30
0.0
 0
VERTEX
 8
COMMENTS
 10
112.7760
 20
 97.0280
 30
0.0
 0
VERTEX
 8
COMMENTS
 10
112.0140
 20
 97.0280
 30
0.0
 0
SEQEND
 8
COMMENTS
 0
POLYLINE
 8
COMMENTS
 66
1
 70
1
 10
0.0
 20
0.0
 30
0.0
 0
VERTEX
 8
COMMENTS
 10
112.5220
 20
 97.7900
 30
0.0
 0
VERTEX
 8
COMMENTS
 10
112.7760
 20
 97.7900
 30
0.0
 0
VERTEX
 8
COMMENTS
 10
112.7760
 20
 97.0280
 30
0.0
 0
VERTEX
 8
COMMENTS
 10
112.5220
 20
 97.0280
 30
0.0
 0
SEQEND
 8
COMMENTS
 0
POLYLINE
 8
COMMENTS
 66
1
 70
1
 10
0.0
 20
0.0
 30
0.0
 0
VERTEX
 8
COMMENTS
 10
115.8240
 20
 97.7900
 30
0.0
 0
VERTEX
 8
COMMENTS
 10
116.0780
 20
 97.7900
 30
0.0
 0
VERTEX
 8
COMMENTS
 10
116.0780
 20
 97.0280
 30
0.0
 0
VERTEX
 8
COMMENTS
 10
115.8240
 20
 97.0280
 30
0.0
 0
SEQEND
 8
COMMENTS
 0
POLYLINE
 8
COMMENTS
 66
1
 70
1
 10
0.0
 20
0.0
 30
0.0
 0
VERTEX
 8
COMMENTS
 10
115.8240
 20
 97.2820
 30
0.0
 0
VERTEX
 8
COMMENTS
 10
116.5860
 20
 97.2820
 30
0.0
 0
VERTEX
 8
COMMENTS
 10
116.5860
 20
 97.0280
 30
0.0
 0
VERTEX
 8
COMMENTS
 10
115.8240
 20
 97.0280
 30
0.0
 0
SEQEND
 8
COMMENTS
 0
POLYLINE
 8
COMMENTS
 66
1
 70
1
 10
0.0
 20
0.0
 30
0.0
 0
VERTEX
 8
COMMENTS
 10
112.0140
 20
 93.9800
 30
0.0
 0
VERTEX
 8
COMMENTS
 10
112.7760
 20
 93.9800
 30
0.0
 0
VERTEX
 8
COMMENTS
 10
112.7760
 20
 93.7260
 30
0.0
 0
VERTEX
 8
COMMENTS
 10
112.0140
 20
 93.7260
 30
0.0
 0
SEQEND
 8
COMMENTS
 0
POLYLINE
 8
COMMENTS
 66
1
 70
1
 10
0.0
 20
0.0
 30
0.0
 0
VERTEX
 8
COMMENTS
 10
112.5220
 20
 93.9800
 30
0.0
 0
VERTEX
 8
COMMENTS
 10
112.7760
 20
 93.9800
 30
0.0
 0
VERTEX
 8
COMMENTS
 10
112.7760
 20
 93.2180
 30
0.0
 0
VERTEX
 8
COMMENTS
 10
112.5220
 20
 93.2180
 30
0.0
 0
SEQEND
 8
COMMENTS
 0
POLYLINE
 8
COMMENTS
 66
1
 70
1
 10
0.0
 20
0.0
 30
0.0
 0
VERTEX
 8
COMMENTS
 10
115.8240
 20
 93.9800
 30
0.0
 0
VERTEX
 8
COMMENTS
 10
116.0780
 20
 93.9800
 30
0.0
 0
VERTEX
 8
COMMENTS
 10
116.0780
 20
 93.2180
 30
0.0
 0
VERTEX
 8
COMMENTS
 10
115.8240
 20
 93.2180
 30
0.0
 0
SEQEND
 8
COMMENTS
 0
POLYLINE
 8
COMMENTS
 66
1
 70
1
 10
0.0
 20
0.0
 30
0.0
 0
VERTEX
 8
COMMENTS
 10
115.8240
 20
 93.9800
 30
0.0
 0
VERTEX
 8
COMMENTS
 10
116.5860
 20
 93.9800
 30
0.0
 0
VERTEX
 8
COMMENTS
 10
116.5860
 20
 93.7260
 30
0.0
 0
VERTEX
 8
COMMENTS
 10
115.8240
 20
 93.7260
 30
0.0
 0
SEQEND
 8
COMMENTS
 0
TEXT
 8
COMMENTS
 10
111.7600
 20
 95.2203
 30
0.0
 40
  1.0157
 1
1R0
 0
POLYLINE
 8
COMMENTS
 66
1
 10
0.0
 20
0.0
 30
0.0
 0
VERTEX
 8
COMMENTS
 10
116.8400
 20
 95.5040
 30
0.0
 0
VERTEX
 8
COMMENTS
 10
119.3800
 20
 95.5040
 30
0.0
 0
SEQEND
 8
COMMENTS
 0
POLYLINE
 8
COMMENTS
 66
1
 10
0.0
 20
0.0
 30
0.0
 0
VERTEX
 8
COMMENTS
 10
109.2200
 20
 95.5040
 30
0.0
 0
VERTEX
 8
COMMENTS
 10
111.7600
 20
 95.5040
 30
0.0
 0
SEQEND
 8
COMMENTS
 0
POLYLINE
 8
COMMENTS
 66
1
 10
0.0
 20
0.0
 30
0.0
 0
VERTEX
 8
COMMENTS
 10
 96.5200
 20
 95.5040
 30
0.0
 0
VERTEX
 8
COMMENTS
 10
 99.0600
 20
 95.5040
 30
0.0
 0
SEQEND
 8
COMMENTS
 0
POLYLINE
 8
COMMENTS
 66
1
 10
0.0
 20
0.0
 30
0.0
 0
VERTEX
 8
COMMENTS
 10
104.1400
 20
 95.5040
 30
0.0
 0
VERTEX
 8
COMMENTS
 10
106.6800
 20
 95.5040
 30
0.0
 0
SEQEND
 8
COMMENTS
 0
POLYLINE
 8
COMMENTS
 66
1
 70
1
 10
0.0
 20
0.0
 30
0.0
 0
VERTEX
 8
COMMENTS
 10
112.0140
 20
 87.8840
 30
0.0
 0
VERTEX
 8
COMMENTS
 10
116.5860
 20
 87.8840
 30
0.0
 0
VERTEX
 8
COMMENTS
 10
116.5860
 20
 82.8040
 30
0.0
 0
VERTEX
 8
COMMENTS
 10
112.0140
 20
 82.8040
 30
0.0
 0
SEQEND
 8
COMMENTS
 0
POLYLINE
 8
COMMENTS
 66
1
 70
1
 10
0.0
 20
0.0
 30
0.0
 0
VERTEX
 8
COMMENTS
 10
111.7600
 20
 87.6300
 30
0.0
 0
VERTEX
 8
COMMENTS
 10
116.8400
 20
 87.6300
 30
0.0
 0
VERTEX
 8
COMMENTS
 10
116.8400
 20
 83.0580
 30
0.0
 0
VERTEX
 8
COMMENTS
 10
111.7600
 20
 83.0580
 30
0.0
 0
SEQEND
 8
COMMENTS
 0
TEXT
 8
COMMENTS
 10
111.7600
 20
 85.0603
 30
0.0
 40
  1.0157
 1
1R0
 0
POLYLINE
 8
COMMENTS
 66
1
 10
0.0
 20
0.0
 30
0.0
 0
VERTEX
 8
COMMENTS
 10
116.8400
 20
 85.3440
 30
0.0
 0
VERTEX
 8
COMMENTS
 10
119.3800
 20
 85.3440
 30
0.0
 0
SEQEND
 8
COMMENTS
 0
POLYLINE
 8
COMMENTS
 66
1
 10
0.0
 20
0.0
 30
0.0
 0
VERTEX
 8
COMMENTS
 10
109.2200
 20
 85.3440
 30
0.0
 0
VERTEX
 8
COMMENTS
 10
111.7600
 20
 85.3440
 30
0.0
 0
SEQEND
 8
COMMENTS
 0
POLYLINE
 8
COMMENTS
 66
1
 10
0.0
 20
0.0
 30
0.0
 0
VERTEX
 8
COMMENTS
 10
164.0840
 20
 77.7240
 30
0.0
 0
VERTEX
 8
COMMENTS
 10
164.0840
 20
 72.6440
 30
0.0
 0
SEQEND
 8
COMMENTS
 0
POLYLINE
 8
COMMENTS
 66
1
 10
0.0
 20
0.0
 30
0.0
 0
VERTEX
 8
COMMENTS
 10
166.1160
 20
 77.7240
 30
0.0
 0
VERTEX
 8
COMMENTS
 10
166.1160
 20
 72.6440
 30
0.0
 0
SEQEND
 8
COMMENTS
 0
POLYLINE
 8
COMMENTS
 66
1
 10
0.0
 20
0.0
 30
0.0
 0
VERTEX
 8
COMMENTS
 10
162.5600
 20
 77.2160
 30
0.0
 0
VERTEX
 8
COMMENTS
 10
167.6400
 20
 77.2160
 30
0.0
 0
SEQEND
 8
COMMENTS
 0
POLYLINE
 8
COMMENTS
 66
1
 10
0.0
 20
0.0
 30
0.0
 0
VERTEX
 8
COMMENTS
 10
162.5600
 20
 73.1520
 30
0.0
 0
VERTEX
 8
COMMENTS
 10
167.6400
 20
 73.1520
 30
0.0
 0
SEQEND
 8
COMMENTS
 0
SPLINE
 8
COMMENTS
 66
1
 10
0.0
 20
0.0
 30
0.0
 0
VERTEX
 8
COMMENTS
 10
163.0680
 20
 75.1840
 30
0.0
 0
VERTEX
 8
COMMENTS
 10
164.0840
 20
 77.2160
 30
0.0
 0
VERTEX
 8
COMMENTS
 10
165.1000
 20
 75.1840
 30
0.0
 0
VERTEX
 8
COMMENTS
 10
165.1000
 20
 75.1840
 30
0.0
 0
VERTEX
 8
COMMENTS
 10
166.1160
 20
 73.1520
 30
0.0
 0
VERTEX
 8
COMMENTS
 10
167.1320
 20
 75.1840
 30
0.0
 0
VERTEX
 8
COMMENTS
 10
167.1320
 20
 75.1840
 30
0.0
 0
VERTEX
 8
COMMENTS
 10
167.1320
 20
 75.1840
 30
0.0
 0
VERTEX
 8
COMMENTS
 10
167.1320
 20
 75.1840
 30
0.0
 0
VERTEX
 8
COMMENTS
 10
167.1320
 20
 75.1840
 30
0.0
 0
SEQEND
 8
COMMENTS
 0
SPLINE
 8
COMMENTS
 66
1
 10
0.0
 20
0.0
 30
0.0
 0
VERTEX
 8
COMMENTS
 10
173.7360
 20
 65.0240
 30
0.0
 0
VERTEX
 8
COMMENTS
 10
174.4980
 20
 66.5480
 30
0.0
 0
VERTEX
 8
COMMENTS
 10
175.2600
 20
 65.0240
 30
0.0
 0
VERTEX
 8
COMMENTS
 10
175.2600
 20
 65.0240
 30
0.0
 0
VERTEX
 8
COMMENTS
 10
176.0220
 20
 63.5000
 30
0.0
 0
VERTEX
 8
COMMENTS
 10
176.7840
 20
 65.0240
 30
0.0
 0
VERTEX
 8
COMMENTS
 10
176.7840
 20
 65.0240
 30
0.0
 0
VERTEX
 8
COMMENTS
 10
176.7840
 20
 65.0240
 30
0.0
 0
VERTEX
 8
COMMENTS
 10
176.7840
 20
 65.0240
 30
0.0
 0
VERTEX
 8
COMMENTS
 10
176.7840
 20
 65.0240
 30
0.0
 0
SEQEND
 8
COMMENTS
 0
POLYLINE
 8
COMMENTS
 66
1
 10
0.0
 20
0.0
 30
0.0
 0
VERTEX
 8
COMMENTS
 10
172.7200
 20
 65.0240
 30
0.0
 0
VERTEX
 8
COMMENTS
 10
170.1800
 20
 65.0240
 30
0.0
 0
SEQEND
 8
COMMENTS
 0
POLYLINE
 8
COMMENTS
 66
1
 10
0.0
 20
0.0
 30
0.0
 0
VERTEX
 8
COMMENTS
 10
180.3400
 20
 65.0240
 30
0.0
 0
VERTEX
 8
COMMENTS
 10
177.8000
 20
 65.0240
 30
0.0
 0
SEQEND
 8
COMMENTS
 0
POLYLINE
 8
COMMENTS
 66
1
 70
1
 10
0.0
 20
0.0
 30
0.0
 0
VERTEX
 8
COMMENTS
 10
172.7200
 20
 66.0400
 30
0.0
 0
VERTEX
 8
COMMENTS
 10
173.2280
 20
 66.0400
 30
0.0
 0
VERTEX
 8
COMMENTS
 10
173.2280
 20
 64.0080
 30
0.0
 0
VERTEX
 8
COMMENTS
 10
172.7200
 20
 64.0080
 30
0.0
 0
SEQEND
 8
COMMENTS
 0
POLYLINE
 8
COMMENTS
 66
1
 70
1
 10
0.0
 20
0.0
 30
0.0
 0
VERTEX
 8
COMMENTS
 10
172.7200
 20
 66.0400
 30
0.0
 0
VERTEX
 8
COMMENTS
 10
177.8000
 20
 66.0400
 30
0.0
 0
VERTEX
 8
COMMENTS
 10
177.8000
 20
 64.0080
 30
0.0
 0
VERTEX
 8
COMMENTS
 10
172.7200
 20
 64.0080
 30
0.0
 0
SEQEND
 8
COMMENTS
 0
POLYLINE
 8
COMMENTS
 66
1
 70
1
 10
0.0
 20
0.0
 30
0.0
 0
VERTEX
 8
COMMENTS
 10
177.2920
 20
 66.0400
 30
0.0
 0
VERTEX
 8
COMMENTS
 10
177.8000
 20
 66.0400
 30
0.0
 0
VERTEX
 8
COMMENTS
 10
177.8000
 20
 64.0080
 30
0.0
 0
VERTEX
 8
COMMENTS
 10
177.2920
 20
 64.0080
 30
0.0
 0
SEQEND
 8
COMMENTS
 0
POLYLINE
 8
COMMENTS
 66
1
 10
0.0
 20
0.0
 30
0.0
 0
VERTEX
 8
COMMENTS
 10
172.7200
 20
 59.9440
 30
0.0
 0
VERTEX
 8
COMMENTS
 10
170.1800
 20
 59.9440
 30
0.0
 0
SEQEND
 8
COMMENTS
 0
POLYLINE
 8
COMMENTS
 66
1
 10
0.0
 20
0.0
 30
0.0
 0
VERTEX
 8
COMMENTS
 10
180.3400
 20
 59.9440
 30
0.0
 0
VERTEX
 8
COMMENTS
 10
177.8000
 20
 59.9440
 30
0.0
 0
SEQEND
 8
COMMENTS
 0
SPLINE
 8
COMMENTS
 66
1
 10
0.0
 20
0.0
 30
0.0
 0
VERTEX
 8
COMMENTS
 10
174.2440
 20
 59.9440
 30
0.0
 0
VERTEX
 8
COMMENTS
 10
174.7520
 20
 60.9600
 30
0.0
 0
VERTEX
 8
COMMENTS
 10
175.2600
 20
 59.9440
 30
0.0
 0
VERTEX
 8
COMMENTS
 10
175.2600
 20
 59.9440
 30
0.0
 0
VERTEX
 8
COMMENTS
 10
175.7680
 20
 58.9280
 30
0.0
 0
VERTEX
 8
COMMENTS
 10
176.2760
 20
 59.9440
 30
0.0
 0
VERTEX
 8
COMMENTS
 10
176.2760
 20
 59.9440
 30
0.0
 0
VERTEX
 8
COMMENTS
 10
176.2760
 20
 59.9440
 30
0.0
 0
VERTEX
 8
COMMENTS
 10
176.2760
 20
 59.9440
 30
0.0
 0
VERTEX
 8
COMMENTS
 10
176.2760
 20
 59.9440
 30
0.0
 0
SEQEND
 8
COMMENTS
 0
POLYLINE
 8
COMMENTS
 66
1
 70
1
 10
0.0
 20
0.0
 30
0.0
 0
VERTEX
 8
COMMENTS
 10
172.7200
 20
 61.2140
 30
0.0
 0
VERTEX
 8
COMMENTS
 10
177.8000
 20
 61.2140
 30
0.0
 0
VERTEX
 8
COMMENTS
 10
177.8000
 20
 58.6740
 30
0.0
 0
VERTEX
 8
COMMENTS
 10
172.7200
 20
 58.6740
 30
0.0
 0
SEQEND
 8
COMMENTS
 0
ENDSEC
 0
EOF
