 0
SECTION
 2
HEADER
 9
$ACADVER
 1
AC1009
 0
ENDSEC
 0
SECTION
 2
ENTITIES
 0
POLYLINE
 8
TITLE
 66
1
 70
1
 10
0.0
 20
0.0
 30
0.0
 0
VERTEX
 8
TITLE
 10
 -2.5400
 20
  2.5400
 30
0.0
 0
VERTEX
 8
TITLE
 10
207.2640
 20
  2.5400
 30
0.0
 0
VERTEX
 8
TITLE
 10
207.2640
 20
299.4660
 30
0.0
 0
VERTEX
 8
TITLE
 10
 -2.5400
 20
299.4660
 30
0.0
 0
SEQEND
 8
TITLE
 0
POLYLINE
 8
TITLE
 66
1
 70
1
 10
0.0
 20
0.0
 30
0.0
 0
VERTEX
 8
TITLE
 10
  0.0000
 20
  5.0800
 30
0.0
 0
VERTEX
 8
TITLE
 10
204.7240
 20
  5.0800
 30
0.0
 0
VERTEX
 8
TITLE
 10
204.7240
 20
296.9260
 30
0.0
 0
VERTEX
 8
TITLE
 10
  0.0000
 20
296.9260
 30
0.0
 0
SEQEND
 8
TITLE
 0
POLYLINE
 8
TITLE
 66
1
 10
0.0
 20
0.0
 30
0.0
 0
VERTEX
 8
TITLE
 10
 44.9580
 20
  5.0800
 30
0.0
 0
VERTEX
 8
TITLE
 10
 44.9580
 20
  2.5400
 30
0.0
 0
SEQEND
 8
TITLE
 0
POLYLINE
 8
TITLE
 66
1
 10
0.0
 20
0.0
 30
0.0
 0
VERTEX
 8
TITLE
 10
 44.9580
 20
296.9260
 30
0.0
 0
VERTEX
 8
TITLE
 10
 44.9580
 20
299.4660
 30
0.0
 0
SEQEND
 8
TITLE
 0
POLYLINE
 8
TITLE
 66
1
 10
0.0
 20
0.0
 30
0.0
 0
VERTEX
 8
TITLE
 10
 84.8360
 20
  5.0800
 30
0.0
 0
VERTEX
 8
TITLE
 10
 84.8360
 20
  2.5400
 30
0.0
 0
SEQEND
 8
TITLE
 0
POLYLINE
 8
TITLE
 66
1
 10
0.0
 20
0.0
 30
0.0
 0
VERTEX
 8
TITLE
 10
 84.8360
 20
296.9260
 30
0.0
 0
VERTEX
 8
TITLE
 10
 84.8360
 20
299.4660
 30
0.0
 0
SEQEND
 8
TITLE
 0
POLYLINE
 8
TITLE
 66
1
 10
0.0
 20
0.0
 30
0.0
 0
VERTEX
 8
TITLE
 10
124.7140
 20
  5.0800
 30
0.0
 0
VERTEX
 8
TITLE
 10
124.7140
 20
  2.5400
 30
0.0
 0
SEQEND
 8
TITLE
 0
POLYLINE
 8
TITLE
 66
1
 10
0.0
 20
0.0
 30
0.0
 0
VERTEX
 8
TITLE
 10
124.7140
 20
296.9260
 30
0.0
 0
VERTEX
 8
TITLE
 10
124.7140
 20
299.4660
 30
0.0
 0
SEQEND
 8
TITLE
 0
POLYLINE
 8
TITLE
 66
1
 10
0.0
 20
0.0
 30
0.0
 0
VERTEX
 8
TITLE
 10
164.5920
 20
  5.0800
 30
0.0
 0
VERTEX
 8
TITLE
 10
164.5920
 20
  2.5400
 30
0.0
 0
SEQEND
 8
TITLE
 0
POLYLINE
 8
TITLE
 66
1
 10
0.0
 20
0.0
 30
0.0
 0
VERTEX
 8
TITLE
 10
164.5920
 20
296.9260
 30
0.0
 0
VERTEX
 8
TITLE
 10
164.5920
 20
299.4660
 30
0.0
 0
SEQEND
 8
TITLE
 0
TEXT
 8
TITLE
 10
 24.8920
 20
  3.0480
 30
0.0
 40
  1.2700
 1
5
 0
TEXT
 8
TITLE
 10
 24.8920
 20
297.4340
 30
0.0
 40
  1.2700
 1
5
 0
TEXT
 8
TITLE
 10
 64.7700
 20
  3.0480
 30
0.0
 40
  1.2700
 1
4
 0
TEXT
 8
TITLE
 10
 64.7700
 20
297.4340
 30
0.0
 40
  1.2700
 1
4
 0
TEXT
 8
TITLE
 10
104.6480
 20
  3.0480
 30
0.0
 40
  1.2700
 1
3
 0
TEXT
 8
TITLE
 10
104.6480
 20
297.4340
 30
0.0
 40
  1.2700
 1
3
 0
TEXT
 8
TITLE
 10
144.5260
 20
  3.0480
 30
0.0
 40
  1.2700
 1
2
 0
TEXT
 8
TITLE
 10
144.5260
 20
297.4340
 30
0.0
 40
  1.2700
 1
2
 0
TEXT
 8
TITLE
 10
184.4040
 20
  3.0480
 30
0.0
 40
  1.2700
 1
1
 0
TEXT
 8
TITLE
 10
184.4040
 20
297.4340
 30
0.0
 40
  1.2700
 1
1
 0
POLYLINE
 8
TITLE
 66
1
 10
0.0
 20
0.0
 30
0.0
 0
VERTEX
 8
TITLE
 10
 -2.5400
 20
220.2180
 30
0.0
 0
VERTEX
 8
TITLE
 10
  0.0000
 20
220.2180
 30
0.0
 0
SEQEND
 8
TITLE
 0
POLYLINE
 8
TITLE
 66
1
 10
0.0
 20
0.0
 30
0.0
 0
VERTEX
 8
TITLE
 10
204.7240
 20
220.2180
 30
0.0
 0
VERTEX
 8
TITLE
 10
207.2640
 20
220.2180
 30
0.0
 0
SEQEND
 8
TITLE
 0
SOLID
 8
TITLE
 10
  0.0000
 20
148.5900
 30
0.0
 11
 -1.2700
 21
149.0980
 31
0.0
 12
 -1.2700
 22
148.0820
 32
0.0
 13
 -1.2700
 23
148.5900
 33
0.0
 0
SOLID
 8
TITLE
 10
204.7240
 20
148.5900
 30
0.0
 11
205.9940
 21
149.0980
 31
0.0
 12
205.9940
 22
148.0820
 32
0.0
 13
205.9940
 23
148.5900
 33
0.0
 0
POLYLINE
 8
TITLE
 66
1
 10
0.0
 20
0.0
 30
0.0
 0
VERTEX
 8
TITLE
 10
 -2.5400
 20
148.5900
 30
0.0
 0
VERTEX
 8
TITLE
 10
  0.0000
 20
148.5900
 30
0.0
 0
SEQEND
 8
TITLE
 0
POLYLINE
 8
TITLE
 66
1
 10
0.0
 20
0.0
 30
0.0
 0
VERTEX
 8
TITLE
 10
204.7240
 20
148.5900
 30
0.0
 0
VERTEX
 8
TITLE
 10
207.2640
 20
148.5900
 30
0.0
 0
SEQEND
 8
TITLE
 0
SOLID
 8
TITLE
 10
  0.0000
 20
148.5900
 30
0.0
 11
 -1.2700
 21
149.0980
 31
0.0
 12
 -1.2700
 22
148.0820
 32
0.0
 13
 -1.2700
 23
148.5900
 33
0.0
 0
SOLID
 8
TITLE
 10
204.7240
 20
148.5900
 30
0.0
 11
205.9940
 21
149.0980
 31
0.0
 12
205.9940
 22
148.0820
 32
0.0
 13
205.9940
 23
148.5900
 33
0.0
 0
POLYLINE
 8
TITLE
 66
1
 10
0.0
 20
0.0
 30
0.0
 0
VERTEX
 8
TITLE
 10
 -2.5400
 20
 76.9620
 30
0.0
 0
VERTEX
 8
TITLE
 10
  0.0000
 20
 76.9620
 30
0.0
 0
SEQEND
 8
TITLE
 0
POLYLINE
 8
TITLE
 66
1
 10
0.0
 20
0.0
 30
0.0
 0
VERTEX
 8
TITLE
 10
204.7240
 20
 76.9620
 30
0.0
 0
VERTEX
 8
TITLE
 10
207.2640
 20
 76.9620
 30
0.0
 0
SEQEND
 8
TITLE
 0
SOLID
 8
TITLE
 10
  0.0000
 20
148.5900
 30
0.0
 11
 -1.2700
 21
149.0980
 31
0.0
 12
 -1.2700
 22
148.0820
 32
0.0
 13
 -1.2700
 23
148.5900
 33
0.0
 0
SOLID
 8
TITLE
 10
204.7240
 20
148.5900
 30
0.0
 11
205.9940
 21
149.0980
 31
0.0
 12
205.9940
 22
148.0820
 32
0.0
 13
205.9940
 23
148.5900
 33
0.0
 0
TEXT
 8
TITLE
 10
 -2.0320
 20
256.0320
 30
0.0
 40
  1.2700
 1
D
 0
TEXT
 8
TITLE
 10
205.2320
 20
256.0320
 30
0.0
 40
  1.2700
 1
D
 0
TEXT
 8
TITLE
 10
 -2.0320
 20
184.4040
 30
0.0
 40
  1.2700
 1
C
 0
TEXT
 8
TITLE
 10
205.2320
 20
184.4040
 30
0.0
 40
  1.2700
 1
C
 0
TEXT
 8
TITLE
 10
 -2.0320
 20
112.7760
 30
0.0
 40
  1.2700
 1
B
 0
TEXT
 8
TITLE
 10
205.2320
 20
112.7760
 30
0.0
 40
  1.2700
 1
B
 0
TEXT
 8
TITLE
 10
 -2.0320
 20
 41.1480
 30
0.0
 40
  1.2700
 1
A
 0
TEXT
 8
TITLE
 10
205.2320
 20
 41.1480
 30
0.0
 40
  1.2700
 1
A
 0
TEXT
 8
TITLE
 10
185.4200
 20
 14.7437
 30
0.0
 40
  2.7523
 1
Joey
 0
TEXT
 8
TITLE
 10
180.5940
 20
 14.7437
 30
0.0
 40
  2.7523
 1
n
 0
POLYLINE
 8
TITLE
 66
1
 70
1
 10
0.0
 20
0.0
 30
0.0
 0
VERTEX
 8
TITLE
 10
185.4200
 20
 18.7960
 30
0.0
 0
VERTEX
 8
TITLE
 10
185.4200
 20
 18.7960
 30
0.0
 0
VERTEX
 8
TITLE
 10
184.9120
 20
 18.5420
 30
0.0
 0
VERTEX
 8
TITLE
 10
184.6580
 20
 18.2880
 30
0.0
 0
VERTEX
 8
TITLE
 10
184.4040
 20
 17.7800
 30
0.0
 0
VERTEX
 8
TITLE
 10
184.4040
 20
 11.4300
 30
0.0
 0
VERTEX
 8
TITLE
 10
184.6580
 20
 10.9220
 30
0.0
 0
VERTEX
 8
TITLE
 10
184.9120
 20
 10.6680
 30
0.0
 0
VERTEX
 8
TITLE
 10
185.4200
 20
 10.4140
 30
0.0
 0
VERTEX
 8
TITLE
 10
197.3580
 20
 10.4140
 30
0.0
 0
VERTEX
 8
TITLE
 10
197.8660
 20
 10.6680
 30
0.0
 0
VERTEX
 8
TITLE
 10
198.1200
 20
 10.9220
 30
0.0
 0
VERTEX
 8
TITLE
 10
198.3740
 20
 11.4300
 30
0.0
 0
VERTEX
 8
TITLE
 10
198.3740
 20
 17.7800
 30
0.0
 0
VERTEX
 8
TITLE
 10
198.1200
 20
 18.2880
 30
0.0
 0
VERTEX
 8
TITLE
 10
197.8660
 20
 18.5420
 30
0.0
 0
VERTEX
 8
TITLE
 10
197.3580
 20
 18.7960
 30
0.0
 0
VERTEX
 8
TITLE
 10
185.4200
 20
 18.7960
 30
0.0
 0
SEQEND
 8
TITLE
 0
POLYLINE
 8
TITLE
 66
1
 10
0.0
 20
0.0
 30
0.0
 40
  0.0600
 41
  0.0600
 0
VERTEX
 8
TITLE
 10
173.9900
 20
 12.4460
 30
0.0
 0
VERTEX
 8
TITLE
 10
173.9900
 20
 17.5260
 30
0.0
 0
SEQEND
 8
TITLE
 0
POLYLINE
 8
TITLE
 66
1
 10
0.0
 20
0.0
 30
0.0
 40
  0.0600
 41
  0.0600
 0
VERTEX
 8
TITLE
 10
173.9900
 20
 14.9860
 30
0.0
 0
VERTEX
 8
TITLE
 10
177.5460
 20
 14.9860
 30
0.0
 0
SEQEND
 8
TITLE
 0
POLYLINE
 8
TITLE
 66
1
 10
0.0
 20
0.0
 30
0.0
 40
  0.0600
 41
  0.0600
 0
VERTEX
 8
TITLE
 10
173.9900
 20
 12.9540
 30
0.0
 0
VERTEX
 8
TITLE
 10
177.5460
 20
 12.9540
 30
0.0
 0
SEQEND
 8
TITLE
 0
POLYLINE
 8
TITLE
 66
1
 70
1
 10
0.0
 20
0.0
 30
0.0
 40
  0.0600
 41
  0.0600
 0
VERTEX
 8
TITLE
 10
180.0860
 20
 14.9860
 30
0.0
 42
  0.1033
 0
VERTEX
 8
TITLE
 10
179.7186
 20
 16.6384
 30
0.0
 42
  0.1009
 0
VERTEX
 8
TITLE
 10
178.6725
 20
 18.0393
 30
0.0
 42
  0.0961
 0
VERTEX
 8
TITLE
 10
177.1068
 20
 18.9753
 30
0.0
 42
  0.0937
 0
VERTEX
 8
TITLE
 10
175.2600
 20
 19.3040
 30
0.0
 42
  0.0937
 0
VERTEX
 8
TITLE
 10
173.4132
 20
 18.9753
 30
0.0
 42
  0.0961
 0
VERTEX
 8
TITLE
 10
171.8475
 20
 18.0393
 30
0.0
 42
  0.1009
 0
VERTEX
 8
TITLE
 10
170.8014
 20
 16.6384
 30
0.0
 42
  0.1033
 0
VERTEX
 8
TITLE
 10
170.4340
 20
 14.9860
 30
0.0
 42
  0.1033
 0
VERTEX
 8
TITLE
 10
170.8014
 20
 13.3336
 30
0.0
 42
  0.1009
 0
VERTEX
 8
TITLE
 10
171.8475
 20
 11.9327
 30
0.0
 42
  0.0961
 0
VERTEX
 8
TITLE
 10
173.4132
 20
 10.9967
 30
0.0
 42
  0.0937
 0
VERTEX
 8
TITLE
 10
175.2600
 20
 10.6680
 30
0.0
 42
  0.0937
 0
VERTEX
 8
TITLE
 10
177.1068
 20
 10.9967
 30
0.0
 42
  0.0961
 0
VERTEX
 8
TITLE
 10
178.6725
 20
 11.9327
 30
0.0
 42
  0.1009
 0
VERTEX
 8
TITLE
 10
179.7186
 20
 13.3336
 30
0.0
 42
  0.1033
 0
SEQEND
 8
TITLE
 0
POLYLINE
 8
TITLE
 66
1
 10
0.0
 20
0.0
 30
0.0
 40
  0.0600
 41
  0.0600
 0
VERTEX
 8
TITLE
 10
173.9900
 20
 17.0180
 30
0.0
 0
VERTEX
 8
TITLE
 10
177.5460
 20
 17.0180
 30
0.0
 0
SEQEND
 8
TITLE
 0
POLYLINE
 8
TITLE
 66
1
 10
0.0
 20
0.0
 30
0.0
 40
  0.0600
 41
  0.0600
 0
VERTEX
 8
TITLE
 10
177.5460
 20
 14.9860
 30
0.0
 0
VERTEX
 8
TITLE
 10
177.5460
 20
 10.1600
 30
0.0
 0
SEQEND
 8
TITLE
 0
POLYLINE
 8
TITLE
 66
1
 10
0.0
 20
0.0
 30
0.0
 40
  0.0600
 41
  0.0600
 0
VERTEX
 8
TITLE
 10
173.4820
 20
 12.4460
 30
0.0
 0
VERTEX
 8
TITLE
 10
173.4820
 20
 17.5260
 30
0.0
 0
SEQEND
 8
TITLE
 0
POLYLINE
 8
TITLE
 66
1
 10
0.0
 20
0.0
 30
0.0
 40
  0.0600
 41
  0.0600
 0
VERTEX
 8
TITLE
 10
177.5460
 20
 19.8120
 30
0.0
 0
VERTEX
 8
TITLE
 10
177.5460
 20
 17.0180
 30
0.0
 0
SEQEND
 8
TITLE
 0
POLYLINE
 8
TITLE
 66
1
 10
0.0
 20
0.0
 30
0.0
 40
  0.0600
 41
  0.0600
 0
VERTEX
 8
TITLE
 10
169.9260
 20
 12.4460
 30
0.0
 0
VERTEX
 8
TITLE
 10
173.4820
 20
 12.4460
 30
0.0
 0
SEQEND
 8
TITLE
 0
POLYLINE
 8
TITLE
 66
1
 70
1
 10
0.0
 20
0.0
 30
0.0
 40
  0.0600
 41
  0.0600
 0
VERTEX
 8
TITLE
 10
175.7680
 20
 15.4940
 30
0.0
 0
VERTEX
 8
TITLE
 10
175.7680
 20
 15.4940
 30
0.0
 0
VERTEX
 8
TITLE
 10
175.7680
 20
 14.4780
 30
0.0
 0
VERTEX
 8
TITLE
 10
177.5460
 20
 14.9860
 30
0.0
 0
VERTEX
 8
TITLE
 10
175.7680
 20
 15.4940
 30
0.0
 0
SEQEND
 8
TITLE
 0
TEXT
 8
COMMENTS
 10
 71.1200
 20
288.7753
 30
0.0
 40
  3.0407
 1
深耕开源路 · 长做闭关人
 0
POLYLINE
 8
COMMENTS
 66
1
 70
1
 10
0.0
 20
0.0
 30
0.0
 0
VERTEX
 8
COMMENTS
 10
 20.3200
 20
208.0260
 30
0.0
 0
VERTEX
 8
COMMENTS
 10
 17.7800
 20
205.4860
 30
0.0
 0
VERTEX
 8
COMMENTS
 10
 20.3200
 20
202.9460
 30
0.0
 0
VERTEX
 8
COMMENTS
 10
 22.8600
 20
205.4860
 30
0.0
 0
VERTEX
 8
COMMENTS
 10
 20.3200
 20
208.0260
 30
0.0
 0
VERTEX
 8
COMMENTS
 10
 20.3200
 20
208.0260
 30
0.0
 0
SEQEND
 8
COMMENTS
 0
TEXT
 8
COMMENTS
 10
 25.4000
 20
204.9553
 30
0.0
 40
  3.0407
 1
电源树
 0
TEXT
 8
COMMENTS
 10
 53.3400
 20
204.9553
 30
0.0
 40
  3.0407
 1
硬件框图
 0
POLYLINE
 8
COMMENTS
 66
1
 70
1
 10
0.0
 20
0.0
 30
0.0
 0
VERTEX
 8
COMMENTS
 10
 48.2600
 20
208.0260
 30
0.0
 0
VERTEX
 8
COMMENTS
 10
 45.7200
 20
205.4860
 30
0.0
 0
VERTEX
 8
COMMENTS
 10
 48.2600
 20
202.9460
 30
0.0
 0
VERTEX
 8
COMMENTS
 10
 50.8000
 20
205.4860
 30
0.0
 0
VERTEX
 8
COMMENTS
 10
 48.2600
 20
208.0260
 30
0.0
 0
VERTEX
 8
COMMENTS
 10
 48.2600
 20
208.0260
 30
0.0
 0
SEQEND
 8
COMMENTS
 0
TEXT
 8
COMMENTS
 10
 86.3600
 20
204.9553
 30
0.0
 40
  3.0407
 1
资源分配表
 0
POLYLINE
 8
COMMENTS
 66
1
 70
1
 10
0.0
 20
0.0
 30
0.0
 0
VERTEX
 8
COMMENTS
 10
 81.2800
 20
208.0260
 30
0.0
 0
VERTEX
 8
COMMENTS
 10
 78.7400
 20
205.4860
 30
0.0
 0
VERTEX
 8
COMMENTS
 10
 81.2800
 20
202.9460
 30
0.0
 0
VERTEX
 8
COMMENTS
 10
 83.8200
 20
205.4860
 30
0.0
 0
VERTEX
 8
COMMENTS
 10
 81.2800
 20
208.0260
 30
0.0
 0
VERTEX
 8
COMMENTS
 10
 81.2800
 20
208.0260
 30
0.0
 0
SEQEND
 8
COMMENTS
 0
POLYLINE
 8
COMMENTS
 66
1
 70
1
 10
0.0
 20
0.0
 30
0.0
 0
VERTEX
 8
COMMENTS
 10
  0.0000
 20
296.9260
 30
0.0
 0
VERTEX
 8
COMMENTS
 10
 12.7000
 20
296.9260
 30
0.0
 0
VERTEX
 8
COMMENTS
 10
  0.0000
 20
284.2260
 30
0.0
 0
VERTEX
 8
COMMENTS
 10
  0.0000
 20
296.9260
 30
0.0
 0
VERTEX
 8
COMMENTS
 10
  0.0000
 20
296.9260
 30
0.0
 0
SEQEND
 8
COMMENTS
 0
TEXT
 8
COMMENTS
 10
  2.2860
 20
292.0773
 30
0.0
 40
  3.0407
 1
1
 0
TEXT
 8
COMMENTS
 10
132.0800
 20
248.8360
 30
0.0
 40
 20.1200
 1
路
 0
TEXT
 8
COMMENTS
 10
 78.7400
 20
248.8360
 30
0.0
 40
 20.1200
 1
源
 0
POLYLINE
 8
COMMENTS
 66
1
 70
1
 10
0.0
 20
0.0
 30
0.0
 0
VERTEX
 8
COMMENTS
 10
 22.8600
 20
243.5860
 30
0.0
 42
  0.0985
 0
VERTEX
 8
COMMENTS
 10
 22.6667
 20
244.5580
 30
0.0
 42
  0.0985
 0
VERTEX
 8
COMMENTS
 10
 22.1161
 20
245.3821
 30
0.0
 42
  0.0985
 0
VERTEX
 8
COMMENTS
 10
 21.2920
 20
245.9327
 30
0.0
 42
  0.0985
 0
VERTEX
 8
COMMENTS
 10
 20.3200
 20
246.1260
 30
0.0
 42
  0.0985
 0
VERTEX
 8
COMMENTS
 10
 19.3480
 20
245.9327
 30
0.0
 42
  0.0985
 0
VERTEX
 8
COMMENTS
 10
 18.5239
 20
245.3821
 30
0.0
 42
  0.0985
 0
VERTEX
 8
COMMENTS
 10
 17.9733
 20
244.5580
 30
0.0
 42
  0.0985
 0
VERTEX
 8
COMMENTS
 10
 17.7800
 20
243.5860
 30
0.0
 42
  0.0985
 0
VERTEX
 8
COMMENTS
 10
 17.9733
 20
242.6140
 30
0.0
 42
  0.0985
 0
VERTEX
 8
COMMENTS
 10
 18.5239
 20
241.7899
 30
0.0
 42
  0.0985
 0
VERTEX
 8
COMMENTS
 10
 19.3480
 20
241.2393
 30
0.0
 42
  0.0985
 0
VERTEX
 8
COMMENTS
 10
 20.3200
 20
241.0460
 30
0.0
 42
  0.0985
 0
VERTEX
 8
COMMENTS
 10
 21.2920
 20
241.2393
 30
0.0
 42
  0.0985
 0
VERTEX
 8
COMMENTS
 10
 22.1161
 20
241.7899
 30
0.0
 42
  0.0985
 0
VERTEX
 8
COMMENTS
 10
 22.6667
 20
242.6140
 30
0.0
 42
  0.0985
 0
SEQEND
 8
COMMENTS
 0
POLYLINE
 8
COMMENTS
 66
1
 70
1
 10
0.0
 20
0.0
 30
0.0
 0
VERTEX
 8
COMMENTS
 10
 22.3520
 20
244.0940
 30
0.0
 42
  0.0985
 0
VERTEX
 8
COMMENTS
 10
 22.1587
 20
245.0660
 30
0.0
 42
  0.0985
 0
VERTEX
 8
COMMENTS
 10
 21.6081
 20
245.8901
 30
0.0
 42
  0.0985
 0
VERTEX
 8
COMMENTS
 10
 20.7840
 20
246.4407
 30
0.0
 42
  0.0985
 0
VERTEX
 8
COMMENTS
 10
 19.8120
 20
246.6340
 30
0.0
 42
  0.0985
 0
VERTEX
 8
COMMENTS
 10
 18.8400
 20
246.4407
 30
0.0
 42
  0.0985
 0
VERTEX
 8
COMMENTS
 10
 18.0159
 20
245.8901
 30
0.0
 42
  0.0985
 0
VERTEX
 8
COMMENTS
 10
 17.4653
 20
245.0660
 30
0.0
 42
  0.0985
 0
VERTEX
 8
COMMENTS
 10
 17.2720
 20
244.0940
 30
0.0
 42
  0.0985
 0
VERTEX
 8
COMMENTS
 10
 17.4653
 20
243.1220
 30
0.0
 42
  0.0985
 0
VERTEX
 8
COMMENTS
 10
 18.0159
 20
242.2979
 30
0.0
 42
  0.0985
 0
VERTEX
 8
COMMENTS
 10
 18.8400
 20
241.7473
 30
0.0
 42
  0.0985
 0
VERTEX
 8
COMMENTS
 10
 19.8120
 20
241.5540
 30
0.0
 42
  0.0985
 0
VERTEX
 8
COMMENTS
 10
 20.7840
 20
241.7473
 30
0.0
 42
  0.0985
 0
VERTEX
 8
COMMENTS
 10
 21.6081
 20
242.2979
 30
0.0
 42
  0.0985
 0
VERTEX
 8
COMMENTS
 10
 22.1587
 20
243.1220
 30
0.0
 42
  0.0985
 0
SEQEND
 8
COMMENTS
 0
POLYLINE
 8
COMMENTS
 66
1
 70
1
 10
0.0
 20
0.0
 30
0.0
 0
VERTEX
 8
COMMENTS
 10
132.0800
 20
243.5860
 30
0.0
 42
  0.0985
 0
VERTEX
 8
COMMENTS
 10
131.8867
 20
244.5580
 30
0.0
 42
  0.0985
 0
VERTEX
 8
COMMENTS
 10
131.3361
 20
245.3821
 30
0.0
 42
  0.0985
 0
VERTEX
 8
COMMENTS
 10
130.5120
 20
245.9327
 30
0.0
 42
  0.0985
 0
VERTEX
 8
COMMENTS
 10
129.5400
 20
246.1260
 30
0.0
 42
  0.0985
 0
VERTEX
 8
COMMENTS
 10
128.5680
 20
245.9327
 30
0.0
 42
  0.0985
 0
VERTEX
 8
COMMENTS
 10
127.7439
 20
245.3821
 30
0.0
 42
  0.0985
 0
VERTEX
 8
COMMENTS
 10
127.1933
 20
244.5580
 30
0.0
 42
  0.0985
 0
VERTEX
 8
COMMENTS
 10
127.0000
 20
243.5860
 30
0.0
 42
  0.0985
 0
VERTEX
 8
COMMENTS
 10
127.1933
 20
242.6140
 30
0.0
 42
  0.0985
 0
VERTEX
 8
COMMENTS
 10
127.7439
 20
241.7899
 30
0.0
 42
  0.0985
 0
VERTEX
 8
COMMENTS
 10
128.5680
 20
241.2393
 30
0.0
 42
  0.0985
 0
VERTEX
 8
COMMENTS
 10
129.5400
 20
241.0460
 30
0.0
 42
  0.0985
 0
VERTEX
 8
COMMENTS
 10
130.5120
 20
241.2393
 30
0.0
 42
  0.0985
 0
VERTEX
 8
COMMENTS
 10
131.3361
 20
241.7899
 30
0.0
 42
  0.0985
 0
VERTEX
 8
COMMENTS
 10
131.8867
 20
242.6140
 30
0.0
 42
  0.0985
 0
SEQEND
 8
COMMENTS
 0
POLYLINE
 8
COMMENTS
 66
1
 70
1
 10
0.0
 20
0.0
 30
0.0
 0
VERTEX
 8
COMMENTS
 10
131.5720
 20
244.0940
 30
0.0
 42
  0.0985
 0
VERTEX
 8
COMMENTS
 10
131.3787
 20
245.0660
 30
0.0
 42
  0.0985
 0
VERTEX
 8
COMMENTS
 10
130.8281
 20
245.8901
 30
0.0
 42
  0.0985
 0
VERTEX
 8
COMMENTS
 10
130.0040
 20
246.4407
 30
0.0
 42
  0.0985
 0
VERTEX
 8
COMMENTS
 10
129.0320
 20
246.6340
 30
0.0
 42
  0.0985
 0
VERTEX
 8
COMMENTS
 10
128.0600
 20
246.4407
 30
0.0
 42
  0.0985
 0
VERTEX
 8
COMMENTS
 10
127.2359
 20
245.8901
 30
0.0
 42
  0.0985
 0
VERTEX
 8
COMMENTS
 10
126.6853
 20
245.0660
 30
0.0
 42
  0.0985
 0
VERTEX
 8
COMMENTS
 10
126.4920
 20
244.0940
 30
0.0
 42
  0.0985
 0
VERTEX
 8
COMMENTS
 10
126.6853
 20
243.1220
 30
0.0
 42
  0.0985
 0
VERTEX
 8
COMMENTS
 10
127.2359
 20
242.2979
 30
0.0
 42
  0.0985
 0
VERTEX
 8
COMMENTS
 10
128.0600
 20
241.7473
 30
0.0
 42
  0.0985
 0
VERTEX
 8
COMMENTS
 10
129.0320
 20
241.5540
 30
0.0
 42
  0.0985
 0
VERTEX
 8
COMMENTS
 10
130.0040
 20
241.7473
 30
0.0
 42
  0.0985
 0
VERTEX
 8
COMMENTS
 10
130.8281
 20
242.2979
 30
0.0
 42
  0.0985
 0
VERTEX
 8
COMMENTS
 10
131.3787
 20
243.1220
 30
0.0
 42
  0.0985
 0
SEQEND
 8
COMMENTS
 0
POLYLINE
 8
COMMENTS
 66
1
 70
1
 10
0.0
 20
0.0
 30
0.0
 0
VERTEX
 8
COMMENTS
 10
185.4200
 20
243.5860
 30
0.0
 42
  0.0985
 0
VERTEX
 8
COMMENTS
 10
185.2267
 20
244.5580
 30
0.0
 42
  0.0985
 0
VERTEX
 8
COMMENTS
 10
184.6761
 20
245.3821
 30
0.0
 42
  0.0985
 0
VERTEX
 8
COMMENTS
 10
183.8520
 20
245.9327
 30
0.0
 42
  0.0985
 0
VERTEX
 8
COMMENTS
 10
182.8800
 20
246.1260
 30
0.0
 42
  0.0985
 0
VERTEX
 8
COMMENTS
 10
181.9080
 20
245.9327
 30
0.0
 42
  0.0985
 0
VERTEX
 8
COMMENTS
 10
181.0839
 20
245.3821
 30
0.0
 42
  0.0985
 0
VERTEX
 8
COMMENTS
 10
180.5333
 20
244.5580
 30
0.0
 42
  0.0985
 0
VERTEX
 8
COMMENTS
 10
180.3400
 20
243.5860
 30
0.0
 42
  0.0985
 0
VERTEX
 8
COMMENTS
 10
180.5333
 20
242.6140
 30
0.0
 42
  0.0985
 0
VERTEX
 8
COMMENTS
 10
181.0839
 20
241.7899
 30
0.0
 42
  0.0985
 0
VERTEX
 8
COMMENTS
 10
181.9080
 20
241.2393
 30
0.0
 42
  0.0985
 0
VERTEX
 8
COMMENTS
 10
182.8800
 20
241.0460
 30
0.0
 42
  0.0985
 0
VERTEX
 8
COMMENTS
 10
183.8520
 20
241.2393
 30
0.0
 42
  0.0985
 0
VERTEX
 8
COMMENTS
 10
184.6761
 20
241.7899
 30
0.0
 42
  0.0985
 0
VERTEX
 8
COMMENTS
 10
185.2267
 20
242.6140
 30
0.0
 42
  0.0985
 0
SEQEND
 8
COMMENTS
 0
POLYLINE
 8
COMMENTS
 66
1
 70
1
 10
0.0
 20
0.0
 30
0.0
 0
VERTEX
 8
COMMENTS
 10
184.9120
 20
244.0940
 30
0.0
 42
  0.0985
 0
VERTEX
 8
COMMENTS
 10
184.7187
 20
245.0660
 30
0.0
 42
  0.0985
 0
VERTEX
 8
COMMENTS
 10
184.1681
 20
245.8901
 30
0.0
 42
  0.0985
 0
VERTEX
 8
COMMENTS
 10
183.3440
 20
246.4407
 30
0.0
 42
  0.0985
 0
VERTEX
 8
COMMENTS
 10
182.3720
 20
246.6340
 30
0.0
 42
  0.0985
 0
VERTEX
 8
COMMENTS
 10
181.4000
 20
246.4407
 30
0.0
 42
  0.0985
 0
VERTEX
 8
COMMENTS
 10
180.5759
 20
245.8901
 30
0.0
 42
  0.0985
 0
VERTEX
 8
COMMENTS
 10
180.0253
 20
245.0660
 30
0.0
 42
  0.0985
 0
VERTEX
 8
COMMENTS
 10
179.8320
 20
244.0940
 30
0.0
 42
  0.0985
 0
VERTEX
 8
COMMENTS
 10
180.0253
 20
243.1220
 30
0.0
 42
  0.0985
 0
VERTEX
 8
COMMENTS
 10
180.5759
 20
242.2979
 30
0.0
 42
  0.0985
 0
VERTEX
 8
COMMENTS
 10
181.4000
 20
241.7473
 30
0.0
 42
  0.0985
 0
VERTEX
 8
COMMENTS
 10
182.3720
 20
241.5540
 30
0.0
 42
  0.0985
 0
VERTEX
 8
COMMENTS
 10
183.3440
 20
241.7473
 30
0.0
 42
  0.0985
 0
VERTEX
 8
COMMENTS
 10
184.1681
 20
242.2979
 30
0.0
 42
  0.0985
 0
VERTEX
 8
COMMENTS
 10
184.7187
 20
243.1220
 30
0.0
 42
  0.0985
 0
SEQEND
 8
COMMENTS
 0
TEXT
 8
COMMENTS
 10
 22.8600
 20
248.8360
 30
0.0
 40
 20.1200
 1
开
 0
POLYLINE
 8
COMMENTS
 66
1
 70
1
 10
0.0
 20
0.0
 30
0.0
 0
VERTEX
 8
COMMENTS
 10
 78.7400
 20
243.5860
 30
0.0
 42
  0.0985
 0
VERTEX
 8
COMMENTS
 10
 78.5467
 20
244.5580
 30
0.0
 42
  0.0985
 0
VERTEX
 8
COMMENTS
 10
 77.9961
 20
245.3821
 30
0.0
 42
  0.0985
 0
VERTEX
 8
COMMENTS
 10
 77.1720
 20
245.9327
 30
0.0
 42
  0.0985
 0
VERTEX
 8
COMMENTS
 10
 76.2000
 20
246.1260
 30
0.0
 42
  0.0985
 0
VERTEX
 8
COMMENTS
 10
 75.2280
 20
245.9327
 30
0.0
 42
  0.0985
 0
VERTEX
 8
COMMENTS
 10
 74.4039
 20
245.3821
 30
0.0
 42
  0.0985
 0
VERTEX
 8
COMMENTS
 10
 73.8533
 20
244.5580
 30
0.0
 42
  0.0985
 0
VERTEX
 8
COMMENTS
 10
 73.6600
 20
243.5860
 30
0.0
 42
  0.0985
 0
VERTEX
 8
COMMENTS
 10
 73.8533
 20
242.6140
 30
0.0
 42
  0.0985
 0
VERTEX
 8
COMMENTS
 10
 74.4039
 20
241.7899
 30
0.0
 42
  0.0985
 0
VERTEX
 8
COMMENTS
 10
 75.2280
 20
241.2393
 30
0.0
 42
  0.0985
 0
VERTEX
 8
COMMENTS
 10
 76.2000
 20
241.0460
 30
0.0
 42
  0.0985
 0
VERTEX
 8
COMMENTS
 10
 77.1720
 20
241.2393
 30
0.0
 42
  0.0985
 0
VERTEX
 8
COMMENTS
 10
 77.9961
 20
241.7899
 30
0.0
 42
  0.0985
 0
VERTEX
 8
COMMENTS
 10
 78.5467
 20
242.6140
 30
0.0
 42
  0.0985
 0
SEQEND
 8
COMMENTS
 0
POLYLINE
 8
COMMENTS
 66
1
 70
1
 10
0.0
 20
0.0
 30
0.0
 0
VERTEX
 8
COMMENTS
 10
 78.2320
 20
244.0940
 30
0.0
 42
  0.0985
 0
VERTEX
 8
COMMENTS
 10
 78.0387
 20
245.0660
 30
0.0
 42
  0.0985
 0
VERTEX
 8
COMMENTS
 10
 77.4881
 20
245.8901
 30
0.0
 42
  0.0985
 0
VERTEX
 8
COMMENTS
 10
 76.6640
 20
246.4407
 30
0.0
 42
  0.0985
 0
VERTEX
 8
COMMENTS
 10
 75.6920
 20
246.6340
 30
0.0
 42
  0.0985
 0
VERTEX
 8
COMMENTS
 10
 74.7200
 20
246.4407
 30
0.0
 42
  0.0985
 0
VERTEX
 8
COMMENTS
 10
 73.8959
 20
245.8901
 30
0.0
 42
  0.0985
 0
VERTEX
 8
COMMENTS
 10
 73.3453
 20
245.0660
 30
0.0
 42
  0.0985
 0
VERTEX
 8
COMMENTS
 10
 73.1520
 20
244.0940
 30
0.0
 42
  0.0985
 0
VERTEX
 8
COMMENTS
 10
 73.3453
 20
243.1220
 30
0.0
 42
  0.0985
 0
VERTEX
 8
COMMENTS
 10
 73.8959
 20
242.2979
 30
0.0
 42
  0.0985
 0
VERTEX
 8
COMMENTS
 10
 74.7200
 20
241.7473
 30
0.0
 42
  0.0985
 0
VERTEX
 8
COMMENTS
 10
 75.6920
 20
241.5540
 30
0.0
 42
  0.0985
 0
VERTEX
 8
COMMENTS
 10
 76.6640
 20
241.7473
 30
0.0
 42
  0.0985
 0
VERTEX
 8
COMMENTS
 10
 77.4881
 20
242.2979
 30
0.0
 42
  0.0985
 0
VERTEX
 8
COMMENTS
 10
 78.0387
 20
243.1220
 30
0.0
 42
  0.0985
 0
SEQEND
 8
COMMENTS
 0
TEXT
 8
COMMENTS
 10
124.4600
 20
204.9553
 30
0.0
 40
  3.0407
 1
数据手册导读
 0
POLYLINE
 8
COMMENTS
 66
1
 70
1
 10
0.0
 20
0.0
 30
0.0
 0
VERTEX
 8
COMMENTS
 10
119.3800
 20
208.0260
 30
0.0
 0
VERTEX
 8
COMMENTS
 10
116.8400
 20
205.4860
 30
0.0
 0
VERTEX
 8
COMMENTS
 10
119.3800
 20
202.9460
 30
0.0
 0
VERTEX
 8
COMMENTS
 10
121.9200
 20
205.4860
 30
0.0
 0
VERTEX
 8
COMMENTS
 10
119.3800
 20
208.0260
 30
0.0
 0
VERTEX
 8
COMMENTS
 10
119.3800
 20
208.0260
 30
0.0
 0
SEQEND
 8
COMMENTS
 0
TEXT
 8
COMMENTS
 10
 71.6280
 20
283.6953
 30
0.0
 40
  3.0407
 1
Deep Dive , Long Game
 0
TEXT
 8
COMMENTS
 10
 25.4000
 20
201.0309
 30
0.0
 40
  1.8851
 1
PowerTree
 0
TEXT
 8
COMMENTS
 10
 53.3400
 20
201.0309
 30
0.0
 40
  1.8851
 1
BlockDiagram
 0
TEXT
 8
COMMENTS
 10
 86.3600
 20
201.0309
 30
0.0
 40
  1.8851
 1
AllocationSheet
 0
TEXT
 8
COMMENTS
 10
124.4600
 20
201.0309
 30
0.0
 40
  1.8851
 1
DatasheetReading
 0
POLYLINE
 8
COMMENTS
 66
1
 10
0.0
 20
0.0
 30
0.0
 0
VERTEX
 8
COMMENTS
 10
 20.3200
 20
202.9460
 30
0.0
 0
VERTEX
 8
COMMENTS
 10
 22.8600
 20
200.4060
 30
0.0
 0
SEQEND
 8
COMMENTS
 0
POLYLINE
 8
COMMENTS
 66
1
 10
0.0
 20
0.0
 30
0.0
 0
VERTEX
 8
COMMENTS
 10
 48.2600
 20
202.9460
 30
0.0
 0
VERTEX
 8
COMMENTS
 10
 50.8000
 20
200.4060
 30
0.0
 0
SEQEND
 8
COMMENTS
 0
POLYLINE
 8
COMMENTS
 66
1
 10
0.0
 20
0.0
 30
0.0
 0
VERTEX
 8
COMMENTS
 10
 81.2800
 20
202.9460
 30
0.0
 0
VERTEX
 8
COMMENTS
 10
 83.8200
 20
200.4060
 30
0.0
 0
SEQEND
 8
COMMENTS
 0
POLYLINE
 8
COMMENTS
 66
1
 10
0.0
 20
0.0
 30
0.0
 0
VERTEX
 8
COMMENTS
 10
119.3800
 20
202.9460
 30
0.0
 0
VERTEX
 8
COMMENTS
 10
121.9200
 20
200.4060
 30
0.0
 0
SEQEND
 8
COMMENTS
 0
TEXT
 8
COMMENTS
 10
165.1000
 20
203.3773
 30
0.0
 40
  4.6187
 1
2026.01
 0
ENDSEC
 0
EOF
